<?xml version="1.0" standalone="no"?>
<!DOCTYPE svg PUBLIC "-//W3C//DTD SVG 20010904//EN"
 "http://www.w3.org/TR/2001/REC-SVG-20010904/DTD/svg10.dtd">
<svg version="1.0" xmlns="http://www.w3.org/2000/svg"
 width="735.000000pt" height="490.000000pt" viewBox="0 0 735.000000 490.000000"
 preserveAspectRatio="xMidYMid meet">

<g transform="translate(0.000000,490.000000) scale(0.100000,-0.100000)"
fill="#000000" stroke="none">
<path d="M1278 4893 c7 -3 16 -2 19 1 4 3 -2 6 -13 5 -11 0 -14 -3 -6 -6z"/>
<path d="M3996 4887 c3 -10 9 -15 12 -12 3 3 0 11 -7 18 -10 9 -11 8 -5 -6z"/>
<path d="M4197 4893 c-7 -12 54 -113 68 -113 7 0 18 7 25 16 11 13 10 16 -6
20 -11 3 -29 23 -42 45 -22 37 -36 47 -45 32z"/>
<path d="M4275 4890 c-6 -10 19 -65 35 -75 25 -15 29 9 8 46 -22 40 -32 47
-43 29z"/>
<path d="M4341 4881 c-15 -27 13 -51 37 -33 10 7 25 15 35 18 9 4 17 13 17 20
0 23 -77 18 -89 -5z m44 -1 c-3 -5 -11 -10 -16 -10 -6 0 -7 5 -4 10 3 6 11 10
16 10 6 0 7 -4 4 -10z"/>
<path d="M4062 4862 c-11 -25 -11 -25 4 -10 9 9 15 21 13 27 -2 6 -10 -2 -17
-17z"/>
<path d="M3970 4860 c6 -11 13 -20 16 -20 2 0 0 9 -6 20 -6 11 -13 20 -16 20
-2 0 0 -9 6 -20z"/>
<path d="M4540 4870 c0 -5 7 -7 15 -4 8 4 15 8 15 10 0 2 -7 4 -15 4 -8 0 -15
-4 -15 -10z"/>
<path d="M4145 4860 c-10 -16 46 -110 66 -110 31 0 31 19 0 50 -16 17 -33 39
-36 50 -7 22 -20 26 -30 10z"/>
<path d="M3923 4844 c9 -12 14 -24 10 -29 -5 -4 -2 -5 5 -1 7 4 19 2 27 -4 8
-7 15 -10 15 -7 0 2 -17 17 -37 33 -24 17 -32 20 -20 8z"/>
<path d="M4017 4849 c7 -7 15 -10 18 -7 3 3 -2 9 -12 12 -14 6 -15 5 -6 -5z"/>
<path d="M4480 4841 c0 -7 -5 -9 -12 -5 -7 5 -8 3 -3 -5 5 -9 10 -10 18 -2 6
6 8 14 4 18 -4 3 -7 1 -7 -6z"/>
<path d="M4078 4819 c-23 -17 -25 -23 -17 -52 11 -40 11 -50 0 -42 -5 3 -12
19 -16 36 -7 30 -32 36 -27 5 3 -18 -9 -21 -25 -5 -8 8 -13 7 -18 -1 -4 -7 4
-22 19 -37 15 -14 25 -28 22 -31 -4 -3 -19 7 -35 22 -22 21 -33 26 -46 19 -14
-8 -9 -16 35 -51 55 -44 84 -46 74 -6 -4 15 -2 24 5 24 6 0 11 -4 11 -10 0 -5
9 -10 21 -10 20 0 21 3 14 69 -5 55 -4 69 7 68 7 -1 14 2 16 8 6 17 -12 15
-40 -6z"/>
<path d="M3902 4790 c0 -14 2 -19 5 -12 2 6 2 18 0 25 -3 6 -5 1 -5 -13z"/>
<path d="M4117 4804 c-8 -8 33 -84 44 -84 19 0 19 23 -1 55 -22 35 -31 41 -43
29z"/>
<path d="M7322 4801 c-18 -11 -11 -45 10 -49 13 -2 16 4 16 27 -1 33 -5 36
-26 22z"/>
<path d="M6940 4750 c6 -11 13 -20 16 -20 2 0 0 9 -6 20 -6 11 -13 20 -16 20
-2 0 0 -9 6 -20z"/>
<path d="M7250 4755 c-7 -8 -20 -15 -29 -15 -9 0 -27 -9 -41 -19 l-24 -19 19
-36 c18 -34 34 -44 48 -30 3 4 -1 17 -9 30 -24 36 -6 52 21 18 28 -35 53 -25
28 12 -11 17 -13 28 -6 35 7 7 16 2 27 -15 9 -15 23 -26 31 -26 20 0 19 9 -5
48 -21 35 -41 40 -60 17z"/>
<path d="M6900 4711 c0 -5 5 -13 10 -16 6 -3 10 -2 10 4 0 5 -4 13 -10 16 -5
3 -10 2 -10 -4z"/>
<path d="M6966 4707 c3 -10 9 -15 12 -12 3 3 0 11 -7 18 -10 9 -11 8 -5 -6z"/>
<path d="M4241 4694 c0 -11 3 -14 6 -6 3 7 2 16 -1 19 -3 4 -6 -2 -5 -13z"/>
<path d="M6842 4688 c-7 -7 -12 -20 -12 -29 0 -19 27 -45 37 -35 3 3 1 6 -5 6
-17 0 -25 39 -12 55 15 18 9 20 -8 3z"/>
<path d="M6882 4686 c7 -8 15 -12 17 -11 5 6 -10 25 -20 25 -5 0 -4 -6 3 -14z"/>
<path d="M4475 4680 c3 -5 8 -10 11 -10 2 0 4 5 4 10 0 6 -5 10 -11 10 -5 0
-7 -4 -4 -10z"/>
<path d="M7088 4666 c-17 -12 -25 -36 -12 -36 3 0 12 7 21 15 8 9 17 14 20 11
3 -2 -5 -14 -16 -25 -11 -11 -18 -27 -15 -36 8 -19 53 -20 60 0 4 8 9 13 13
11 4 -3 12 -1 19 3 9 5 4 16 -14 39 -29 34 -49 39 -76 18z m52 -44 c0 -13 -12
-22 -22 -16 -10 6 -1 24 13 24 5 0 9 -4 9 -8z"/>
<path d="M7005 4659 c-10 -15 1 -23 20 -15 9 3 13 10 10 16 -8 13 -22 13 -30
-1z"/>
<path d="M6730 4659 c0 -4 11 -27 25 -50 14 -24 25 -39 25 -34 0 11 -49 94
-50 84z"/>
<path d="M6807 4636 c20 -26 27 -28 17 -3 -3 8 -12 18 -20 21 -11 4 -10 0 3
-18z"/>
<path d="M6889 4633 c-13 -16 -12 -17 4 -4 9 7 17 15 17 17 0 8 -8 3 -21 -13z"/>
<path d="M4395 4630 c3 -5 8 -10 11 -10 2 0 4 5 4 10 0 6 -5 10 -11 10 -5 0
-7 -4 -4 -10z"/>
<path d="M6953 4629 c-8 -8 -3 -24 19 -60 16 -27 35 -49 41 -49 21 0 40 17 33
29 -4 6 -11 9 -16 6 -5 -3 -21 15 -35 40 -30 51 -27 49 -42 34z"/>
<path d="M7032 4631 c-12 -7 -11 -14 2 -39 19 -36 34 -48 47 -35 14 14 -33 84
-49 74z"/>
<path d="M7330 4630 c0 -5 5 -10 11 -10 5 0 7 5 4 10 -3 6 -8 10 -11 10 -2 0
-4 -4 -4 -10z"/>
<path d="M4106 4622 c-3 -5 1 -9 9 -9 8 0 12 4 9 9 -3 4 -7 8 -9 8 -2 0 -6 -4
-9 -8z"/>
<path d="M6725 4591 c8 -17 19 -33 25 -36 5 -3 1 10 -11 29 -25 43 -36 48 -14
7z"/>
<path d="M6640 4588 c0 -18 2 -20 10 -8 8 13 12 13 27 -3 17 -17 17 -18 -5
-23 -16 -5 -22 -13 -21 -33 1 -20 2 -22 6 -6 8 30 34 45 58 33 22 -11 -29 36
-57 52 -15 9 -18 7 -18 -12z"/>
<path d="M6900 4600 c-22 -14 31 -105 61 -105 12 0 24 6 27 13 2 6 -3 12 -10
12 -8 0 -26 20 -39 44 -18 34 -28 43 -39 36z"/>
<path d="M4325 4590 c3 -5 8 -10 11 -10 2 0 4 5 4 10 0 6 -5 10 -11 10 -5 0
-7 -4 -4 -10z"/>
<path d="M6805 4590 c-3 -5 -2 -10 4 -10 5 0 13 5 16 10 3 6 2 10 -4 10 -5 0
-13 -4 -16 -10z"/>
<path d="M7260 4590 c0 -5 5 -10 11 -10 5 0 7 5 4 10 -3 6 -8 10 -11 10 -2 0
-4 -4 -4 -10z"/>
<path d="M4290 4574 c0 -8 5 -12 10 -9 6 4 8 11 5 16 -9 14 -15 11 -15 -7z"/>
<path d="M7230 4579 c0 -5 -4 -7 -10 -4 -6 3 -7 -1 -4 -10 5 -12 10 -13 20 -4
8 6 11 15 8 20 -7 12 -14 11 -14 -2z"/>
<path d="M6854 4572 c-15 -9 42 -112 62 -112 18 0 18 3 -6 50 -15 29 -25 38
-38 34 -14 -5 -15 -4 -2 5 17 12 2 34 -16 23z"/>
<path d="M6808 4544 c-4 -3 -2 -20 3 -37 11 -40 11 -47 0 -47 -5 0 -12 16 -15
36 -8 38 -33 43 -29 5 2 -18 0 -20 -17 -9 -32 20 -35 0 -5 -32 35 -37 22 -40
-16 -4 -20 20 -31 24 -44 17 -14 -8 -9 -16 36 -52 56 -44 74 -47 73 -12 -1 24
6 27 24 9 23 -23 35 6 27 71 -6 56 -19 74 -37 55z"/>
<path d="M4210 4524 c0 -8 5 -12 10 -9 6 4 8 11 5 16 -9 14 -15 11 -15 -7z"/>
<path d="M4175 4509 c-9 -14 -2 -20 14 -10 8 6 9 11 3 15 -6 3 -14 1 -17 -5z"/>
<path d="M7110 4511 c0 -6 4 -13 10 -16 6 -3 7 1 4 9 -7 18 -14 21 -14 7z"/>
<path d="M7016 4461 c-4 -5 -2 -12 3 -15 5 -4 12 -2 15 3 4 5 2 12 -3 15 -5 4
-12 2 -15 -3z"/>
<path d="M6985 4441 c-3 -5 -2 -12 3 -15 5 -3 9 1 9 9 0 17 -3 19 -12 6z"/>
<path d="M4045 4430 c3 -5 11 -10 16 -10 6 0 7 5 4 10 -3 6 -11 10 -16 10 -6
0 -7 -4 -4 -10z"/>
<path d="M6940 4404 c0 -8 5 -12 10 -9 6 4 8 11 5 16 -9 14 -15 11 -15 -7z"/>
<path d="M830 4399 c0 -5 5 -7 10 -4 6 3 10 8 10 11 0 2 -4 4 -10 4 -5 0 -10
-5 -10 -11z"/>
<path d="M3980 4401 c0 -5 5 -13 10 -16 6 -3 10 -2 10 4 0 5 -4 13 -10 16 -5
3 -10 2 -10 -4z"/>
<path d="M6906 4378 c3 -5 10 -6 15 -3 13 9 11 12 -6 12 -8 0 -12 -4 -9 -9z"/>
<path d="M756 4358 c3 -5 10 -6 15 -3 13 9 11 12 -6 12 -8 0 -12 -4 -9 -9z"/>
<path d="M3910 4360 c0 -5 5 -10 10 -10 6 0 10 5 10 10 0 6 -4 10 -10 10 -5 0
-10 -4 -10 -10z"/>
<path d="M6858 4353 c7 -3 16 -2 19 1 4 3 -2 6 -13 5 -11 0 -14 -3 -6 -6z"/>
<path d="M3880 4335 c0 -8 2 -15 4 -15 2 0 6 7 10 15 3 8 1 15 -4 15 -6 0 -10
-7 -10 -15z"/>
<path d="M6820 4341 c0 -6 4 -13 10 -16 6 -3 7 1 4 9 -7 18 -14 21 -14 7z"/>
<path d="M3573 4155 c0 -7 6 -11 14 -8 7 3 13 6 13 8 0 2 -6 5 -13 8 -8 3 -14
-1 -14 -8z"/>
<path d="M3505 4119 c-9 -14 -2 -20 14 -10 8 6 9 11 3 15 -6 3 -14 1 -17 -5z"/>
<path d="M720 4110 c0 -5 5 -10 10 -10 6 0 10 5 10 10 0 6 -4 10 -10 10 -5 0
-10 -4 -10 -10z"/>
<path d="M3473 4095 c0 -8 4 -12 9 -9 5 3 6 10 3 15 -9 13 -12 11 -12 -6z"/>
<path d="M4405 4090 c3 -5 8 -10 11 -10 2 0 4 5 4 10 0 6 -5 10 -11 10 -5 0
-7 -4 -4 -10z"/>
<path d="M3425 4081 c-6 -11 13 -26 22 -17 4 3 1 6 -6 6 -7 0 -9 5 -6 10 3 6
4 10 1 10 -3 0 -7 -4 -11 -9z"/>
<path d="M4300 4030 c0 -5 5 -10 11 -10 5 0 7 5 4 10 -3 6 -8 10 -11 10 -2 0
-4 -4 -4 -10z"/>
<path d="M775 4020 c-3 -6 1 -7 9 -4 18 7 21 14 7 14 -6 0 -13 -4 -16 -10z"/>
<path d="M4246 4012 c-3 -6 -1 -14 5 -17 15 -10 25 3 12 16 -7 7 -13 7 -17 1z"/>
<path d="M4180 3964 c0 -8 5 -12 10 -9 6 3 10 10 10 16 0 5 -4 9 -10 9 -5 0
-10 -7 -10 -16z"/>
<path d="M820 3934 c0 -8 5 -12 10 -9 6 3 10 10 10 16 0 5 -4 9 -10 9 -5 0
-10 -7 -10 -16z"/>
<path d="M6390 3941 c0 -6 4 -13 10 -16 6 -3 7 1 4 9 -7 18 -14 21 -14 7z"/>
<path d="M4116 3927 c3 -10 9 -15 12 -12 3 3 0 11 -7 18 -10 9 -11 8 -5 -6z"/>
<path d="M6320 3894 c0 -8 5 -12 10 -9 6 4 8 11 5 16 -9 14 -15 11 -15 -7z"/>
<path d="M6285 3880 c3 -5 8 -10 11 -10 2 0 4 5 4 10 0 6 -5 10 -11 10 -5 0
-7 -4 -4 -10z"/>
<path d="M3455 3871 c-6 -11 9 -23 19 -14 9 9 7 23 -3 23 -6 0 -12 -4 -16 -9z"/>
<path d="M6255 3859 c-9 -14 -2 -20 14 -10 8 6 9 11 3 15 -6 3 -14 1 -17 -5z"/>
<path d="M6312 3774 c-7 -8 -8 -14 -3 -14 10 0 25 19 20 25 -2 1 -10 -3 -17
-11z"/>
<path d="M3560 3690 c0 -5 5 -10 10 -10 6 0 10 5 10 10 0 6 -4 10 -10 10 -5 0
-10 -4 -10 -10z"/>
<path d="M3920 3666 c0 -2 7 -7 16 -10 8 -3 12 -2 9 4 -6 10 -25 14 -25 6z"/>
<path d="M6215 3609 c-10 -15 3 -25 16 -12 7 7 7 13 1 17 -6 3 -14 1 -17 -5z"/>
<path d="M3805 3590 c3 -5 8 -10 11 -10 2 0 4 5 4 10 0 6 -5 10 -11 10 -5 0
-7 -4 -4 -10z"/>
<path d="M3770 3580 c0 -6 7 -10 15 -10 8 0 15 2 15 4 0 2 -7 6 -15 10 -8 3
-15 1 -15 -4z"/>
<path d="M6265 3510 c-3 -5 -2 -10 4 -10 5 0 13 5 16 10 3 6 2 10 -4 10 -5 0
-13 -4 -16 -10z"/>
<path d="M6310 3430 c0 -5 7 -10 16 -10 8 0 12 5 9 10 -3 6 -10 10 -16 10 -5
0 -9 -4 -9 -10z"/>
<path d="M596 2944 c-28 -28 -12 -51 33 -45 15 2 21 -1 17 -8 -4 -6 -14 -11
-22 -11 -8 0 -14 -4 -14 -10 0 -16 26 -12 50 8 32 26 18 55 -24 47 -28 -5 -29
-5 -13 8 9 8 17 17 17 21 0 12 -29 6 -44 -10z"/>
<path d="M4435 2919 c-9 -14 -2 -20 14 -10 8 6 9 11 3 15 -6 3 -14 1 -17 -5z"/>
<path d="M527 2902 c-10 -10 -23 -19 -30 -19 -7 0 -25 -8 -40 -17 l-26 -18 19
-39 c11 -21 25 -39 30 -39 15 0 23 21 11 33 -13 13 -15 47 -3 47 5 0 15 -11
22 -25 8 -14 18 -24 24 -22 12 4 12 18 0 55 -9 30 9 28 26 -3 13 -25 30 -29
37 -9 4 12 -34 74 -45 74 -5 0 -16 -8 -25 -18z"/>
<path d="M4395 2899 c-4 -5 -4 -13 -1 -16 3 -4 6 0 6 8 0 11 2 11 10 -1 6 -9
10 -10 10 -3 0 17 -17 25 -25 12z"/>
<path d="M210 2891 c0 -5 6 -14 14 -20 12 -10 13 -8 9 8 -5 21 -23 30 -23 12z"/>
<path d="M4340 2871 c0 -6 4 -13 10 -16 6 -3 7 1 4 9 -7 18 -14 21 -14 7z"/>
<path d="M247 2839 c7 -7 15 -10 18 -7 3 3 -2 9 -12 12 -14 6 -15 5 -6 -5z"/>
<path d="M4310 2839 c0 -5 5 -7 10 -4 6 3 10 8 10 11 0 2 -4 4 -10 4 -5 0 -10
-5 -10 -11z"/>
<path d="M368 2814 c-16 -8 -28 -19 -28 -24 0 -14 14 -12 28 2 6 6 15 9 19 5
3 -4 -1 -13 -11 -20 -21 -16 -18 -50 5 -55 9 -2 24 4 32 13 9 8 23 15 31 15 9
0 16 3 16 8 0 7 -56 72 -62 72 -2 -1 -15 -8 -30 -16z m42 -54 c0 -5 -4 -10
-10 -10 -5 0 -10 5 -10 10 0 6 5 10 10 10 6 0 10 -4 10 -10z"/>
<path d="M275 2801 c-3 -5 -1 -12 5 -16 12 -7 30 2 30 16 0 12 -27 12 -35 0z"/>
<path d="M60 2793 c8 -3 22 -11 30 -17 13 -10 13 -9 1 7 -7 9 -21 17 -30 16
-13 0 -14 -1 -1 -6z"/>
<path d="M4195 2789 c-6 -8 -4 -10 5 -4 10 6 12 4 6 -11 -6 -15 -5 -17 5 -6 9
9 10 15 2 23 -8 8 -13 7 -18 -2z"/>
<path d="M225 2770 c-6 -10 39 -95 56 -106 11 -6 39 13 39 27 0 5 -7 9 -15 9
-8 0 -25 18 -37 40 -24 41 -32 47 -43 30z"/>
<path d="M297 2774 c-8 -8 33 -84 44 -84 19 0 19 23 -1 55 -22 35 -31 41 -43
29z"/>
<path d="M4166 2757 c3 -10 9 -15 12 -12 3 3 0 11 -7 18 -10 9 -11 8 -5 -6z"/>
<path d="M36 2735 c4 -8 11 -15 16 -15 6 0 5 6 -2 15 -7 8 -14 15 -16 15 -2 0
-1 -7 2 -15z"/>
<path d="M171 2741 c-11 -7 -8 -18 14 -56 32 -54 50 -64 73 -41 16 15 15 17
-6 23 -13 3 -31 22 -43 44 -11 22 -20 39 -22 39 -1 0 -8 -4 -16 -9z"/>
<path d="M120 2704 c0 -17 22 -14 28 4 2 7 -3 12 -12 12 -9 0 -16 -7 -16 -16z"/>
<path d="M3349 2692 c-30 -25 -20 -56 16 -50 14 3 25 1 25 -3 0 -5 -7 -9 -15
-9 -8 0 -15 -7 -15 -15 0 -9 6 -12 18 -8 28 10 42 24 42 44 0 15 -8 19 -32 20
-18 1 -25 3 -15 6 18 5 23 18 8 27 -5 3 -19 -2 -32 -12z"/>
<path d="M85 2691 c-3 -6 -2 -29 1 -52 8 -49 -10 -48 -19 1 -7 34 -27 41 -27
9 0 -17 -3 -19 -14 -10 -24 20 -30 -8 -7 -33 27 -28 27 -40 1 -26 -29 15 -27
-10 3 -38 27 -25 53 -15 44 17 -6 24 -4 25 23 9 31 -20 39 0 28 70 -10 59 -19
74 -33 53z"/>
<path d="M145 2680 c-3 -5 2 -24 11 -42 21 -42 18 -39 36 -33 14 5 13 12 -6
46 -22 40 -30 46 -41 29z"/>
<path d="M2956 2647 c3 -10 9 -15 12 -12 3 3 0 11 -7 18 -10 9 -11 8 -5 -6z"/>
<path d="M3270 2645 c-7 -8 -20 -15 -30 -15 -10 0 -20 -7 -24 -15 -3 -8 -12
-15 -21 -15 -19 0 -19 -1 2 -45 16 -33 32 -43 46 -29 3 4 -1 17 -10 31 -11 16
-13 27 -6 34 7 7 16 0 29 -20 14 -21 23 -28 33 -21 12 7 12 12 -1 32 -10 15
-13 30 -8 38 6 10 13 5 27 -18 13 -21 23 -28 32 -22 11 6 10 15 -8 44 -24 39
-41 45 -61 21z"/>
<path d="M2920 2601 c0 -6 4 -13 10 -16 6 -3 7 1 4 9 -7 18 -14 21 -14 7z"/>
<path d="M2859 2573 c-13 -16 -12 -17 4 -4 16 13 21 21 13 21 -2 0 -10 -8 -17
-17z"/>
<path d="M3440 2569 c0 -5 5 -7 10 -4 6 3 10 8 10 11 0 2 -4 4 -10 4 -5 0 -10
-5 -10 -11z"/>
<path d="M3108 2559 c-10 -5 -18 -17 -18 -24 0 -19 8 -19 27 0 8 9 17 14 20
11 3 -2 -5 -14 -16 -25 -11 -11 -18 -27 -15 -36 8 -19 53 -20 60 0 4 8 9 13
13 11 4 -3 12 -1 19 3 9 5 4 16 -14 39 -28 33 -47 38 -76 21z m52 -47 c0 -13
-12 -22 -22 -16 -10 6 -1 24 13 24 5 0 9 -4 9 -8z"/>
<path d="M3026 2551 c-3 -4 8 -34 25 -65 24 -44 34 -54 44 -46 10 9 9 18 -8
49 -12 21 -27 37 -33 34 -8 -3 -11 2 -7 16 5 21 -11 30 -21 12z"/>
<path d="M2750 2544 c0 -5 7 -18 15 -28 8 -11 15 -16 15 -10 0 5 -7 18 -15 28
-8 11 -15 16 -15 10z"/>
<path d="M2832 2518 c7 -15 15 -23 17 -17 2 6 -4 18 -13 27 -15 15 -15 15 -4
-10z"/>
<path d="M2862 2524 c9 -9 21 -15 27 -13 6 2 -2 10 -17 17 -25 11 -25 11 -10
-4z"/>
<path d="M421 2514 c0 -11 3 -14 6 -6 3 7 2 16 -1 19 -3 4 -6 -2 -5 -13z"/>
<path d="M2973 2522 c-15 -9 40 -112 60 -112 21 0 40 17 33 29 -4 6 -11 9 -16
6 -5 -3 -21 15 -35 40 -15 25 -28 45 -28 45 -1 0 -7 -4 -14 -8z"/>
<path d="M3350 2520 c0 -5 5 -10 11 -10 5 0 7 5 4 10 -3 6 -8 10 -11 10 -2 0
-4 -4 -4 -10z"/>
<path d="M3316 2502 c-3 -5 1 -9 9 -9 8 0 12 4 9 9 -3 4 -7 8 -9 8 -2 0 -6 -4
-9 -8z"/>
<path d="M2660 2490 c0 -5 5 -10 11 -10 5 0 7 5 4 10 -3 6 -8 10 -11 10 -2 0
-4 -4 -4 -10z"/>
<path d="M346 2481 c-4 -5 -2 -12 3 -15 5 -4 12 -2 15 3 4 5 2 12 -3 15 -5 4
-12 2 -15 -3z"/>
<path d="M2786 2477 c3 -10 9 -15 12 -12 3 3 0 11 -7 18 -10 9 -11 8 -5 -6z"/>
<path d="M2910 2481 c0 -5 12 -30 26 -55 20 -36 31 -46 47 -44 24 4 36 28 13
28 -9 0 -25 18 -36 40 -18 35 -50 55 -50 31z"/>
<path d="M3243 2465 c-7 -8 -9 -16 -4 -19 5 -3 12 1 15 10 8 22 4 25 -11 9z"/>
<path d="M315 2461 c-3 -5 -2 -12 3 -15 5 -3 9 1 9 9 0 17 -3 19 -12 6z"/>
<path d="M2756 2455 c4 -8 11 -15 16 -15 6 0 5 6 -2 15 -7 8 -14 15 -16 15 -2
0 -1 -7 2 -15z"/>
<path d="M2873 2462 c-7 -4 -9 -13 -5 -19 5 -8 13 -9 22 -3 10 6 11 13 5 19
-6 6 -16 7 -22 3z"/>
<path d="M2699 2442 c-11 -14 -11 -15 1 -5 9 8 19 9 32 2 10 -5 18 -7 18 -5 0
3 -9 10 -19 15 -14 8 -22 7 -32 -7z"/>
<path d="M2828 2434 c-4 -3 -2 -20 3 -37 12 -41 11 -60 -1 -52 -5 3 -12 21
-16 40 -4 24 -10 32 -20 28 -10 -4 -12 -13 -8 -27 6 -19 5 -19 -10 -7 -29 25
-40 -2 -11 -29 38 -36 30 -45 -11 -12 -22 18 -43 28 -52 24 -12 -4 -3 -16 34
-49 52 -46 81 -52 77 -15 -3 24 7 28 25 10 23 -23 35 6 27 71 -6 56 -19 74
-37 55z"/>
<path d="M2892 2431 c-10 -6 -9 -15 8 -44 12 -21 28 -37 36 -37 8 0 14 2 14 5
0 7 -39 85 -43 85 -1 0 -8 -4 -15 -9z"/>
<path d="M6119 2412 c-30 -25 -20 -56 16 -50 14 3 25 1 25 -3 0 -5 -7 -9 -15
-9 -8 0 -15 -6 -15 -14 0 -17 44 -10 61 10 18 22 3 44 -33 45 -18 1 -25 3 -15
6 9 2 17 11 17 19 0 19 -13 18 -41 -4z"/>
<path d="M3130 2390 c0 -5 5 -10 11 -10 5 0 7 5 4 10 -3 6 -8 10 -11 10 -2 0
-4 -4 -4 -10z"/>
<path d="M5723 2368 c2 -13 5 -17 35 -57 14 -19 21 -21 27 -11 5 8 4 11 -3 6
-11 -7 -46 47 -36 56 3 3 -2 8 -10 11 -9 4 -15 1 -13 -5z"/>
<path d="M6040 2365 c-7 -8 -18 -15 -25 -15 -7 0 -18 -7 -25 -15 -7 -8 -16
-13 -20 -10 -19 12 -19 -17 0 -54 14 -28 25 -39 35 -35 19 8 19 14 -1 43 -11
15 -13 26 -7 32 7 7 17 0 29 -20 13 -20 24 -27 32 -22 10 6 11 13 1 34 -16 35
-2 49 18 20 15 -23 43 -31 43 -14 0 5 -8 23 -17 40 -20 34 -43 40 -63 16z"/>
<path d="M3036 2338 c3 -5 10 -6 15 -3 13 9 11 12 -6 12 -8 0 -12 -4 -9 -9z"/>
<path d="M3005 2331 c-3 -5 -2 -12 3 -15 5 -3 9 1 9 9 0 17 -3 19 -12 6z"/>
<path d="M5695 2330 c-3 -5 1 -22 10 -37 9 -16 13 -19 9 -8 -4 11 -7 28 -8 38
0 20 -2 21 -11 7z"/>
<path d="M75 2310 c3 -5 8 -10 11 -10 2 0 4 5 4 10 0 6 -5 10 -11 10 -5 0 -7
-4 -4 -10z"/>
<path d="M5640 2306 c0 -2 9 -6 20 -9 11 -3 18 -1 14 4 -5 9 -34 13 -34 5z"/>
<path d="M6212 2301 c2 -7 7 -12 11 -12 12 1 9 15 -3 20 -7 2 -11 -2 -8 -8z"/>
<path d="M40 2290 c0 -5 5 -10 11 -10 5 0 7 5 4 10 -3 6 -8 10 -11 10 -2 0 -4
-4 -4 -10z"/>
<path d="M2960 2289 c0 -5 5 -7 10 -4 6 3 10 8 10 11 0 2 -4 4 -10 4 -5 0 -10
-5 -10 -11z"/>
<path d="M6 2277 c3 -10 9 -15 12 -12 3 3 0 11 -7 18 -10 9 -11 8 -5 -6z"/>
<path d="M5878 2276 c-19 -14 -24 -36 -9 -36 6 0 13 5 16 10 3 6 11 10 17 10
7 0 2 -9 -10 -20 -26 -24 -27 -33 -8 -49 16 -13 56 1 56 19 0 5 6 7 14 4 26
-10 26 13 -1 44 -28 34 -48 39 -75 18z m52 -44 c0 -13 -12 -22 -22 -16 -10 6
-1 24 13 24 5 0 9 -4 9 -8z"/>
<path d="M6180 2281 c0 -6 4 -13 10 -16 6 -3 7 1 4 9 -7 18 -14 21 -14 7z"/>
<path d="M5797 2273 c-13 -13 -7 -32 8 -27 8 4 15 12 15 20 0 15 -12 19 -23 7z"/>
<path d="M5525 2243 c8 -18 18 -33 20 -33 10 0 4 16 -16 40 l-20 25 16 -32z"/>
<path d="M5620 2250 c6 -11 15 -20 20 -20 6 0 2 9 -7 20 -10 11 -19 20 -21 20
-1 0 2 -9 8 -20z"/>
<path d="M5596 2247 c3 -10 9 -15 12 -12 3 3 0 11 -7 18 -10 9 -11 8 -5 -6z"/>
<path d="M2870 2239 c0 -5 5 -7 10 -4 6 3 10 8 10 11 0 2 -4 4 -10 4 -5 0 -10
-5 -10 -11z"/>
<path d="M5495 2220 c9 -16 18 -30 21 -30 2 0 -2 14 -11 30 -9 17 -18 30 -21
30 -2 0 2 -13 11 -30z"/>
<path d="M5741 2241 c-11 -7 -8 -19 15 -60 33 -58 45 -65 71 -45 17 13 17 14
-4 20 -13 3 -23 9 -23 13 0 3 -10 23 -23 43 -16 27 -26 35 -36 29z"/>
<path d="M6120 2235 c0 -9 6 -12 15 -9 8 4 15 7 15 9 0 2 -7 5 -15 9 -9 3 -15
0 -15 -9z"/>
<path d="M5810 2231 c0 -23 42 -80 55 -74 12 4 11 12 -5 44 -18 35 -50 54 -50
30z"/>
<path d="M5599 2203 c-13 -16 -12 -17 4 -4 16 13 21 21 13 21 -2 0 -10 -8 -17
-17z"/>
<path d="M5443 2194 c15 -8 27 -18 27 -23 0 -5 9 -11 20 -14 11 -3 20 -4 20
-2 0 6 -77 55 -86 55 -5 -1 3 -8 19 -16z"/>
<path d="M5677 2204 c-7 -8 48 -107 63 -112 12 -4 40 16 40 28 0 4 -9 10 -20
13 -10 3 -27 21 -37 41 -16 34 -32 44 -46 30z"/>
<path d="M5640 2180 c-10 -6 -11 -13 -5 -19 13 -13 36 1 27 16 -5 8 -13 9 -22
3z"/>
<path d="M6015 2180 c-3 -5 1 -10 9 -10 9 0 16 5 16 10 0 6 -4 10 -9 10 -6 0
-13 -4 -16 -10z"/>
<path d="M5527 2169 c7 -7 15 -10 18 -7 3 3 -2 9 -12 12 -14 6 -15 5 -6 -5z"/>
<path d="M5431 2131 c0 -16 3 -20 6 -11 3 8 10 20 14 26 5 7 3 11 -6 11 -10 0
-15 -10 -14 -26z"/>
<path d="M5597 2153 c-4 -3 -4 -24 0 -46 4 -29 3 -38 -5 -33 -7 4 -12 18 -12
32 0 15 -6 24 -15 24 -9 0 -15 -9 -15 -21 0 -16 -3 -19 -13 -11 -7 6 -18 7
-25 3 -9 -5 -5 -14 13 -31 36 -34 31 -47 -6 -16 -30 25 -50 32 -62 20 -8 -9
102 -96 113 -89 6 3 10 18 10 33 0 20 3 23 12 14 7 -7 21 -12 31 -12 17 0 18
5 12 53 -10 83 -18 100 -38 80z"/>
<path d="M2950 2141 c0 -5 5 -13 10 -16 6 -3 10 -2 10 4 0 5 -4 13 -10 16 -5
3 -10 2 -10 -4z"/>
<path d="M5650 2141 c0 -24 42 -80 56 -74 18 7 18 5 -7 47 -19 33 -49 49 -49
27z"/>
<path d="M2920 2110 c0 -5 5 -10 11 -10 5 0 7 5 4 10 -3 6 -8 10 -11 10 -2 0
-4 -4 -4 -10z"/>
<path d="M2880 2101 c0 -6 4 -13 10 -16 6 -3 7 1 4 9 -7 18 -14 21 -14 7z"/>
<path d="M2851 2081 c-8 -6 -9 -11 -3 -15 6 -3 14 -1 17 5 9 14 2 20 -14 10z"/>
<path d="M2810 2061 c0 -6 4 -13 10 -16 6 -3 7 1 4 9 -7 18 -14 21 -14 7z"/>
<path d="M5808 2063 c6 -2 9 -10 6 -15 -4 -7 -2 -8 5 -4 13 9 5 26 -12 25 -9
0 -8 -2 1 -6z"/>
<path d="M2780 2040 c0 -5 5 -10 10 -10 6 0 10 5 10 10 0 6 -4 10 -10 10 -5 0
-10 -4 -10 -10z"/>
<path d="M5775 2040 c-3 -5 -1 -10 4 -10 6 0 11 5 11 10 0 6 -2 10 -4 10 -3 0
-8 -4 -11 -10z"/>
<path d="M6034 2032 c3 -5 0 -13 -6 -15 -9 -4 -10 -6 -1 -6 17 -1 25 16 12 25
-7 4 -9 3 -5 -4z"/>
<path d="M2746 2017 c3 -10 9 -15 12 -12 3 3 0 11 -7 18 -10 9 -11 8 -5 -6z"/>
<path d="M5990 2000 c0 -5 5 -10 10 -10 6 0 10 5 10 10 0 6 -4 10 -10 10 -5 0
-10 -4 -10 -10z"/>
<path d="M430 1975 c0 -8 4 -15 10 -15 5 0 7 7 4 15 -4 8 -8 15 -10 15 -2 0
-4 -7 -4 -15z"/>
<path d="M2650 1964 c0 -8 5 -12 10 -9 6 4 8 11 5 16 -9 14 -15 11 -15 -7z"/>
<path d="M5630 1958 c0 -4 7 -8 15 -8 8 0 15 4 15 8 0 5 -7 9 -15 9 -8 0 -15
-4 -15 -9z"/>
<path d="M5875 1940 c3 -5 8 -10 11 -10 2 0 4 5 4 10 0 6 -5 10 -11 10 -5 0
-7 -4 -4 -10z"/>
<path d="M355 1930 c4 -6 11 -8 16 -5 14 9 11 15 -7 15 -8 0 -12 -5 -9 -10z"/>
<path d="M5575 1920 c3 -5 8 -10 11 -10 2 0 4 5 4 10 0 6 -5 10 -11 10 -5 0
-7 -4 -4 -10z"/>
<path d="M5845 1920 c-3 -6 1 -7 9 -4 18 7 21 14 7 14 -6 0 -13 -4 -16 -10z"/>
<path d="M5815 1900 c-3 -5 -1 -10 4 -10 6 0 11 5 11 10 0 6 -2 10 -4 10 -3 0
-8 -4 -11 -10z"/>
<path d="M270 1880 c0 -5 5 -10 10 -10 6 0 10 5 10 10 0 6 -4 10 -10 10 -5 0
-10 -4 -10 -10z"/>
<path d="M240 1865 c0 -8 4 -15 10 -15 5 0 7 7 4 15 -4 8 -8 15 -10 15 -2 0
-4 -7 -4 -15z"/>
<path d="M205 1851 c-3 -5 -2 -12 3 -15 5 -3 9 1 9 9 0 17 -3 19 -12 6z"/>
<path d="M5705 1840 c3 -5 11 -10 16 -10 6 0 7 5 4 10 -3 6 -11 10 -16 10 -6
0 -7 -4 -4 -10z"/>
<path d="M175 1831 c-3 -5 -2 -12 3 -15 5 -3 9 1 9 9 0 17 -3 19 -12 6z"/>
<path d="M2410 1831 c0 -6 4 -13 10 -16 6 -3 7 1 4 9 -7 18 -14 21 -14 7z"/>
<path d="M140 1811 c0 -6 4 -13 10 -16 6 -3 7 1 4 9 -7 18 -14 21 -14 7z"/>
<path d="M5630 1798 c0 -4 7 -8 15 -8 8 0 15 4 15 8 0 5 -7 9 -15 9 -8 0 -15
-4 -15 -9z"/>
<path d="M2340 1784 c0 -8 5 -12 10 -9 6 4 8 11 5 16 -9 14 -15 11 -15 -7z"/>
<path d="M5600 1780 c0 -5 5 -10 11 -10 5 0 7 5 4 10 -3 6 -8 10 -11 10 -2 0
-4 -4 -4 -10z"/>
<path d="M2305 1770 c3 -5 8 -10 11 -10 2 0 4 5 4 10 0 6 -5 10 -11 10 -5 0
-7 -4 -4 -10z"/>
<path d="M2271 1751 c-7 -5 -9 -11 -4 -14 5 -3 15 -2 22 2 7 5 9 11 4 14 -5 3
-15 2 -22 -2z"/>
<path d="M5546 1745 c4 -8 10 -12 15 -9 11 6 2 24 -11 24 -5 0 -7 -7 -4 -15z"/>
<path d="M5510 1731 c0 -5 5 -13 10 -16 6 -3 10 -2 10 4 0 5 -4 13 -10 16 -5
3 -10 2 -10 -4z"/>
<path d="M5480 1709 c0 -5 5 -7 10 -4 6 3 10 8 10 11 0 2 -4 4 -10 4 -5 0 -10
-5 -10 -11z"/>
<path d="M5445 1690 c3 -5 11 -10 16 -10 6 0 7 5 4 10 -3 6 -11 10 -16 10 -6
0 -7 -4 -4 -10z"/>
<path d="M5410 1675 c0 -8 4 -15 10 -15 5 0 7 7 4 15 -4 8 -8 15 -10 15 -2 0
-4 -7 -4 -15z"/>
<path d="M2332 1664 c-7 -8 -8 -14 -3 -14 10 0 25 19 20 25 -2 1 -10 -3 -17
-11z"/>
<path d="M2235 1499 c-9 -14 -2 -20 14 -10 8 6 9 11 3 15 -6 3 -14 1 -17 -5z"/>
<path d="M5100 1490 c0 -5 5 -10 10 -10 6 0 10 5 10 10 0 6 -4 10 -10 10 -5 0
-10 -4 -10 -10z"/>
<path d="M5065 1470 c3 -5 8 -10 11 -10 2 0 4 5 4 10 0 6 -5 10 -11 10 -5 0
-7 -4 -4 -10z"/>
<path d="M5020 1448 c0 -4 7 -8 15 -8 8 0 15 4 15 8 0 5 -7 9 -15 9 -8 0 -15
-4 -15 -9z"/>
<path d="M4950 1411 c0 -6 4 -13 10 -16 6 -3 7 1 4 9 -7 18 -14 21 -14 7z"/>
<path d="M2285 1400 c-3 -5 -1 -10 4 -10 6 0 11 5 11 10 0 6 -2 10 -4 10 -3 0
-8 -4 -11 -10z"/>
<path d="M2330 1315 c0 -9 6 -12 15 -9 8 4 12 10 9 15 -8 14 -24 10 -24 -6z"/>
<path d="M4985 1201 c-6 -11 9 -23 19 -14 9 9 7 23 -3 23 -6 0 -12 -4 -16 -9z"/>
<path d="M5470 1029 c0 -5 5 -7 10 -4 6 3 10 8 10 11 0 2 -4 4 -10 4 -5 0 -10
-5 -10 -11z"/>
<path d="M5090 1014 c0 -8 5 -12 10 -9 6 3 10 10 10 16 0 5 -4 9 -10 9 -5 0
-10 -7 -10 -16z"/>
<path d="M5373 985 c-3 -9 -3 -19 1 -22 3 -4 6 -1 6 6 0 7 4 9 10 6 6 -3 7 1
4 9 -8 20 -13 20 -21 1z"/>
<path d="M5476 975 c4 -8 10 -12 15 -9 11 6 2 24 -11 24 -5 0 -7 -7 -4 -15z"/>
<path d="M5260 921 c0 -6 4 -13 10 -16 6 -3 7 1 4 9 -7 18 -14 21 -14 7z"/>
<path d="M5355 910 c3 -5 8 -10 11 -10 2 0 4 5 4 10 0 6 -5 10 -11 10 -5 0 -7
-4 -4 -10z"/>
<path d="M5327 889 c7 -7 15 -10 18 -7 3 3 -2 9 -12 12 -14 6 -15 5 -6 -5z"/>
<path d="M415 781 c-3 -5 -2 -12 3 -15 5 -3 9 1 9 9 0 17 -3 19 -12 6z"/>
<path d="M330 724 c0 -8 5 -12 10 -9 6 4 8 11 5 16 -9 14 -15 11 -15 -7z"/>
<path d="M6600 331 c0 -6 4 -13 10 -16 6 -3 7 1 4 9 -7 18 -14 21 -14 7z"/>
<path d="M6565 311 c-3 -5 -1 -12 5 -16 5 -3 10 1 10 9 0 18 -6 21 -15 7z"/>
<path d="M2129 289 c-17 -17 -18 -23 -8 -35 8 -10 21 -13 37 -9 15 4 21 2 17
-5 -3 -5 -13 -10 -21 -10 -8 0 -14 -4 -14 -10 0 -5 7 -10 16 -10 27 0 54 20
54 40 0 16 -7 20 -37 21 -34 0 -35 1 -15 10 13 5 20 13 17 19 -9 15 -23 12
-46 -11z"/>
<path d="M6530 285 c0 -8 4 -15 10 -15 5 0 7 7 4 15 -4 8 -8 15 -10 15 -2 0
-4 -7 -4 -15z"/>
<path d="M6490 260 c0 -5 7 -7 15 -4 8 4 15 8 15 10 0 2 -7 4 -15 4 -8 0 -15
-4 -15 -10z"/>
<path d="M1746 247 c3 -10 9 -15 12 -12 3 3 0 11 -7 18 -10 9 -11 8 -5 -6z"/>
<path d="M2054 245 c-4 -8 -12 -15 -19 -15 -7 0 -27 -8 -43 -17 l-30 -17 19
-38 c11 -21 26 -38 34 -38 17 0 20 26 5 35 -12 7 -13 45 -2 45 5 0 15 -11 22
-25 7 -14 19 -25 27 -25 16 0 17 14 1 40 -10 15 -10 22 -1 31 9 9 15 6 24 -14
12 -26 29 -34 42 -21 3 3 -4 21 -15 40 -21 36 -54 46 -64 19z"/>
<path d="M5880 250 c0 -5 5 -10 11 -10 5 0 7 5 4 10 -3 6 -8 10 -11 10 -2 0
-4 -4 -4 -10z"/>
<path d="M6460 245 c0 -8 4 -15 10 -15 5 0 7 7 4 15 -4 8 -8 15 -10 15 -2 0
-4 -7 -4 -15z"/>
<path d="M5843 225 c0 -8 4 -12 9 -9 4 3 8 9 8 15 0 5 -4 9 -8 9 -5 0 -9 -7
-9 -15z"/>
<path d="M6426 231 c-4 -5 -2 -12 3 -15 5 -4 12 -2 15 3 4 5 2 12 -3 15 -5 4
-12 2 -15 -3z"/>
<path d="M1770 200 c6 -11 13 -20 16 -20 2 0 0 9 -6 20 -6 11 -13 20 -16 20
-2 0 0 -9 6 -20z"/>
<path d="M5805 210 c3 -5 8 -10 11 -10 2 0 4 5 4 10 0 6 -5 10 -11 10 -5 0 -7
-4 -4 -10z"/>
<path d="M6390 211 c0 -6 4 -13 10 -16 6 -3 7 1 4 9 -7 18 -14 21 -14 7z"/>
<path d="M1726 167 c3 -10 9 -15 12 -12 3 3 0 11 -7 18 -10 9 -11 8 -5 -6z"/>
<path d="M5740 165 c0 -8 4 -15 10 -15 5 0 7 7 4 15 -4 8 -8 15 -10 15 -2 0
-4 -7 -4 -15z"/>
<path d="M6326 165 c4 -8 10 -15 15 -15 4 0 6 7 3 15 -4 8 -10 15 -15 15 -4 0
-6 -7 -3 -15z"/>
<path d="M1887 152 c-22 -24 -9 -37 15 -15 10 9 21 13 24 10 4 -4 -4 -15 -16
-25 -15 -12 -21 -25 -17 -35 8 -21 46 -22 54 -1 3 8 12 13 19 10 24 -9 25 13
3 44 -26 34 -58 39 -82 12z m53 -42 c0 -5 -4 -10 -10 -10 -5 0 -10 5 -10 10 0
6 5 10 10 10 6 0 10 -4 10 -10z"/>
<path d="M1811 151 c-9 -6 -10 -11 -2 -15 13 -8 31 1 31 15 0 11 -11 11 -29 0z"/>
<path d="M6290 150 c0 -5 7 -10 16 -10 8 0 12 5 9 10 -3 6 -10 10 -16 10 -5 0
-9 -4 -9 -10z"/>
<path d="M1597 140 c12 -5 26 -17 32 -27 6 -10 11 -13 11 -7 0 15 -34 44 -51
43 -8 0 -4 -4 8 -9z"/>
<path d="M1640 136 c0 -2 8 -10 18 -17 15 -13 16 -12 3 4 -13 16 -21 21 -21
13z"/>
<path d="M1755 120 c-8 -13 41 -99 61 -107 8 -3 23 2 33 11 10 9 23 16 29 16
18 0 15 18 -9 56 -13 21 -25 31 -35 27 -12 -4 -11 -11 6 -40 24 -41 24 -40 4
-40 -9 0 -28 20 -43 44 -27 44 -35 50 -46 33z"/>
<path d="M2135 120 c3 -5 8 -10 11 -10 2 0 4 5 4 10 0 6 -5 10 -11 10 -5 0 -7
-4 -4 -10z"/>
<path d="M1565 89 c9 -17 18 -29 21 -27 6 6 -20 58 -29 58 -4 0 0 -14 8 -31z"/>
<path d="M2096 98 c3 -5 10 -6 15 -3 13 9 11 12 -6 12 -8 0 -12 -4 -9 -9z"/>
<path d="M1450 91 c0 -5 7 -12 16 -15 14 -5 15 -4 4 9 -14 17 -20 19 -20 6z"/>
<path d="M1703 89 c-7 -7 -4 -22 11 -50 18 -33 26 -39 54 -39 20 0 31 4 27 10
-4 6 -10 8 -15 5 -5 -3 -21 15 -35 40 -30 51 -27 49 -42 34z"/>
<path d="M4856 77 c-27 -20 -16 -52 17 -50 30 2 37 -13 10 -20 -10 -3 -4 -5
13 -6 20 -1 34 5 38 14 8 21 -20 44 -46 38 -20 -4 -21 -3 -5 7 9 6 17 15 17
20 0 14 -23 12 -44 -3z"/>
<path d="M1540 60 c6 -11 15 -20 20 -20 6 0 2 9 -7 20 -10 11 -19 20 -21 20
-1 0 2 -9 8 -20z"/>
<path d="M2040 71 c0 -7 -4 -9 -10 -6 -5 3 -10 1 -10 -4 0 -6 4 -11 9 -11 13
0 25 20 17 27 -3 4 -6 1 -6 -6z"/>
<path d="M1493 63 c4 -7 -5 -16 -20 -21 -16 -6 -21 -11 -13 -11 8 0 22 3 30 9
9 5 19 5 27 -2 8 -6 15 -9 17 -7 2 2 -8 13 -22 23 -14 11 -22 15 -19 9z"/>
<path d="M1655 61 c-7 -12 12 -24 25 -16 11 7 4 25 -10 25 -5 0 -11 -4 -15 -9z"/>
<path d="M1622 38 c-18 -18 -14 -38 8 -38 21 0 23 4 12 33 -6 14 -10 15 -20 5z"/>
<path d="M1675 30 c-8 -14 3 -30 21 -30 16 0 16 2 8 24 -7 18 -20 21 -29 6z"/>
<path d="M4470 20 c13 -23 20 -26 20 -6 0 8 -7 16 -15 20 -13 4 -14 2 -5 -14z"/>
<path d="M4780 30 c0 -6 -10 -15 -22 -19 -18 -7 -11 -9 30 -9 53 0 61 5 40 26
-15 15 -48 16 -48 2z"/>
<path d="M1575 10 c-3 -5 1 -10 9 -10 9 0 16 5 16 10 0 6 -4 10 -9 10 -6 0
-13 -4 -16 -10z"/>
</g>
</svg>
