<?xml version="1.0" encoding="UTF-8"?>
<svg version="1.1" xmlns="http://www.w3.org/2000/svg" width="982" height="280">
<path d="M0 0 C324.06 0 648.12 0 982 0 C982 92.4 982 184.8 982 280 C657.94 280 333.88 280 0 280 C0 187.6 0 95.2 0 0 Z " fill="#FBFBFB" transform="translate(0,0)"/>
<path d="M0 0 C324.06 0 648.12 0 982 0 C982 92.4 982 184.8 982 280 C941.41 280 900.82 280 859 280 C858.95101562 265.58570313 858.90203125 251.17140625 858.8515625 236.3203125 C858.81619729 227.21483758 858.78033144 218.10936925 858.7421875 209.00390625 C858.68167345 194.53598497 858.62326446 180.06807616 858.578125 165.60009766 C858.5452464 155.06495048 858.5054383 144.52985654 858.45720994 133.99476802 C858.43190373 128.41339579 858.41013474 122.83205906 858.39665604 117.25064468 C858.38387295 112.00253508 858.36185955 106.75454698 858.33261681 101.50650406 C858.32351154 99.57551381 858.31784398 97.64450397 858.31578636 95.71349335 C858.31248454 93.08661662 858.29706425 90.46008877 858.2784729 87.83328247 C858.28040763 87.06091849 858.28234237 86.28855452 858.28433573 85.49278557 C858.38116144 81.28804622 858.38116144 81.28804622 856 78 C853.69316709 77.69692331 853.69316709 77.69692331 850.97053051 77.74930167 C849.36056346 77.74179112 849.36056346 77.74179112 847.71807182 77.73412883 C846.52705584 77.73881117 845.33603987 77.7434935 844.1089325 77.74831772 C842.84769723 77.74541084 841.58646197 77.74250396 840.28700745 77.73950899 C836.75904224 77.73166784 833.23118541 77.73640835 829.70322181 77.74306489 C825.87537424 77.74811099 822.04754406 77.74162937 818.21969891 77.73657823 C811.50193848 77.72933215 804.78421015 77.72958785 798.06644821 77.73467255 C788.0771857 77.74221304 778.08795046 77.73838282 768.09868816 77.73225593 C750.26166929 77.72170359 732.42466472 77.72264551 714.58764449 77.72841376 C698.97854328 77.73343698 683.36944731 77.73476196 667.76034546 77.73236847 C666.72655849 77.7322157 665.69277152 77.73206293 664.62765767 77.73190553 C660.43160009 77.73128289 656.23554251 77.7306461 652.03948493 77.729986 C612.64520475 77.72386251 573.2509337 77.72942361 533.85665493 77.7401798 C498.82663225 77.74967161 463.79662411 77.74882238 428.76660156 77.73925781 C389.44620573 77.72855779 350.12581796 77.72429672 310.80542088 77.73048234 C306.6168321 77.73112381 302.42824332 77.73174949 298.23965454 77.73236847 C296.69255092 77.7326057 296.69255092 77.7326057 295.11419269 77.73284773 C279.51162226 77.7351265 263.90905766 77.73245502 248.30648804 77.72740936 C230.57275651 77.72170325 212.83904156 77.72309392 195.10531211 77.73397085 C185.16988777 77.73986303 175.2344993 77.74019866 165.29907587 77.7326785 C158.67391639 77.72821524 152.04878585 77.73094562 145.42363069 77.73968804 C141.64129863 77.7444747 137.85903816 77.74601256 134.0767082 77.73887607 C130.01476733 77.73128966 125.95300453 77.73895581 121.8910675 77.74831772 C120.10454354 77.74129422 120.10454354 77.74129422 118.28192818 77.73412883 C117.20861681 77.73913587 116.13530545 77.74414291 115.02946949 77.74930167 C114.09933657 77.74943719 113.16920364 77.74957271 112.21088487 77.74971233 C109.79380705 77.790808 109.79380705 77.790808 108 80 C107.79456796 82.6449489 107.71489694 85.18646283 107.7215271 87.83328247 C107.7157347 88.65170179 107.7099423 89.47012111 107.70397437 90.31334102 C107.68689332 93.07107521 107.68409094 95.82864287 107.68115234 98.58642578 C107.67185975 100.55714329 107.66169209 102.52785685 107.65071106 104.49856567 C107.62332156 109.86190413 107.60823522 115.22521621 107.59528303 120.58860636 C107.57969152 126.18873034 107.55288871 131.78880011 107.5272522 137.3888855 C107.48039372 147.99942237 107.4436839 158.60996937 107.41057932 169.22055709 C107.36527544 183.55442308 107.30437751 197.88822215 107.24433136 212.22203255 C107.15010094 234.81465488 107.07677721 257.40729601 107 280 C71.69 280 36.38 280 0 280 C0 187.6 0 95.2 0 0 Z " fill="#FEFEFE" transform="translate(0,0)"/>
<path d="M0 0 C324.06 0 648.12 0 982 0 C982 92.4 982 184.8 982 280 C977.05 280 972.1 280 967 280 C967 192.55 967 105.1 967 15 C647.89 15 328.78 15 0 15 C0 10.05 0 5.1 0 0 Z " fill="#F0F4F8" transform="translate(0,0)"/>
<path d="M0 0 C1.06670032 -0.00935994 1.06670032 -0.00935994 2.15495014 -0.01890898 C4.53812618 -0.03486548 6.92028315 -0.0222252 9.3034668 -0.00964355 C11.01183672 -0.01506352 12.72020197 -0.02218548 14.42855835 -0.03088379 C19.06905428 -0.04913505 23.70919489 -0.04204222 28.34969711 -0.02936745 C33.20319332 -0.0192491 38.05665886 -0.02862988 42.91015625 -0.03491211 C51.06117217 -0.04219191 59.21204318 -0.03259207 67.36303711 -0.0135498 C76.79030502 0.00821958 86.21722691 0.00116844 95.64448643 -0.02085543 C103.73461401 -0.03899994 111.82463735 -0.0415724 119.91477871 -0.03110075 C124.74838878 -0.02486059 129.58183614 -0.02404451 134.41543579 -0.0372467 C138.95948124 -0.04879079 143.50308005 -0.040806 148.04707718 -0.01766968 C149.71600223 -0.01237485 151.38496478 -0.01390958 153.05387497 -0.02272034 C155.32988327 -0.03362949 157.60445471 -0.01997042 159.88037109 0 C161.15462448 0.0015081 162.42887787 0.0030162 163.741745 0.00457001 C166.94018555 0.50793457 166.94018555 0.50793457 169.34907532 2.32019806 C171.63728927 5.46643465 171.51412454 8.44942199 171.47143555 12.19543457 C171.47526245 12.93495361 171.47908936 13.67447266 171.48303223 14.43640137 C171.48574826 15.99639247 171.47840847 17.55642935 171.46166992 19.11633301 C171.44025228 21.50050643 171.46147818 23.88166706 171.48706055 26.26574707 C171.48441721 27.78398287 171.4792921 29.3022168 171.47143555 30.82043457 C171.47953247 31.53094971 171.48762939 32.24146484 171.49597168 32.97351074 C171.43638337 36.12807413 171.22580348 38.1152171 169.34907532 40.69567108 C166.07644075 43.15774976 163.9561826 43.01104534 159.88037109 43.01586914 C159.16923755 43.0221091 158.458104 43.02834907 157.72542095 43.03477812 C155.34224491 43.05073462 152.96008794 43.03809434 150.5769043 43.0255127 C148.86853437 43.03093267 147.16016912 43.03805462 145.45181274 43.04675293 C140.81131682 43.06500419 136.1711762 43.05791136 131.53067398 43.04523659 C126.67717777 43.03511824 121.82371223 43.04449902 116.97021484 43.05078125 C108.81919892 43.05806106 100.66832791 43.04846122 92.51733398 43.02941895 C83.09006608 43.00764956 73.66314419 43.0147007 64.23588467 43.03672457 C56.14575708 43.05486908 48.05573374 43.05744154 39.96559238 43.04696989 C35.13198232 43.04072973 30.29853495 43.03991365 25.4649353 43.05311584 C20.92088985 43.06465993 16.37729105 43.05667514 11.83329391 43.03353882 C10.16436887 43.02824399 8.49540631 43.02977873 6.82649612 43.03858948 C4.55048783 43.04949863 2.27591638 43.03583956 0 43.01586914 C-1.27425339 43.01436104 -2.54850677 43.01285294 -3.8613739 43.01129913 C-7.05981445 42.50793457 -7.05981445 42.50793457 -9.46870422 40.69567108 C-11.75691818 37.54943449 -11.63375345 34.56644715 -11.59106445 30.82043457 C-11.59489136 30.08091553 -11.59871826 29.34139648 -11.60266113 28.57946777 C-11.60537717 27.01947667 -11.59803737 25.45943979 -11.58129883 23.89953613 C-11.55988118 21.51536271 -11.58110708 19.13420208 -11.60668945 16.75012207 C-11.60404612 15.23188627 -11.59892101 13.71365234 -11.59106445 12.19543457 C-11.59916138 11.48491943 -11.6072583 10.7744043 -11.61560059 10.0423584 C-11.55601227 6.88779502 -11.34543239 4.90065204 -9.46870422 2.32019806 C-6.19606966 -0.14188062 -4.07581151 0.0048238 0 0 Z " fill="#FDFDFE" transform="translate(128.059814453125,23.4920654296875)"/>
<path d="M0 0 C0.73069688 -0.00467997 1.46139377 -0.00935994 2.21423298 -0.01418173 C4.66945877 -0.02617419 7.12413076 -0.01665817 9.57936096 -0.00723267 C11.33684109 -0.01129653 13.09431867 -0.01663736 14.85179138 -0.02316284 C19.63071897 -0.03686537 24.40945274 -0.03152544 29.18838382 -0.02202559 C34.18468682 -0.01444298 39.18097297 -0.02147081 44.17727661 -0.02618408 C52.56963589 -0.03164623 60.96191604 -0.02443852 69.35426331 -0.01016235 C79.06149912 0.00615972 88.76854587 0.00088071 98.47577709 -0.01564157 C106.8036608 -0.02924971 115.13148754 -0.03117923 123.45937878 -0.02332556 C128.43605941 -0.01864467 133.41265115 -0.01803553 138.3893261 -0.02793503 C143.06871145 -0.03659244 147.7478528 -0.03060521 152.42721176 -0.01325226 C154.14612866 -0.00928063 155.86506605 -0.01043299 157.58397484 -0.01704025 C159.92768103 -0.02521944 162.27060187 -0.01497868 164.61425781 0 C165.92668174 0.00113108 167.23910566 0.00226215 168.59130001 0.00342751 C172.05599532 0.4022917 173.50061294 0.85480501 175.87062073 3.38095093 C176.27746885 5.97998116 176.43220516 8.15277231 176.40187073 10.75204468 C176.40569763 11.47078262 176.40952454 12.18952057 176.41346741 12.93003845 C176.41618709 14.44892783 176.40882171 15.967864 176.3921051 17.48666382 C176.37072336 19.80731177 176.39188422 22.12485339 176.41749573 24.44540405 C176.41485184 25.92262441 176.4097256 27.39984284 176.40187073 28.87704468 C176.40996765 29.56882309 176.41806458 30.2606015 176.42640686 30.9733429 C176.36616785 34.08212338 176.13276587 36.0184914 174.29179478 38.56394196 C170.96596421 41.05986495 168.75233726 40.88413044 164.61425781 40.8888855 C163.88200094 40.89512546 163.14974406 40.90136542 162.39529759 40.90779448 C159.94069987 40.92375435 157.48709111 40.91110929 155.03248596 40.89852905 C153.27323324 40.90394882 151.51398505 40.91107066 149.75474548 40.91976929 C144.97589474 40.93802159 140.19738899 40.93092762 135.41853213 40.91825294 C130.42176291 40.90813675 125.42502353 40.91751463 120.42825317 40.92379761 C112.03765042 40.93107736 103.64718844 40.92147699 95.25660706 40.9024353 C85.54871231 40.88065886 75.84115349 40.88772223 66.13326687 40.90974092 C57.80451656 40.92787712 49.47586752 40.93046219 41.14710385 40.91998625 C36.16988654 40.91374242 31.19282727 40.9129402 26.21562004 40.9261322 C21.53779578 40.93766446 16.86040584 40.92971325 12.18262863 40.90655518 C10.46329407 40.9012543 8.74392311 40.90280532 7.02460289 40.91160583 C4.68257075 40.92249096 2.34194199 40.90888508 0 40.8888855 C-1.3120469 40.8873774 -2.6240938 40.88586929 -3.9758997 40.88431549 C-7.12937927 40.38095093 -7.12937927 40.38095093 -9.050704 38.56394196 C-10.6185112 35.39106023 -10.55821319 32.3396912 -10.52781677 28.87704468 C-10.53068695 28.15735001 -10.53355713 27.43765533 -10.53651428 26.69615173 C-10.53855073 25.17904877 -10.53305013 23.6619193 -10.52049255 22.14486694 C-10.50440784 19.8225752 -10.52036581 17.50201743 -10.53953552 15.17977905 C-10.53755347 13.70386376 -10.53371059 12.22794954 -10.52781677 10.75204468 C-10.53388947 10.05824203 -10.53996216 9.36443939 -10.54621887 8.64961243 C-10.47720223 3.92358921 -10.47720223 3.92358921 -9.050704 1.69811058 C-6.09490687 -0.3282292 -3.55284812 0.00306281 0 0 Z " fill="#4B17EE" transform="translate(316.12937927246094,24.619049072265625)"/>
<path d="M0 0 C4.29 0 8.58 0 13 0 C13 92.4 13 184.8 13 280 C8.71 280 4.42 280 0 280 C0 187.6 0 95.2 0 0 Z " fill="#C8C8C8" transform="translate(969,0)"/>
<path d="M0 0 C1.06670032 -0.00935994 1.06670032 -0.00935994 2.15495014 -0.01890898 C4.53812618 -0.03486548 6.92028315 -0.0222252 9.3034668 -0.00964355 C11.01183672 -0.01506352 12.72020197 -0.02218548 14.42855835 -0.03088379 C19.06905428 -0.04913505 23.70919489 -0.04204222 28.34969711 -0.02936745 C33.20319332 -0.0192491 38.05665886 -0.02862988 42.91015625 -0.03491211 C51.06117217 -0.04219191 59.21204318 -0.03259207 67.36303711 -0.0135498 C76.79030502 0.00821958 86.21722691 0.00116844 95.64448643 -0.02085543 C103.73461401 -0.03899994 111.82463735 -0.0415724 119.91477871 -0.03110075 C124.74838878 -0.02486059 129.58183614 -0.02404451 134.41543579 -0.0372467 C138.95948124 -0.04879079 143.50308005 -0.040806 148.04707718 -0.01766968 C149.71600223 -0.01237485 151.38496478 -0.01390958 153.05387497 -0.02272034 C155.32988327 -0.03362949 157.60445471 -0.01997042 159.88037109 0 C161.15462448 0.0015081 162.42887787 0.0030162 163.741745 0.00457001 C166.94018555 0.50793457 166.94018555 0.50793457 169.34907532 2.32019806 C171.63728927 5.46643465 171.51412454 8.44942199 171.47143555 12.19543457 C171.47526245 12.93495361 171.47908936 13.67447266 171.48303223 14.43640137 C171.48574826 15.99639247 171.47840847 17.55642935 171.46166992 19.11633301 C171.44025228 21.50050643 171.46147818 23.88166706 171.48706055 26.26574707 C171.48441721 27.78398287 171.4792921 29.3022168 171.47143555 30.82043457 C171.47953247 31.53094971 171.48762939 32.24146484 171.49597168 32.97351074 C171.43638337 36.12807413 171.22580348 38.1152171 169.34907532 40.69567108 C166.07644075 43.15774976 163.9561826 43.01104534 159.88037109 43.01586914 C159.16923755 43.0221091 158.458104 43.02834907 157.72542095 43.03477812 C155.34224491 43.05073462 152.96008794 43.03809434 150.5769043 43.0255127 C148.86853437 43.03093267 147.16016912 43.03805462 145.45181274 43.04675293 C140.81131682 43.06500419 136.1711762 43.05791136 131.53067398 43.04523659 C126.67717777 43.03511824 121.82371223 43.04449902 116.97021484 43.05078125 C108.81919892 43.05806106 100.66832791 43.04846122 92.51733398 43.02941895 C83.09006608 43.00764956 73.66314419 43.0147007 64.23588467 43.03672457 C56.14575708 43.05486908 48.05573374 43.05744154 39.96559238 43.04696989 C35.13198232 43.04072973 30.29853495 43.03991365 25.4649353 43.05311584 C20.92088985 43.06465993 16.37729105 43.05667514 11.83329391 43.03353882 C10.16436887 43.02824399 8.49540631 43.02977873 6.82649612 43.03858948 C4.55048783 43.04949863 2.27591638 43.03583956 0 43.01586914 C-1.27425339 43.01436104 -2.54850677 43.01285294 -3.8613739 43.01129913 C-7.05981445 42.50793457 -7.05981445 42.50793457 -9.46870422 40.69567108 C-11.75691818 37.54943449 -11.63375345 34.56644715 -11.59106445 30.82043457 C-11.59489136 30.08091553 -11.59871826 29.34139648 -11.60266113 28.57946777 C-11.60537717 27.01947667 -11.59803737 25.45943979 -11.58129883 23.89953613 C-11.55988118 21.51536271 -11.58110708 19.13420208 -11.60668945 16.75012207 C-11.60404612 15.23188627 -11.59892101 13.71365234 -11.59106445 12.19543457 C-11.59916138 11.48491943 -11.6072583 10.7744043 -11.61560059 10.0423584 C-11.55601227 6.88779502 -11.34543239 4.90065204 -9.46870422 2.32019806 C-6.19606966 -0.14188062 -4.07581151 0.0048238 0 0 Z M-7.96495056 3.82983971 C-9.79783354 6.63909439 -9.44970344 9.39652113 -9.45825195 12.69543457 C-9.46112213 13.39434814 -9.46399231 14.09326172 -9.46694946 14.81335449 C-9.46898871 16.28935558 -9.46346848 17.76538378 -9.45092773 19.24133301 C-9.43487025 21.50008595 -9.45077916 23.75704975 -9.4699707 26.01574707 C-9.46798824 27.45064685 -9.46414451 28.88554552 -9.45825195 30.32043457 C-9.45486816 31.62625488 -9.45148438 32.9320752 -9.44799805 34.27746582 C-9.31629184 37.38532879 -9.31629184 37.38532879 -7.96495056 39.18602943 C-5.07980661 41.18792662 -2.67404315 40.88576173 0.81054688 40.8888855 C1.86477325 40.89590546 1.86477325 40.89590546 2.94029713 40.90306723 C5.30112758 40.91505688 7.66138178 40.90554489 10.0222168 40.89611816 C11.71235494 40.90018212 13.40249042 40.905523 15.09262085 40.91204834 C19.68760541 40.92574878 24.28238837 40.92041208 28.87737656 40.91091108 C33.68062646 40.90332859 38.48385882 40.91035616 43.28710938 40.91506958 C51.35411689 40.92053125 59.42104208 40.91332473 67.48803711 40.89904785 C76.82152689 40.88272055 86.15482008 40.88800877 95.48830509 40.90452707 C103.49430814 40.91813022 111.50025192 40.92006734 119.50626278 40.91221106 C124.29120545 40.90752809 129.07605566 40.90692678 133.86099243 40.91682053 C138.35898693 40.92547091 142.85672738 40.91950373 147.35469437 40.90213776 C149.00791629 40.89816257 150.6611595 40.89932453 152.31437302 40.90592575 C154.56648115 40.91409091 156.81776876 40.90388165 159.06982422 40.8888855 C160.33154953 40.88775442 161.59327484 40.88662334 162.89323425 40.88545799 C165.90330839 40.75212492 165.90330839 40.75212492 167.84532166 39.18602943 C169.67820463 36.37677475 169.33007453 33.61934801 169.33862305 30.32043457 C169.34149323 29.621521 169.3443634 28.92260742 169.34732056 28.20251465 C169.3493598 26.72651356 169.34383957 25.25048536 169.33129883 23.77453613 C169.31524134 21.51578319 169.33115025 19.25881939 169.3503418 17.00012207 C169.34835934 15.56522229 169.3445156 14.13032362 169.33862305 12.69543457 C169.33354736 10.7367041 169.33354736 10.7367041 169.32836914 8.73840332 C169.19666293 5.63054035 169.19666293 5.63054035 167.84532166 3.82983971 C164.9601777 1.82794252 162.55441424 2.13010741 159.06982422 2.12698364 C158.01559784 2.11996368 158.01559784 2.11996368 156.94007397 2.11280191 C154.57924352 2.10081226 152.21898931 2.11032425 149.8581543 2.11975098 C148.16801616 2.11568702 146.47788067 2.11034614 144.78775024 2.1038208 C140.19276568 2.09012036 135.59798272 2.09545706 131.00299454 2.10495806 C126.19974464 2.11254055 121.39651228 2.10551298 116.59326172 2.10079956 C108.5262542 2.09533789 100.45932901 2.10254441 92.39233398 2.11682129 C83.05884421 2.13314859 73.72555101 2.12786037 64.392066 2.11134207 C56.38606296 2.09773892 48.38011918 2.0958018 40.37410831 2.10365808 C35.58916564 2.10834105 30.80431544 2.10894236 26.01937866 2.09904861 C21.52138416 2.09039823 17.02364371 2.09636541 12.52567673 2.11373138 C10.87245481 2.11770657 9.2192116 2.11654461 7.56599808 2.10994339 C5.31388995 2.10177823 3.06260234 2.11198749 0.81054688 2.12698364 C-0.45117844 2.12811472 -1.71290375 2.1292458 -3.01286316 2.13041115 C-6.02293729 2.26374422 -6.02293729 2.26374422 -7.96495056 3.82983971 Z " fill="#E5EAF7" transform="translate(128.059814453125,23.4920654296875)"/>
<path d="M0 0 C8 0 8 0 11.0625 1.9375 C13.43786695 5.69211227 13.41582829 7.6945427 12.6328125 11.97265625 C12 14 12 14 10.4375 16.0625 C8 17 8 17 0 17 C0 11.39 0 5.78 0 0 Z " fill="#151728" transform="translate(490,103)"/>
<path d="M0 0 C-0.33 0.66 -0.66 1.32 -1 2 C-3.5625 2.625 -3.5625 2.625 -6 3 C-6 4.98 -6 6.96 -6 9 C-3.03 9.495 -3.03 9.495 0 10 C1.32 6.37 2.64 2.74 4 -1 C5.65 -0.67 7.3 -0.34 9 0 C9.50512244 1.60256108 10.00391627 3.20711792 10.5 4.8125 C10.7784375 5.70582031 11.056875 6.59914062 11.34375 7.51953125 C12 10 12 10 12 13 C11.01 13 10.02 13 9 13 C8.67 12.34 8.34 11.68 8 11 C5.97536745 10.34786708 5.97536745 10.34786708 4 10 C4 10.99 4 11.98 4 13 C2.22992286 13.08114106 0.45877902 13.13925505 -1.3125 13.1875 C-2.29863281 13.22230469 -3.28476563 13.25710937 -4.30078125 13.29296875 C-7 13 -7 13 -8.83203125 11.73828125 C-10.88999773 8.67542144 -10.52315315 5.54417838 -10 2 C-7.75198885 -2.36378636 -4.22539083 -0.87696791 0 0 Z " fill="#323342" transform="translate(151,214)"/>
<path d="M0 0 C1.65 0 3.3 0 5 0 C5.66 1.98 6.32 3.96 7 6 C7.33 4.02 7.66 2.04 8 0 C9.65 0 11.3 0 13 0 C13.95261487 4.76307437 14.08333357 9.1666528 14 14 C12.68 14 11.36 14 10 14 C9.67 13.34 9.34 12.68 9 12 C7.68 12.33 6.36 12.66 5 13 C4.67 12.34 4.34 11.68 4 11 C3.67 11.99 3.34 12.98 3 14 C2.01 14 1.02 14 0 14 C0 9.38 0 4.76 0 0 Z " fill="#2B2D3C" transform="translate(239,213)"/>
<path d="M0 0 C1.65 0 3.3 0 5 0 C5.33 1.98 5.66 3.96 6 6 C6.66 4.02 7.32 2.04 8 0 C9.65 0 11.3 0 13 0 C13 4.62 13 9.24 13 14 C12.01 14 11.02 14 10 14 C9.67 12.35 9.34 10.7 9 9 C8.67 10.32 8.34 11.64 8 13 C6.68 12.67 5.36 12.34 4 12 C3.67 12.66 3.34 13.32 3 14 C1.68 14 0.36 14 -1 14 C-0.67 9.38 -0.34 4.76 0 0 Z " fill="#1B1D2D" transform="translate(255,213)"/>
<path d="M0 0 C2.32749345 3.49124017 2.50299316 4.89222251 2 9 C-0.01200619 11.83171242 -1.12071767 12.84987863 -4.5625 13.4375 C-7 13 -7 13 -8.8125 12 C-10.71481722 8.79609732 -10.53498173 5.62431285 -10 2 C-7.76411593 -2.34024556 -4.18639275 -1.06562725 0 0 Z " fill="#181A2A" transform="translate(515,107)"/>
<path d="M0 0 C1.32 0 2.64 0 4 0 C4.66 0.66 5.32 1.32 6 2 C6.66 1.34 7.32 0.68 8 0 C10.625 0.375 10.625 0.375 13 1 C13.625 3.8125 13.625 3.8125 14 7 C13.01 8.485 13.01 8.485 12 10 C9.375 10.1875 9.375 10.1875 7 10 C7 9.34 7 8.68 7 8 C6.01 8 5.02 8 4 8 C4 8.66 4 9.32 4 10 C2.33388095 10.042721 0.66617115 10.04063832 -1 10 C-2 9 -2 9 -2.1875 5.5625 C-2 2 -2 2 0 0 Z " fill="#393A49" transform="translate(633,138)"/>
<path d="M0 0 C1.32 0 2.64 0 4 0 C4.66 0.66 5.32 1.32 6 2 C6.66 1.34 7.32 0.68 8 0 C10.625 0.375 10.625 0.375 13 1 C13.625 3.8125 13.625 3.8125 14 7 C13.01 8.485 13.01 8.485 12 10 C9.375 10.1875 9.375 10.1875 7 10 C7 9.34 7 8.68 7 8 C6.01 8 5.02 8 4 8 C4 8.66 4 9.32 4 10 C2.33388095 10.042721 0.66617115 10.04063832 -1 10 C-2 9 -2 9 -2.1875 5.5625 C-2 2 -2 2 0 0 Z " fill="#393A49" transform="translate(519,138)"/>
<path d="M0 0 C3.5 0.5625 3.5 0.5625 5.9375 2.1875 C7.92769679 5.21259912 7.96382725 7.00649109 7.5 10.5625 C5.5 12.5625 5.5 12.5625 3.58984375 12.79296875 C-2.38888889 12.67361111 -2.38888889 12.67361111 -3.5 11.5625 C-3.6875 9.125 -3.6875 9.125 -3.5 6.5625 C-1.5 4.5625 -1.5 4.5625 1.125 4.4375 C1.90875 4.47875 2.6925 4.52 3.5 4.5625 C3.5 6.5425 3.5 8.5225 3.5 10.5625 C4.16 10.5625 4.82 10.5625 5.5 10.5625 C4.84 8.2525 4.18 5.9425 3.5 3.5625 C1.16705225 3.52008277 -1.16702567 3.52157063 -3.5 3.5625 C-4.69695276 4.54160585 -4.69695276 4.54160585 -4.6328125 6.375 C-4.63023437 7.096875 -4.62765625 7.81875 -4.625 8.5625 C-4.62757813 9.284375 -4.63015625 10.00625 -4.6328125 10.75 C-4.69695276 12.58339415 -4.69695276 12.58339415 -3.5 13.5625 C-1.17182036 13.93010731 1.1618385 14.26491581 3.5 14.5625 C3.5 15.2225 3.5 15.8825 3.5 16.5625 C-2.75 17.04326923 -2.75 17.04326923 -5.9375 15 C-8.11348954 11.60545632 -8.05627159 9.5259351 -7.5 5.5625 C-5.40973646 1.63280455 -4.43218827 0.71231597 0 0 Z " fill="#393A48" transform="translate(458.5,135.4375)"/>
<path d="M0 0 C1.258125 -0.04125 2.51625 -0.0825 3.8125 -0.125 C4.52019531 -0.14820313 5.22789062 -0.17140625 5.95703125 -0.1953125 C8 0 8 0 11 2 C10.814375 3.2375 10.62875 4.475 10.4375 5.75 C10.05288777 8.76279577 9.9125406 11.10010827 11 14 C9.125 13.75 9.125 13.75 7 13 C5.75 10.9375 5.75 10.9375 5 9 C4.67 10.65 4.34 12.3 4 14 C2.68 14 1.36 14 0 14 C0 9.38 0 4.76 0 0 Z " fill="#353645" transform="translate(197,213)"/>
<path d="M0 0 C0.66 0 1.32 0 2 0 C2 0.66 2 1.32 2 2 C2.95712891 1.98259766 2.95712891 1.98259766 3.93359375 1.96484375 C5.17302734 1.95130859 5.17302734 1.95130859 6.4375 1.9375 C7.26121094 1.92589844 8.08492187 1.91429687 8.93359375 1.90234375 C11 2 11 2 12 3 C12.23192865 4.51469448 12.41215238 6.03754562 12.5625 7.5625 C12.64628906 8.38878906 12.73007813 9.21507812 12.81640625 10.06640625 C12.87699219 10.70449219 12.93757812 11.34257812 13 12 C11.02090602 12.02686553 9.04171029 12.04633375 7.0625 12.0625 C5.96035156 12.07410156 4.85820312 12.08570313 3.72265625 12.09765625 C1 12 1 12 0 11 C-0.14115161 8.32941149 -0.04247107 5.67567762 0 3 C-0.66 2.67 -1.32 2.34 -2 2 C-1.34 2 -0.68 2 0 2 C0 1.34 0 0.68 0 0 Z " fill="#F5F5F6" transform="translate(189,136)"/>
<path d="M0 0 C7.75 -0.125 7.75 -0.125 10 1 C10 2.98 10 4.96 10 7 C9.34 7 8.68 7 8 7 C8.495 7.78375 8.99 8.5675 9.5 9.375 C11 12 11 12 11 14 C9.68 14 8.36 14 7 14 C6.34 12.35 5.68 10.7 5 9 C4.67 10.65 4.34 12.3 4 14 C2.68 14 1.36 14 0 14 C0 9.38 0 4.76 0 0 Z " fill="#2F3140" transform="translate(282,213)"/>
<path d="M0 0 C7.75 -0.125 7.75 -0.125 10 1 C10 2.98 10 4.96 10 7 C9.34 7 8.68 7 8 7 C8.495 7.78375 8.99 8.5675 9.5 9.375 C11 12 11 12 11 14 C9.68 14 8.36 14 7 14 C6.34 12.35 5.68 10.7 5 9 C4.67 10.65 4.34 12.3 4 14 C2.68 14 1.36 14 0 14 C0 9.38 0 4.76 0 0 Z " fill="#2F3140" transform="translate(164,213)"/>
<path d="M0 0 C6.45672625 -0.36547507 6.45672625 -0.36547507 8.71875 1.15625 C10.50895567 3.73239963 10.2969848 5.5854308 10.1875 8.6875 C10.16042969 9.68136719 10.13335937 10.67523438 10.10546875 11.69921875 C10.07066406 12.45847656 10.03585937 13.21773437 10 14 C9.09121094 13.73703125 9.09121094 13.73703125 8.1640625 13.46875 C5.51896643 12.895805 3.62350037 13.44768413 1 14 C0.34 13.67 -0.32 13.34 -1 13 C-1.125 10.625 -1.125 10.625 -1 8 C1 6 1 6 3.625 5.875 C4.40875 5.91625 5.1925 5.9575 6 6 C6 5.01 6 4.02 6 3 C4.02 3 2.04 3 0 3 C0 2.01 0 1.02 0 0 Z " fill="#161828" transform="translate(444,106)"/>
<path d="M0 0 C0.33 2.31 0.66 4.62 1 7 C-1.31 7 -3.62 7 -6 7 C-5.67 7.66 -5.34 8.32 -5 9 C-3.35 9 -1.7 9 0 9 C0.33 9.99 0.66 10.98 1 12 C-1.82883747 13.41441874 -3.87376745 13.31900332 -7 13 C-9.83268842 10.63942631 -9.98743809 9.11933812 -10.375 5.4375 C-10 2 -10 2 -8.9375 0 C-5.86664787 -1.58495594 -3.27813225 -0.68036707 0 0 Z " fill="#101223" transform="translate(480,107)"/>
<path d="M0 0 C1.8125 1.1875 1.8125 1.1875 3 3 C3.1875 5.6875 3.1875 5.6875 3 8 C0.69 8 -1.62 8 -4 8 C-4 8.99 -4 9.98 -4 11 C-2.02 10.67 -0.04 10.34 2 10 C1.67 11.32 1.34 12.64 1 14 C-4.33333333 14.35555556 -4.33333333 14.35555556 -6.875 13 C-8.68324933 9.78533453 -8.54662881 6.59427161 -8 3 C-5.99552859 -0.37595184 -3.7543224 -0.56314836 0 0 Z " fill="#272938" transform="translate(527,106)"/>
<path d="M0 0 C1.32 0.33 2.64 0.66 4 1 C4.86625 0.814375 5.7325 0.62875 6.625 0.4375 C7.40875 0.293125 8.1925 0.14875 9 0 C11 2 11 2 11.1953125 4.8203125 C11.16050781 6.45613281 11.16050781 6.45613281 11.125 8.125 C11.10695313 9.22070312 11.08890625 10.31640625 11.0703125 11.4453125 C11.04710937 12.28835937 11.02390625 13.13140625 11 14 C9.68 14 8.36 14 7 14 C7 10.37 7 6.74 7 3 C6.01 3.33 5.02 3.66 4 4 C3.67 7.3 3.34 10.6 3 14 C2.01 14 1.02 14 0 14 C0 9.38 0 4.76 0 0 Z " fill="#171829" transform="translate(457,106)"/>
<path d="M0 0 C1.65 0.33 3.3 0.66 5 1 C5.50512244 2.60256108 6.00391627 4.20711792 6.5 5.8125 C6.7784375 6.70582031 7.056875 7.59914062 7.34375 8.51953125 C8 11 8 11 8 14 C7.01 14 6.02 14 5 14 C4.67 13.34 4.34 12.68 4 12 C1.97536745 11.34786708 1.97536745 11.34786708 0 11 C0 11.99 0 12.98 0 14 C-1.32 13.67 -2.64 13.34 -4 13 C-2.68 8.71 -1.36 4.42 0 0 Z " fill="#171929" transform="translate(273,213)"/>
<path d="M0 0 C0.99 0 1.98 0 3 0 C3 3.63 3 7.26 3 11 C4.32 11 5.64 11 7 11 C7 7.37 7 3.74 7 0 C8.32 0 9.64 0 11 0 C11.08114106 1.77007714 11.13925505 3.54122098 11.1875 5.3125 C11.22230469 6.29863281 11.25710937 7.28476563 11.29296875 8.30078125 C11 11 11 11 9.6796875 12.8359375 C7.1105353 14.61641972 5.0339552 14.32276119 2 14 C0 12 0 12 -0.1953125 9.1796875 C-0.17210937 8.08914062 -0.14890625 6.99859375 -0.125 5.875 C-0.10695312 4.77929688 -0.08890625 3.68359375 -0.0703125 2.5546875 C-0.04710937 1.71164063 -0.02390625 0.86859375 0 0 Z " fill="#2A2B3A" transform="translate(226,213)"/>
<path d="M0 0 C1.67542976 0.28604898 3.34385343 0.61781233 5 1 C5.33 1.99 5.66 2.98 6 4 C6.66 4 7.32 4 8 4 C8 2.68 8 1.36 8 0 C9.98 0 11.96 0 14 0 C14 0.66 14 1.32 14 2 C13.01 2.33 12.02 2.66 11 3 C10.67 5.31 10.34 7.62 10 10 C9.34 10 8.68 10 8 10 C7.67 8.68 7.34 7.36 7 6 C6.34 7.32 5.68 8.64 5 10 C0.125 9.125 0.125 9.125 -1 8 C-1.125 4.5 -1.125 4.5 -1 1 C-0.67 0.67 -0.34 0.34 0 0 Z " fill="#909199" transform="translate(803,138)"/>
<path d="M0 0 C0.33 0.99 0.66 1.98 1 3 C-0.65 3 -2.3 3 -4 3 C-4 3.66 -4 4.32 -4 5 C-2.02 5.66 -0.04 6.32 2 7 C2.125 9.375 2.125 9.375 2 12 C0 14 0 14 -3 14.1875 C-6 14 -6 14 -8 13 C-8 12.34 -8 11.68 -8 11 C-5.69 11 -3.38 11 -1 11 C-2.50663783 7.98672434 -5.03166411 7.38943382 -8 6 C-7.625 3.5625 -7.625 3.5625 -7 1 C-4.53721199 -0.231394 -2.7204945 -0.07159196 0 0 Z " fill="#222333" transform="translate(222,213)"/>
<path d="M0 0 C1.32 0 2.64 0 4 0 C4.08089542 2.77141717 4.14044062 5.54047819 4.1875 8.3125 C4.22520508 9.49102539 4.22520508 9.49102539 4.26367188 10.69335938 C4.27333984 11.45068359 4.28300781 12.20800781 4.29296875 12.98828125 C4.3086792 13.68477783 4.32438965 14.38127441 4.34057617 15.09887695 C3.89122619 17.60718396 3.01981426 18.48831511 1 20 C0.01 20 -0.98 20 -2 20 C-1.84152588 19.42024414 -1.68305176 18.84048828 -1.51977539 18.24316406 C-0.71911382 14.78779602 -0.62776918 11.28089697 -0.4375 7.75 C-0.39431641 7.00492187 -0.35113281 6.25984375 -0.30664062 5.4921875 C-0.20103275 3.661651 -0.10005799 1.83084824 0 0 Z " fill="#1B1D2D" transform="translate(437,103)"/>
<path d="M0 0 C1.2065625 0.0309375 1.2065625 0.0309375 2.4375 0.0625 C3.6273968 4.37587592 3.37878806 7.70904271 2.4375 12.0625 C0.0625 12.1875 0.0625 12.1875 -2.5625 12.0625 C-4.5625 10.0625 -4.5625 10.0625 -4.57421875 7.93359375 C-4.46722656 7.13050781 -4.36023438 6.32742187 -4.25 5.5 C-4.15074219 4.69433594 -4.05148437 3.88867188 -3.94921875 3.05859375 C-3.3681349 0.05926196 -3.12049841 0.07610972 0 0 Z " fill="#70727C" transform="translate(306.5625,135.9375)"/>
<path d="M0 0 C1.2065625 0.0309375 1.2065625 0.0309375 2.4375 0.0625 C3.6273968 4.37587592 3.37878806 7.70904271 2.4375 12.0625 C0.0625 12.1875 0.0625 12.1875 -2.5625 12.0625 C-4.5625 10.0625 -4.5625 10.0625 -4.57421875 7.93359375 C-4.46722656 7.13050781 -4.36023438 6.32742187 -4.25 5.5 C-4.15074219 4.69433594 -4.05148437 3.88867188 -3.94921875 3.05859375 C-3.3681349 0.05926196 -3.12049841 0.07610972 0 0 Z " fill="#70727C" transform="translate(278.5625,135.9375)"/>
<path d="M0 0 C0.66 0 1.32 0 2 0 C2 4.29 2 8.58 2 13 C0.02 13 -1.96 13 -4 13 C-6 11 -6 11 -6.25 8 C-6 5 -6 5 -4 3 C-3.01 3 -2.02 3 -1 3 C-0.67 2.01 -0.34 1.02 0 0 Z " fill="#95969E" transform="translate(446,135)"/>
<path d="M0 0 C-0.020625 0.7425 -0.04125 1.485 -0.0625 2.25 C-0.11733104 4.93826222 -0.11733104 4.93826222 0.625 7.1875 C0.74875 7.785625 0.8725 8.38375 1 9 C-1 11 -1 11 -3.625 11.125 C-4.40875 11.08375 -5.1925 11.0425 -6 11 C-6.814709 7.23197087 -7 3.85318348 -7 0 C-4.3333581 -1.33332095 -2.83319697 -0.67102033 0 0 Z " fill="#70727C" transform="translate(328,137)"/>
<path d="M0 0 C1.2065625 0.0309375 1.2065625 0.0309375 2.4375 0.0625 C3.31553368 3.79414314 3.61173601 7.22930771 3.4375 11.0625 C2.4375 12.0625 2.4375 12.0625 -0.0625 12.1875 C-2.5625 12.0625 -2.5625 12.0625 -3.5625 11.0625 C-3.66073937 9.39820949 -3.69223631 7.72968069 -3.6875 6.0625 C-3.69007813 5.155 -3.69265625 4.2475 -3.6953125 3.3125 C-3.50465529 0.08254264 -3.25740423 0.07944888 0 0 Z " fill="#71727D" transform="translate(343.5625,135.9375)"/>
<path d="M0 0 C1.67542976 0.28604898 3.34385343 0.61781233 5 1 C5 2.32 5 3.64 5 5 C5.30830925 7.00401011 5.63729412 9.00511766 6 11 C3.125 11.625 3.125 11.625 0 12 C-2 10 -2 10 -2.01171875 7.87109375 C-1.90472656 7.06800781 -1.79773438 6.26492187 -1.6875 5.4375 C-1.58824219 4.63183594 -1.48898437 3.82617188 -1.38671875 2.99609375 C-1 1 -1 1 0 0 Z " fill="#565763" transform="translate(351,136)"/>
<path d="M0 0 C0.66 0 1.32 0 2 0 C2 0.99 2 1.98 2 3 C2.928125 3.2165625 2.928125 3.2165625 3.875 3.4375 C6 4 6 4 8 5 C8 4.34 8 3.68 8 3 C9.65 3.33 11.3 3.66 13 4 C13 5.98 13 7.96 13 10 C10.6875 10.625 10.6875 10.625 8 11 C7.01 10.34 6.02 9.68 5 9 C5 7.68 5 6.36 5 5 C4.01 5 3.02 5 2 5 C2 6.65 2 8.3 2 10 C1.01 10.495 1.01 10.495 0 11 C0 7.37 0 3.74 0 0 Z " fill="#A992F5" transform="translate(447,38)"/>
<path d="M0 0 C2.64 0 5.28 0 8 0 C8 0.66 8 1.32 8 2 C6.35 2 4.7 2 3 2 C3 3.32 3 4.64 3 6 C4.32 6 5.64 6 7 6 C7 6.66 7 7.32 7 8 C5.68 8 4.36 8 3 8 C3 9.32 3 10.64 3 12 C4.65 12 6.3 12 8 12 C8 12.66 8 13.32 8 14 C5.36 14 2.72 14 0 14 C0 9.38 0 4.76 0 0 Z " fill="#050719" transform="translate(187,213)"/>
<path d="M0 0 C2.64 0 5.28 0 8 0 C8 0.66 8 1.32 8 2 C6.35 2 4.7 2 3 2 C3 3.32 3 4.64 3 6 C4.32 6 5.64 6 7 6 C7 6.66 7 7.32 7 8 C5.68 8 4.36 8 3 8 C3 9.32 3 10.64 3 12 C4.65 12 6.3 12 8 12 C8 12.66 8 13.32 8 14 C5.36 14 2.72 14 0 14 C0 9.38 0 4.76 0 0 Z " fill="#080A1B" transform="translate(177,213)"/>
<path d="M0 0 C1.81242052 -0.02687279 3.62495233 -0.04633715 5.4375 -0.0625 C6.44683594 -0.07410156 7.45617187 -0.08570313 8.49609375 -0.09765625 C11 0 11 0 12 1 C12.07179964 2.51928038 12.08392007 4.04167482 12.0625 5.5625 C12.05347656 6.38878906 12.04445313 7.21507812 12.03515625 8.06640625 C12.02355469 8.70449219 12.01195312 9.34257812 12 10 C11.34 10 10.68 10 10 10 C10 7.36 10 4.72 10 2 C9.01 2 8.02 2 7 2 C7 4.64 7 7.28 7 10 C6.34 10 5.68 10 5 10 C5 7.36 5 4.72 5 2 C4.01 2 3.02 2 2 2 C2 4.64 2 7.28 2 10 C1.34 10 0.68 10 0 10 C0 6.7 0 3.4 0 0 Z " fill="#363846" transform="translate(760,138)"/>
<path d="M0 0 C4.55555556 0.55555556 4.55555556 0.55555556 6 2 C6.1875 4.9375 6.1875 4.9375 6 8 C5.34 8.66 4.68 9.32 4 10 C-0.55555556 9.44444444 -0.55555556 9.44444444 -2 8 C-2.1875 5.0625 -2.1875 5.0625 -2 2 C-1.34 1.34 -0.68 0.68 0 0 Z " fill="#373947" transform="translate(708,138)"/>
<path d="M0 0 C0.33 0 0.66 0 1 0 C1 4.29 1 8.58 1 13 C-0.98 13 -2.96 13 -5 13 C-6 12 -6 12 -6.125 8.5625 C-6 5 -6 5 -5 3 C-3.68 3 -2.36 3 -1 3 C-0.67 2.01 -0.34 1.02 0 0 Z " fill="#2A2B3B" transform="translate(607,135)"/>
<path d="M0 0 C4.55555556 0.55555556 4.55555556 0.55555556 6 2 C6.1875 4.9375 6.1875 4.9375 6 8 C5.34 8.66 4.68 9.32 4 10 C-0.55555556 9.44444444 -0.55555556 9.44444444 -2 8 C-2.1875 5.0625 -2.1875 5.0625 -2 2 C-1.34 1.34 -0.68 0.68 0 0 Z " fill="#373947" transform="translate(393,138)"/>
<path d="M0 0 C-0.33 0.66 -0.66 1.32 -1 2 C-3.5625 2.625 -3.5625 2.625 -6 3 C-6 4.98 -6 6.96 -6 9 C-4.35 9.33 -2.7 9.66 -1 10 C-1.33 10.99 -1.66 11.98 -2 13 C-4.6664882 13.21620175 -6.44004321 13.30894168 -8.8125 12 C-10.71481722 8.79609732 -10.53498173 5.62431285 -10 2 C-7.75198885 -2.36378636 -4.22539083 -0.87696791 0 0 Z " fill="#191B2C" transform="translate(151,214)"/>
<path d="M0 0 C1.875 0.3125 1.875 0.3125 4 1 C4.66 1.99 5.32 2.98 6 4 C6.66 2.68 7.32 1.36 8 0 C8.99 0 9.98 0 11 0 C10.566875 1.2375 10.566875 1.2375 10.125 2.5 C8.90101549 6.30795181 7.9383118 10.11270827 7 14 C6.01 14 5.02 14 4 14 C3.71125 12.80375 3.4225 11.6075 3.125 10.375 C2.2475666 6.85273164 1.19979363 3.42798179 0 0 Z " fill="#121425" transform="translate(293,213)"/>
<path d="M0 0 C1.32 0 2.64 0 4 0 C6.1519437 3.22791555 6.20086443 4.28400809 6 8 C5.34 8 4.68 8 4 8 C4 8.66 4 9.32 4 10 C2.33388095 10.042721 0.66617115 10.04063832 -1 10 C-2 9 -2 9 -2.1875 5.5625 C-2 2 -2 2 0 0 Z " fill="#EBECED" transform="translate(633,138)"/>
<path d="M0 0 C1.32 0 2.64 0 4 0 C6.1519437 3.22791555 6.20086443 4.28400809 6 8 C5.34 8 4.68 8 4 8 C4 8.66 4 9.32 4 10 C2.33388095 10.042721 0.66617115 10.04063832 -1 10 C-2 9 -2 9 -2.1875 5.5625 C-2 2 -2 2 0 0 Z " fill="#EBECED" transform="translate(519,138)"/>
<path d="M0 0 C1 2 1 2 0.0625 5.125 C-0.288125 6.07375 -0.63875 7.0225 -1 8 C-1.99 8 -2.98 8 -4 8 C-4 8.66 -4 9.32 -4 10 C-2.35 10.33 -0.7 10.66 1 11 C0.67 12.32 0.34 13.64 0 15 C-1.98 15 -3.96 15 -6 15 C-6 14.01 -6 13.02 -6 12 C-4.35 12.33 -2.7 12.66 -1 13 C-1.61875 12.773125 -2.2375 12.54625 -2.875 12.3125 C-5.68240771 10.57851288 -6.17387474 9.15429646 -7 6 C-7 3.8125 -7 3.8125 -6 2 C-2.9375 0.75 -2.9375 0.75 0 0 Z " fill="#545562" transform="translate(475,137)"/>
<path d="M0 0 C1.65 0 3.3 0 5 0 C5 0.66 5 1.32 5 2 C4.01 2 3.02 2 2 2 C2 2.66 2 3.32 2 4 C2.721875 3.649375 3.44375 3.29875 4.1875 2.9375 C7.3122705 1.89590983 8.88161996 2.10903428 12 3 C12 3.99 12 4.98 12 6 C10.68 6 9.36 6 8 6 C8 6.66 8 7.32 8 8 C9.32 8.33 10.64 8.66 12 9 C10.35 9.33 8.7 9.66 7 10 C6.34 9.01 5.68 8.02 5 7 C2.94074861 6.27617533 2.94074861 6.27617533 1 6 C0.67 7.32 0.34 8.64 0 10 C0 6.7 0 3.4 0 0 Z " fill="#CABEF8" transform="translate(417,39)"/>
<path d="M0 0 C4.55555556 0.55555556 4.55555556 0.55555556 6 2 C6.375 4.75 6.375 4.75 6 8 C3.625 10.875 3.625 10.875 1 13 C0.34 13 -0.32 13 -1 13 C-1 12.34 -1 11.68 -1 11 C1 9.375 1 9.375 3 8 C1.68 7.67 0.36 7.34 -1 7 C-1.625 4.625 -1.625 4.625 -2 2 C-1.34 1.34 -0.68 0.68 0 0 Z " fill="#3A3B49" transform="translate(332,136)"/>
<path d="M0 0 C4.29 0 8.58 0 13 0 C13 0.66 13 1.32 13 2 C12.01 2.33 11.02 2.66 10 3 C10.66 3.433125 11.32 3.86625 12 4.3125 C12.66 4.869375 13.32 5.42625 14 6 C14 6.99 14 7.98 14 9 C12.02 9.33 10.04 9.66 8 10 C7.67 9.34 7.34 8.68 7 8 C8.65 8 10.3 8 12 8 C12 7.34 12 6.68 12 6 C9.525 5.01 9.525 5.01 7 4 C7 3.34 7 2.68 7 2 C6.01 2 5.02 2 4 2 C4 4.64 4 7.28 4 10 C3.34 10 2.68 10 2 10 C2 7.03 2 4.06 2 1 C1.34 0.67 0.68 0.34 0 0 Z " fill="#DAD3F9" transform="translate(330,39)"/>
<path d="M0 0 C2.33294775 -0.04241723 4.66702567 -0.04092937 7 0 C8 1 8 1 8.125 3.5 C8 6 8 6 7 7 C5.33382885 7.04063832 3.66611905 7.042721 2 7 C2 8.65 2 10.3 2 12 C1.34 12 0.68 12 0 12 C0 8.04 0 4.08 0 0 Z " fill="#383947" transform="translate(239,136)"/>
<path d="M0 0 C1.65 0 3.3 0 5 0 C7 2 7 2 7.25 5 C7 8 7 8 5 10 C3.35 10 1.7 10 0 10 C0 6.7 0 3.4 0 0 Z " fill="#444653" transform="translate(132,39)"/>
<path d="M0 0 C5.875 0.875 5.875 0.875 7 2 C7.1875 4.9375 7.1875 4.9375 7 8 C6.34 8.66 5.68 9.32 5 10 C3.35 10 1.7 10 0 10 C0 6.7 0 3.4 0 0 Z " fill="#333544" transform="translate(24,26)"/>
<path d="M0 0 C1.81242052 -0.02687279 3.62495233 -0.04633715 5.4375 -0.0625 C6.44683594 -0.07410156 7.45617187 -0.08570313 8.49609375 -0.09765625 C11 0 11 0 12 1 C12.07179964 2.51928038 12.08392007 4.04167482 12.0625 5.5625 C12.05347656 6.38878906 12.04445313 7.21507812 12.03515625 8.06640625 C12.02355469 8.70449219 12.01195312 9.34257812 12 10 C11.67 10 11.34 10 11 10 C11 7.36 11 4.72 11 2 C10.01 2.33 9.02 2.66 8 3 C7.67 5.31 7.34 7.62 7 10 C6.34 10 5.68 10 5 10 C5 7.36 5 4.72 5 2 C4.01 2 3.02 2 2 2 C2 4.64 2 7.28 2 10 C1.34 10 0.68 10 0 10 C0 6.7 0 3.4 0 0 Z " fill="#383A48" transform="translate(649,138)"/>
<path d="M0 0 C1.81242052 -0.02687279 3.62495233 -0.04633715 5.4375 -0.0625 C6.44683594 -0.07410156 7.45617187 -0.08570313 8.49609375 -0.09765625 C11 0 11 0 12 1 C12.07179964 2.51928038 12.08392007 4.04167482 12.0625 5.5625 C12.05347656 6.38878906 12.04445313 7.21507812 12.03515625 8.06640625 C12.02355469 8.70449219 12.01195312 9.34257812 12 10 C11.67 10 11.34 10 11 10 C11 7.36 11 4.72 11 2 C10.01 2.33 9.02 2.66 8 3 C7.67 5.31 7.34 7.62 7 10 C6.34 10 5.68 10 5 10 C5 7.36 5 4.72 5 2 C4.01 2 3.02 2 2 2 C2 4.64 2 7.28 2 10 C1.34 10 0.68 10 0 10 C0 6.7 0 3.4 0 0 Z " fill="#383A48" transform="translate(478,138)"/>
<path d="M0 0 C2.625 0.375 2.625 0.375 5 1 C5 3.97 5 6.94 5 10 C3.02 10.99 1.04 11.98 -1 13 C-1 12.34 -1 11.68 -1 11 C0.32 10.67 1.64 10.34 3 10 C3 9.34 3 8.68 3 8 C1.68 7.67 0.36 7.34 -1 7 C-1.625 4.625 -1.625 4.625 -2 2 C-1.34 1.34 -0.68 0.68 0 0 Z " fill="#363746" transform="translate(295,136)"/>
<path d="M0 0 C2.625 0.375 2.625 0.375 5 1 C5 3.97 5 6.94 5 10 C3.02 10.99 1.04 11.98 -1 13 C-1 12.34 -1 11.68 -1 11 C0.32 10.67 1.64 10.34 3 10 C3 9.34 3 8.68 3 8 C1.68 7.67 0.36 7.34 -1 7 C-1.625 4.625 -1.625 4.625 -2 2 C-1.34 1.34 -0.68 0.68 0 0 Z " fill="#363746" transform="translate(267,136)"/>
<path d="M0 0 C1.65 0 3.3 0 5 0 C5.33 0.66 5.66 1.32 6 2 C5.01 2 4.02 2 3 2 C3 6.29 3 10.58 3 15 C3.66 15 4.32 15 5 15 C5 15.66 5 16.32 5 17 C3.35 17 1.7 17 0 17 C0 11.39 0 5.78 0 0 Z " fill="#030517" transform="translate(490,103)"/>
<path d="M0 0 C0.66 0 1.32 0 2 0 C2 3.63 2 7.26 2 11 C0.00045254 11.04254356 -2.00041636 11.04080783 -4 11 C-5 10 -5 10 -5.0625 6.9375 C-5.041875 5.968125 -5.02125 4.99875 -5 4 C-3.35 3.67 -1.7 3.34 0 3 C0 2.01 0 1.02 0 0 Z " fill="#A78FF5" transform="translate(443,38)"/>
<path d="M0 0 C4.70588235 0.70588235 4.70588235 0.70588235 6 2 C6.47323944 8.38873239 6.47323944 8.38873239 4.5 10.9375 C4.005 11.288125 3.51 11.63875 3 12 C2.01 11.67 1.02 11.34 0 11 C0.99 10.01 1.98 9.02 3 8 C1.68 7.67 0.36 7.34 -1 7 C-1.04254356 5.00045254 -1.04080783 2.99958364 -1 1 C-0.67 0.67 -0.34 0.34 0 0 Z " fill="#656671" transform="translate(313,136)"/>
<path d="M0 0 C2.625 0.375 2.625 0.375 5 1 C5.36923077 8.50769231 5.36923077 8.50769231 3.5 11 C3.005 11.33 2.51 11.66 2 12 C1.01 11.67 0.02 11.34 -1 11 C-0.01 10.34 0.98 9.68 2 9 C0.68 8.34 -0.64 7.68 -2 7 C-2.125 4.625 -2.125 4.625 -2 2 C-1.34 1.34 -0.68 0.68 0 0 Z " fill="#666772" transform="translate(286,136)"/>
<path d="M0 0 C5 1 5 1 6 2 C6.26293056 6.03160191 6.29404844 7.55892734 4 11 C2.68 11 1.36 11 0 11 C0 7.37 0 3.74 0 0 Z " fill="#DBDBDE" transform="translate(493,106)"/>
<path d="M0 0 C1.65 0.33 3.3 0.66 5 1 C4.67 2.32 4.34 3.64 4 5 C4.99 5 5.98 5 7 5 C7 6.65 7 8.3 7 10 C4.69 10 2.38 10 0 10 C-0.95024979 6.30458414 -0.95024979 3.69541586 0 0 Z " fill="#C7BAF8" transform="translate(350,39)"/>
<path d="M0 0 C2 0 4 0 6 0 C6 0.66 6 1.32 6 2 C6.66 2 7.32 2 8 2 C8 1.34 8 0.68 8 0 C8.66 0.33 9.32 0.66 10 1 C9.67 3.31 9.34 5.62 9 8 C8.4225 7.814375 7.845 7.62875 7.25 7.4375 C4.79307475 6.95976454 3.35602466 7.24270636 1 8 C0.67 5.36 0.34 2.72 0 0 Z " fill="#51525F" transform="translate(40,28)"/>
<path d="M0 0 C1.65 0 3.3 0 5 0 C5 2.31 5 4.62 5 7 C4.67 7 4.34 7 4 7 C3.67 9.31 3.34 11.62 3 14 C2.01 14 1.02 14 0 14 C0 9.38 0 4.76 0 0 Z " fill="#181A2B" transform="translate(239,213)"/>
<path d="M0 0 C0.78375 0.04125 1.5675 0.0825 2.375 0.125 C2.375 2.105 2.375 4.085 2.375 6.125 C3.035 6.125 3.695 6.125 4.375 6.125 C4.375 6.785 4.375 7.445 4.375 8.125 C-1.77734375 8.22265625 -1.77734375 8.22265625 -3.625 8.125 C-4.625 7.125 -4.625 7.125 -4.8125 4.6875 C-4.54653904 1.05270021 -3.63803315 0.17323967 0 0 Z " fill="#40424F" transform="translate(459.625,139.875)"/>
<path d="M0 0 C1.66611905 -0.042721 3.33382885 -0.04063832 5 0 C6.58272601 1.58272601 6.34735747 3.38034003 6.5625 5.5625 C6.64628906 6.38878906 6.73007813 7.21507812 6.81640625 8.06640625 C6.87699219 8.70449219 6.93757812 9.34257812 7 10 C4.69 10 2.38 10 0 10 C-0.33 8.35 -0.66 6.7 -1 5 C0.65 4.67 2.3 4.34 4 4 C4 3.34 4 2.68 4 2 C2.68 2 1.36 2 0 2 C0 1.34 0 0.68 0 0 Z " fill="#393B49" transform="translate(195,138)"/>
<path d="M0 0 C0 3.63 0 7.26 0 11 C-2.97 10.505 -2.97 10.505 -6 10 C-6 9.01 -6 8.02 -6 7 C-5.01 7 -4.02 7 -3 7 C-3 6.34 -3 5.68 -3 5 C-4.32 5 -5.64 5 -7 5 C-7 3.68 -7 2.36 -7 1 C-1.125 0 -1.125 0 0 0 Z " fill="#E5E6E7" transform="translate(197,214)"/>
<path d="M0 0 C2.375 -0.125 2.375 -0.125 5 0 C7 2 7 2 7.1953125 3.9453125 C7.13020833 5.96354167 7.06510417 7.98177083 7 10 C5.02 10 3.04 10 1 10 C0.67 8.35 0.34 6.7 0 5 C1.65 4.67 3.3 4.34 5 4 C5 3.34 5 2.68 5 2 C3.35 2 1.7 2 0 2 C0 1.34 0 0.68 0 0 Z " fill="#5B5C68" transform="translate(750,138)"/>
<path d="M0 0 C2.375 -0.125 2.375 -0.125 5 0 C7 2 7 2 7.1953125 3.9453125 C7.13020833 5.96354167 7.06510417 7.98177083 7 10 C5.02 10 3.04 10 1 10 C0.67 8.35 0.34 6.7 0 5 C1.65 4.67 3.3 4.34 5 4 C5 3.34 5 2.68 5 2 C3.35 2 1.7 2 0 2 C0 1.34 0 0.68 0 0 Z " fill="#5B5C68" transform="translate(493,138)"/>
<path d="M0 0 C2.4375 0.375 2.4375 0.375 5 1 C6.42041821 3.84083641 6.31452272 5.85477278 6 9 C4.125 11.375 4.125 11.375 2 13 C1.34 13 0.68 13 0 13 C-0.33 12.01 -0.66 11.02 -1 10 C-0.34 9.67 0.32 9.34 1 9 C1.07427838 5.65747276 1.06546953 3.1964086 0 0 Z " fill="#141627" transform="translate(511,107)"/>
<path d="M0 0 C2.625 0.375 2.625 0.375 5 1 C5.33 2.32 5.66 3.64 6 5 C4.02 5 2.04 5 0 5 C0 5.99 0 6.98 0 8 C1.98 8 3.96 8 6 8 C5.67 8.66 5.34 9.32 5 10 C2.625 10.1875 2.625 10.1875 0 10 C-2.14915785 6.77626323 -2.38286803 5.73296326 -2 2 C-1.34 1.34 -0.68 0.68 0 0 Z " fill="#393B49" transform="translate(819,138)"/>
<path d="M0 0 C1.66611905 -0.042721 3.33382885 -0.04063832 5 0 C6.58272601 1.58272601 6.34735747 3.38034003 6.5625 5.5625 C6.64628906 6.38878906 6.73007812 7.21507812 6.81640625 8.06640625 C6.87699219 8.70449219 6.93757813 9.34257812 7 10 C4.69 10 2.38 10 0 10 C-0.625 8.125 -0.625 8.125 -1 6 C-0.34 5.34 0.32 4.68 1 4 C2.32 4 3.64 4 5 4 C5 3.34 5 2.68 5 2 C3.35 2 1.7 2 0 2 C0 1.34 0 0.68 0 0 Z " fill="#5A5C67" transform="translate(376,138)"/>
<path d="M0 0 C1.65 0 3.3 0 5 0 C5 1.98 5 3.96 5 6 C4.34 6 3.68 6 3 6 C2.67 8.64 2.34 11.28 2 14 C1.01 14 0.02 14 -1 14 C-0.67 9.38 -0.34 4.76 0 0 Z " fill="#161828" transform="translate(255,213)"/>
<path d="M0 0 C1.65 0 3.3 0 5 0 C5.66666667 3.33333333 6.33333333 6.66666667 7 10 C6.01 9.67 5.02 9.34 4 9 C3.67 8.34 3.34 7.68 3 7 C2.67 7.99 2.34 8.98 2 10 C1.34 10 0.68 10 0 10 C0 6.7 0 3.4 0 0 Z " fill="#D1C7F8" transform="translate(363,39)"/>
<path d="M0 0 C0.99 0 1.98 0 3 0 C3 3.63 3 7.26 3 11 C3.99 11.33 4.98 11.66 6 12 C6.66 12.66 7.32 13.32 8 14 C5.125 14.125 5.125 14.125 2 14 C0 12 0 12 -0.1953125 9.1796875 C-0.17210937 8.08914062 -0.14890625 6.99859375 -0.125 5.875 C-0.10695312 4.77929688 -0.08890625 3.68359375 -0.0703125 2.5546875 C-0.04710937 1.71164063 -0.02390625 0.86859375 0 0 Z " fill="#141626" transform="translate(226,213)"/>
<path d="M0 0 C0.33 0 0.66 0 1 0 C1 3.63 1 7.26 1 11 C-0.65 11 -2.3 11 -4 11 C-5 10 -5 10 -5.0625 6.9375 C-5.041875 5.968125 -5.02125 4.99875 -5 4 C-3.35 3.67 -1.7 3.34 0 3 C0 2.01 0 1.02 0 0 Z " fill="#222333" transform="translate(192,38)"/>
<path d="M0 0 C2.625 0.375 2.625 0.375 5 1 C5 2.32 5 3.64 5 5 C3.35 5 1.7 5 0 5 C0 5.99 0 6.98 0 8 C1.65 8 3.3 8 5 8 C4.67 8.66 4.34 9.32 4 10 C-0.875 9.125 -0.875 9.125 -2 8 C-2.1875 5.0625 -2.1875 5.0625 -2 2 C-1.34 1.34 -0.68 0.68 0 0 Z " fill="#272938" transform="translate(593,138)"/>
<path d="M0 0 C2.625 0.375 2.625 0.375 5 1 C5 2.32 5 3.64 5 5 C3.35 5 1.7 5 0 5 C0 5.99 0 6.98 0 8 C1.65 8 3.3 8 5 8 C4.67 8.66 4.34 9.32 4 10 C-0.875 9.125 -0.875 9.125 -2 8 C-2.1875 5.0625 -2.1875 5.0625 -2 2 C-1.34 1.34 -0.68 0.68 0 0 Z " fill="#272938" transform="translate(212,138)"/>
<path d="M0 0 C0.66 0 1.32 0 2 0 C2 0.99 2 1.98 2 3 C2.66 3 3.32 3 4 3 C4 2.01 4 1.02 4 0 C4.66 0 5.32 0 6 0 C6.33 0.66 6.66 1.32 7 2 C7.33 1.34 7.66 0.68 8 0 C8.66 0.33 9.32 0.66 10 1 C9.34 3.31 8.68 5.62 8 8 C7.34 8 6.68 8 6 8 C6 7.01 6 6.02 6 5 C5.34 5 4.68 5 4 5 C4 5.99 4 6.98 4 8 C3.01 8 2.02 8 1 8 C0.67 5.36 0.34 2.72 0 0 Z " fill="#565864" transform="translate(148,41)"/>
<path d="M0 0 C1.32 0.33 2.64 0.66 4 1 C4.66 3.97 5.32 6.94 6 10 C5.34 10 4.68 10 4 10 C4 9.34 4 8.68 4 8 C2.68 8 1.36 8 0 8 C0 8.66 0 9.32 0 10 C-0.66 10 -1.32 10 -2 10 C-1.34 6.7 -0.68 3.4 0 0 Z " fill="#E4E0FA" transform="translate(324,39)"/>
<path d="M0 0 C1.65 0.33 3.3 0.66 5 1 C5.625 3.375 5.625 3.375 6 6 C5.34 6.66 4.68 7.32 4 8 C1.375 7.625 1.375 7.625 -1 7 C-0.67 4.69 -0.34 2.38 0 0 Z " fill="#62636F" transform="translate(64,28)"/>
<path d="M0 0 C0.66 0 1.32 0 2 0 C2.33 1.65 2.66 3.3 3 5 C4.32 4.34 5.64 3.68 7 3 C6.01 4.485 6.01 4.485 5 6 C5.25723969 8.02919843 5.25723969 8.02919843 6 10 C6.33 10.99 6.66 11.98 7 13 C6.01 12.67 5.02 12.34 4 12 C3.67 11.34 3.34 10.68 3 10 C2.67 10.99 2.34 11.98 2 13 C1.34 13 0.68 13 0 13 C0 8.71 0 4.42 0 0 Z " fill="#373846" transform="translate(583,135)"/>
<path d="M0 0 C1.67542976 0.28604898 3.34385343 0.61781233 5 1 C5.33 2.32 5.66 3.64 6 5 C4.02 5 2.04 5 0 5 C0.33 5.66 0.66 6.32 1 7 C3.52733235 7.65555119 3.52733235 7.65555119 6 8 C5.67 8.66 5.34 9.32 5 10 C0.125 9.125 0.125 9.125 -1 8 C-1.125 4.5 -1.125 4.5 -1 1 C-0.67 0.67 -0.34 0.34 0 0 Z " fill="#252636" transform="translate(803,138)"/>
<path d="M0 0 C0.99 0 1.98 0 3 0 C3 0.66 3 1.32 3 2 C3.66 2.33 4.32 2.66 5 3 C4.67 3.33 4.34 3.66 4 4 C3.76712992 5.68183948 3.58735834 7.3712416 3.4375 9.0625 C3.31181641 10.44115234 3.31181641 10.44115234 3.18359375 11.84765625 C3.12300781 12.55792969 3.06242187 13.26820312 3 14 C2.01 14 1.02 14 0 14 C0 9.38 0 4.76 0 0 Z " fill="#030517" transform="translate(457,106)"/>
<path d="M0 0 C2.125 0.375 2.125 0.375 4 1 C4.625 3.375 4.625 3.375 5 6 C4.34 6.66 3.68 7.32 3 8 C1.68 8 0.36 8 -1 8 C-1.625 5.125 -1.625 5.125 -2 2 C-1.34 1.34 -0.68 0.68 0 0 Z " fill="#83848D" transform="translate(173,41)"/>
<path d="M0 0 C1.65 0 3.3 0 5 0 C5.33 0.66 5.66 1.32 6 2 C4.02 2 2.04 2 0 2 C1.39195915 4.7839183 3.15575779 4.97898997 6 6 C6.042721 7.66611905 6.04063832 9.33382885 6 11 C5 12 5 12 1.9375 12.0625 C0.968125 12.041875 -0.00125 12.02125 -1 12 C-1.33 11.34 -1.66 10.68 -2 10 C-0.02 10 1.96 10 4 10 C4 9.01 4 8.02 4 7 C1.525 6.01 1.525 6.01 -1 5 C-0.67 3.35 -0.34 1.7 0 0 Z " fill="#3D3F4D" transform="translate(180,136)"/>
<path d="M0 0 C2.875 -0.125 2.875 -0.125 6 0 C8 2 8 2 8.1953125 3.9453125 C8.13020833 5.96354167 8.06510417 7.98177083 8 10 C7.34 10 6.68 10 6 10 C6 7.36 6 4.72 6 2 C4.68 2 3.36 2 2 2 C2 4.64 2 7.28 2 10 C1.34 10 0.68 10 0 10 C0 6.7 0 3.4 0 0 Z " fill="#464754" transform="translate(572,138)"/>
<path d="M0 0 C2.875 -0.125 2.875 -0.125 6 0 C8 2 8 2 8.1953125 3.9453125 C8.13020833 5.96354167 8.06510417 7.98177083 8 10 C7.34 10 6.68 10 6 10 C6 7.36 6 4.72 6 2 C4.68 2 3.36 2 2 2 C2 4.64 2 7.28 2 10 C1.34 10 0.68 10 0 10 C0 6.7 0 3.4 0 0 Z " fill="#464754" transform="translate(430,138)"/>
<path d="M0 0 C1.67542976 0.28604898 3.34385343 0.61781233 5 1 C5 2.98 5 4.96 5 7 C3.34385343 7.38218767 1.67542976 7.71395102 0 8 C-1 7 -1 7 -1.125 4 C-1 1 -1 1 0 0 Z " fill="#81828B" transform="translate(142,41)"/>
<path d="M0 0 C2.125 0.375 2.125 0.375 4 1 C4.625 3.375 4.625 3.375 5 6 C4.34 6.66 3.68 7.32 3 8 C0.875 7.625 0.875 7.625 -1 7 C-1.625 4.625 -1.625 4.625 -2 2 C-1.34 1.34 -0.68 0.68 0 0 Z " fill="#5E5F6B" transform="translate(34,28)"/>
<path d="M0 0 C0.99 0.33 1.98 0.66 3 1 C3.6875 3.0625 3.6875 3.0625 4 5 C4.66 3.35 5.32 1.7 6 0 C6.66 0 7.32 0 8 0 C7.74279326 1.58560393 7.46861201 3.16845924 7.1875 4.75 C7.03667969 5.63171875 6.88585937 6.5134375 6.73046875 7.421875 C5.93705743 10.22215024 4.97252282 11.87345147 3 14 C2.34 14 1.68 14 1 14 C1 12 1 12 3 10 C2.01 6.7 1.02 3.4 0 0 Z " fill="#333443" transform="translate(696,138)"/>
<path d="M0 0 C0.66 0 1.32 0 2 0 C2 0.66 2 1.32 2 2 C2.99 2 3.98 2 5 2 C4.67 3.98 4.34 5.96 4 8 C1.03 7.505 1.03 7.505 -2 7 C-2.125 4.625 -2.125 4.625 -2 2 C-1.34 1.34 -0.68 0.68 0 0 Z " fill="#474956" transform="translate(445,112)"/>
<path d="M0 0 C0.99 1.485 0.99 1.485 2 3 C4.56282742 3.72965366 4.56282742 3.72965366 7 4 C7 6.97 7 9.94 7 13 C6.34 13 5.68 13 5 13 C5 10.36 5 7.72 5 5 C4.01 5.33 3.02 5.66 2 6 C1.67 8.31 1.34 10.62 1 13 C0.67 13 0.34 13 0 13 C0 8.71 0 4.42 0 0 Z " fill="#2C2D3C" transform="translate(792,135)"/>
<path d="M0 0 C2.625 -0.1875 2.625 -0.1875 5 0 C5.33 0.66 5.66 1.32 6 2 C4.35 2.33 2.7 2.66 1 3 C1 4.98 1 6.96 1 9 C2.65 9.33 4.3 9.66 6 10 C5.67 10.66 5.34 11.32 5 12 C2.625 12.1875 2.625 12.1875 0 12 C-2.31332486 8.53001271 -2.33957563 7.07490752 -2 3 C-1.34 2.01 -0.68 1.02 0 0 Z " fill="#40414F" transform="translate(143,136)"/>
<path d="M0 0 C1.67542976 0.28604898 3.34385343 0.61781233 5 1 C5.33 2.32 5.66 3.64 6 5 C4.02 5 2.04 5 0 5 C1.32 6.65 2.64 8.3 4 10 C0.125 9.125 0.125 9.125 -1 8 C-1.125 4.5 -1.125 4.5 -1 1 C-0.67 0.67 -0.34 0.34 0 0 Z " fill="#4E505C" transform="translate(776,138)"/>
<path d="M0 0 C2.64 0 5.28 0 8 0 C6.54955729 4.10958767 4.48889248 7.43258745 2 11 C3.65 11 5.3 11 7 11 C7 11.33 7 11.66 7 12 C4.69 12 2.38 12 0 12 C1.05875074 8.59687262 2.00902154 5.98646769 4 3 C2.68 2.67 1.36 2.34 0 2 C0 1.34 0 0.68 0 0 Z " fill="#313342" transform="translate(224,136)"/>
<path d="M0 0 C0.66 0 1.32 0 2 0 C2.33 1.65 2.66 3.3 3 5 C3.33 4.34 3.66 3.68 4 3 C4.66 3 5.32 3 6 3 C5.79375 3.5775 5.5875 4.155 5.375 4.75 C4.91338739 7.51967567 5.57055055 8.64561267 7 11 C6.01 11 5.02 11 4 11 C3.67 10.34 3.34 9.68 3 9 C2.67 9.66 2.34 10.32 2 11 C1.34 11 0.68 11 0 11 C0 7.37 0 3.74 0 0 Z " fill="#D9D2F9" transform="translate(469,38)"/>
<path d="M0 0 C1.99954746 -0.04254356 4.00041636 -0.04080783 6 0 C7 1 7 1 7.09765625 3.06640625 C7.08605469 3.89011719 7.07445312 4.71382812 7.0625 5.5625 C7.05347656 6.38878906 7.04445313 7.21507812 7.03515625 8.06640625 C7.01775391 9.02353516 7.01775391 9.02353516 7 10 C6.34 10 5.68 10 5 10 C5 7.36 5 4.72 5 2 C4.01 2.33 3.02 2.66 2 3 C1.67 5.31 1.34 7.62 1 10 C0.67 10 0.34 10 0 10 C0 6.7 0 3.4 0 0 Z " fill="#2F303F" transform="translate(679,138)"/>
<path d="M0 0 C1.99954746 -0.04254356 4.00041636 -0.04080783 6 0 C7 1 7 1 7.09765625 3.06640625 C7.08605469 3.89011719 7.07445312 4.71382812 7.0625 5.5625 C7.05347656 6.38878906 7.04445313 7.21507812 7.03515625 8.06640625 C7.01775391 9.02353516 7.01775391 9.02353516 7 10 C6.34 10 5.68 10 5 10 C5 7.36 5 4.72 5 2 C4.01 2.33 3.02 2.66 2 3 C1.67 5.31 1.34 7.62 1 10 C0.67 10 0.34 10 0 10 C0 6.7 0 3.4 0 0 Z " fill="#2F303F" transform="translate(617,138)"/>
<path d="M0 0 C1.99954746 -0.04254356 4.00041636 -0.04080783 6 0 C7 1 7 1 7.09765625 3.06640625 C7.08605469 3.89011719 7.07445312 4.71382812 7.0625 5.5625 C7.05347656 6.38878906 7.04445313 7.21507812 7.03515625 8.06640625 C7.01775391 9.02353516 7.01775391 9.02353516 7 10 C6.34 10 5.68 10 5 10 C5 7.36 5 4.72 5 2 C4.01 2.33 3.02 2.66 2 3 C1.67 5.31 1.34 7.62 1 10 C0.67 10 0.34 10 0 10 C0 6.7 0 3.4 0 0 Z " fill="#2F303F" transform="translate(407,138)"/>
<path d="M0 0 C0.33 0 0.66 0 1 0 C1 2.64 1 5.28 1 8 C1.99 7.67 2.98 7.34 4 7 C4.33 4.69 4.66 2.38 5 0 C5.66 0 6.32 0 7 0 C7 3.3 7 6.6 7 10 C5.00045254 10.04254356 2.99958364 10.04080783 1 10 C0 9 0 9 -0.09765625 6.93359375 C-0.08605469 6.10988281 -0.07445312 5.28617188 -0.0625 4.4375 C-0.05347656 3.61121094 -0.04445313 2.78492188 -0.03515625 1.93359375 C-0.02355469 1.29550781 -0.01195312 0.65742188 0 0 Z " fill="#333543" transform="translate(717,138)"/>
<path d="M0 0 C1.65 0.33 3.3 0.66 5 1 C5 2.98 5 4.96 5 7 C3.35 7.33 1.7 7.66 0 8 C-0.98120464 4.94736336 -0.98120464 3.05263664 0 0 Z " fill="#656671" transform="translate(91,28)"/>
<path d="M0 0 C1.99954746 -0.04254356 4.00041636 -0.04080783 6 0 C7 1 7 1 7.09765625 3.06640625 C7.08605469 3.89011719 7.07445312 4.71382812 7.0625 5.5625 C7.05347656 6.38878906 7.04445313 7.21507812 7.03515625 8.06640625 C7.01775391 9.02353516 7.01775391 9.02353516 7 10 C6.67 10 6.34 10 6 10 C6 7.36 6 4.72 6 2 C4.68 2 3.36 2 2 2 C2 4.64 2 7.28 2 10 C1.34 10 0.68 10 0 10 C0 6.7 0 3.4 0 0 Z " fill="#2A2C3B" transform="translate(740,138)"/>
<path d="M0 0 C1.67542976 0.28604898 3.34385343 0.61781233 5 1 C5 1.99 5 2.98 5 4 C3.68 4 2.36 4 1 4 C1 4.66 1 5.32 1 6 C2.32 6.33 3.64 6.66 5 7 C3.34385343 7.38218767 1.67542976 7.71395102 0 8 C-1 7 -1 7 -1.125 4 C-1 1 -1 1 0 0 Z " fill="#CCC0F8" transform="translate(372,41)"/>
<path d="M0 0 C0.33 0.66 0.66 1.32 1 2 C1.99 2 2.98 2 4 2 C4 2.66 4 3.32 4 4 C4.66 4 5.32 4 6 4 C6 5.65 6 7.3 6 9 C5.38125 8.79375 4.7625 8.5875 4.125 8.375 C3.42375 8.25125 2.7225 8.1275 2 8 C1.34 8.66 0.68 9.32 0 10 C0 6.7 0 3.4 0 0 Z " fill="#434552" transform="translate(257,217)"/>
<path d="M0 0 C0.33 0 0.66 0 1 0 C1.05399736 1.45792884 1.09279177 2.91642712 1.125 4.375 C1.14820313 5.18710938 1.17140625 5.99921875 1.1953125 6.8359375 C1 9 1 9 -1 11 C-1.061875 10.38125 -1.12375 9.7625 -1.1875 9.125 C-1.828919 6.72238859 -1.828919 6.72238859 -4.5625 5.75 C-5.366875 5.5025 -6.17125 5.255 -7 5 C-7 4.34 -7 3.68 -7 3 C-5.5459375 2.814375 -5.5459375 2.814375 -4.0625 2.625 C-2.5465625 2.315625 -2.5465625 2.315625 -1 2 C-0.67 1.34 -0.34 0.68 0 0 Z " fill="#E7E7E9" transform="translate(225,213)"/>
<path d="M0 0 C1.32 0 2.64 0 4 0 C3.67 1.32 3.34 2.64 3 4 C2.34 4 1.68 4 1 4 C1 6.97 1 9.94 1 13 C0.34 13 -0.32 13 -1 13 C-1 10.03 -1 7.06 -1 4 C-1.66 3.67 -2.32 3.34 -3 3 C-2.34 3 -1.68 3 -1 3 C-0.67 2.01 -0.34 1.02 0 0 Z " fill="#444653" transform="translate(387,135)"/>
<path d="M0 0 C1.65 0.33 3.3 0.66 5 1 C5 3.31 5 5.62 5 8 C3.35 8 1.7 8 0 8 C-0.33 6.68 -0.66 5.36 -1 4 C0.32 3.67 1.64 3.34 3 3 C3 2.34 3 1.68 3 1 C2.01 0.67 1.02 0.34 0 0 Z " fill="#60616C" transform="translate(180,41)"/>
<path d="M0 0 C0.33 0 0.66 0 1 0 C1 3.63 1 7.26 1 11 C-0.65 11 -2.3 11 -4 11 C-5 10 -5 10 -5.0625 6.9375 C-5.041875 5.968125 -5.02125 4.99875 -5 4 C-4.34 4 -3.68 4 -3 4 C-3 5.65 -3 7.3 -3 9 C-2.34 9 -1.68 9 -1 9 C-0.67 6.03 -0.34 3.06 0 0 Z " fill="#2D2F3E" transform="translate(84,25)"/>
<path d="M0 0 C1.65 0.33 3.3 0.66 5 1 C5 3.31 5 5.62 5 8 C3.35 8 1.7 8 0 8 C-0.33 6.68 -0.66 5.36 -1 4 C0.32 3.67 1.64 3.34 3 3 C3 2.34 3 1.68 3 1 C2.01 0.67 1.02 0.34 0 0 Z " fill="#3E3F4D" transform="translate(72,28)"/>
<path d="M0 0 C1.66611905 -0.042721 3.33382885 -0.04063832 5 0 C6 1 6 1 6.0625 4.5625 C6.041875 5.696875 6.02125 6.83125 6 8 C5.34 8 4.68 8 4 8 C4 6.02 4 4.04 4 2 C3.34 2 2.68 2 2 2 C2 3.98 2 5.96 2 8 C1.34 8 0.68 8 0 8 C0 5.36 0 2.72 0 0 Z " fill="#292A3A" transform="translate(51,28)"/>
<path d="M0 0 C3.375 -0.125 3.375 -0.125 7 0 C9 2 9 2 9.125 5.125 C9.08375 6.07375 9.0425 7.0225 9 8 C8.34 8 7.68 8 7 8 C7 6.02 7 4.04 7 2 C4.03 2.66 1.06 3.32 -2 4 C-1.34 2.68 -0.68 1.36 0 0 Z " fill="#F2F2F3" transform="translate(455,138)"/>
<path d="M0 0 C2.97 0 5.94 0 9 0 C9 2.64 9 5.28 9 8 C8.67 8 8.34 8 8 8 C8 6.02 8 4.04 8 2 C7.01 2 6.02 2 5 2 C5 3.98 5 5.96 5 8 C4.67 8 4.34 8 4 8 C4 6.02 4 4.04 4 2 C3.01 2 2.02 2 1 2 C1 3.98 1 5.96 1 8 C0.67 8 0.34 8 0 8 C0 5.36 0 2.72 0 0 Z " fill="#E8E5FA" transform="translate(394,41)"/>
<path d="M0 0 C2.125 0.375 2.125 0.375 4 1 C4 1.99 4 2.98 4 4 C2.68 4 1.36 4 0 4 C0 4.66 0 5.32 0 6 C1.32 6 2.64 6 4 6 C4 6.66 4 7.32 4 8 C2.35 7.67 0.7 7.34 -1 7 C-1.625 4.625 -1.625 4.625 -2 2 C-1.34 1.34 -0.68 0.68 0 0 Z " fill="#D0C6F8" transform="translate(432,41)"/>
<path d="M0 0 C0.33 0 0.66 0 1 0 C1 4.62 1 9.24 1 14 C0.34 14 -0.32 14 -1 14 C-2.6875 11.625 -2.6875 11.625 -4 9 C-3 7 -3 7 -1 6 C-0.34227572 2.97065509 -0.34227572 2.97065509 0 0 Z " fill="#C2C3C7" transform="translate(176,213)"/>
<path d="M0 0 C2.0625 0.75 2.0625 0.75 4 2 C4.33 2.99 4.66 3.98 5 5 C2.125 5.625 2.125 5.625 -1 6 C-1.66 5.34 -2.32 4.68 -3 4 C-2.67 3.01 -2.34 2.02 -2 1 C-1.34 0.67 -0.68 0.34 0 0 Z " fill="#8F9098" transform="translate(352,142)"/>
<path d="M0 0 C0.66 0 1.32 0 2 0 C2 0.66 2 1.32 2 2 C2.66 2.33 3.32 2.66 4 3 C3.34 3 2.68 3 2 3 C2 5.31 2 7.62 2 10 C2.99 10 3.98 10 5 10 C5 10.66 5 11.32 5 12 C3.35 11.67 1.7 11.34 0 11 C-0.19491452 9.54263913 -0.38069358 8.08405407 -0.5625 6.625 C-0.66691406 5.81289062 -0.77132812 5.00078125 -0.87890625 4.1640625 C-1 2 -1 2 0 0 Z " fill="#353745" transform="translate(156,136)"/>
<path d="M0 0 C0.66 0 1.32 0 2 0 C2 0.99 2 1.98 2 3 C3.32 3.33 4.64 3.66 6 4 C6 5.65 6 7.3 6 9 C5.67 7.68 5.34 6.36 5 5 C4.01 5 3.02 5 2 5 C2 6.65 2 8.3 2 10 C1.01 10.495 1.01 10.495 0 11 C0 7.37 0 3.74 0 0 Z " fill="#DED8F9" transform="translate(447,38)"/>
<path d="M0 0 C0.66 0 1.32 0 2 0 C2 0.66 2 1.32 2 2 C2.66 2.33 3.32 2.66 4 3 C3.34 3 2.68 3 2 3 C2 5.31 2 7.62 2 10 C2.66 10 3.32 10 4 10 C4 10.66 4 11.32 4 12 C2.68 11.67 1.36 11.34 0 11 C0 8.36 0 5.72 0 3 C-0.66 2.67 -1.32 2.34 -2 2 C-1.34 2 -0.68 2 0 2 C0 1.34 0 0.68 0 0 Z " fill="#303240" transform="translate(189,136)"/>
<path d="M0 0 C0 0.33 0 0.66 0 1 C-1.423125 1.12375 -1.423125 1.12375 -2.875 1.25 C-6.10461791 1.65074923 -6.10461791 1.65074923 -7.375 4.0625 C-7.58125 4.701875 -7.7875 5.34125 -8 6 C-10.5 4.625 -10.5 4.625 -13 3 C-13 2.34 -13 1.68 -13 1 C-8.60563789 0.14256349 -4.47427924 -0.08948558 0 0 Z " fill="#ABACB2" transform="translate(789,142)"/>
<path d="M0 0 C1.32 0.33 2.64 0.66 4 1 C4 2.98 4 4.96 4 7 C2.68 7.33 1.36 7.66 0 8 C0 5.36 0 2.72 0 0 Z " fill="#F3F3F4" transform="translate(509,109)"/>
<path d="M0 0 C1.32 0 2.64 0 4 0 C4.33 2.31 4.66 4.62 5 7 C3.35 7.33 1.7 7.66 0 8 C-0.33 7.34 -0.66 6.68 -1 6 C-0.34 5.67 0.32 5.34 1 5 C0.67 3.35 0.34 1.7 0 0 Z " fill="#CEC3F8" transform="translate(379,41)"/>
<path d="M0 0 C0.99 0.33 1.98 0.66 3 1 C3 1.99 3 2.98 3 4 C1.68 4 0.36 4 -1 4 C-1 4.66 -1 5.32 -1 6 C0.32 6 1.64 6 3 6 C3 6.66 3 7.32 3 8 C1.35 8 -0.3 8 -2 8 C-2.33 5.69 -2.66 3.38 -3 1 C-2.34 1 -1.68 1 -1 1 C-1 1.66 -1 2.32 -1 3 C-0.34 3 0.32 3 1 3 C0.67 2.01 0.34 1.02 0 0 Z " fill="#D9D1F9" transform="translate(408,41)"/>
<path d="M0 0 C1.65 0.33 3.3 0.66 5 1 C5 1.66 5 2.32 5 3 C4.01 3.33 3.02 3.66 2 4 C1.67 5.65 1.34 7.3 1 9 C0.01 8.67 -0.98 8.34 -2 8 C-1.125 2.25 -1.125 2.25 0 0 Z " fill="#171929" transform="translate(155,213)"/>
<path d="M0 0 C1.2065625 0.0309375 1.2065625 0.0309375 2.4375 0.0625 C2.4375 2.0625 2.4375 4.0625 2.4375 6.0625 C1.1175 6.0625 -0.2025 6.0625 -1.5625 6.0625 C-1.8925 5.0725 -2.2225 4.0825 -2.5625 3.0625 C-3.5525 3.7225 -4.5425 4.3825 -5.5625 5.0625 C-3.15007962 0.07683121 -3.15007962 0.07683121 0 0 Z " fill="#6F707A" transform="translate(475.5625,105.9375)"/>
<path d="M0 0 C0.33 0 0.66 0 1 0 C1 1.98 1 3.96 1 6 C1.99 6 2.98 6 4 6 C4 4.02 4 2.04 4 0 C4.66 0 5.32 0 6 0 C6 2.64 6 5.28 6 8 C4.02 8 2.04 8 0 8 C0 5.36 0 2.72 0 0 Z " fill="#D7CEF9" transform="translate(386,41)"/>
<path d="M0 0 C1.32 0 2.64 0 4 0 C4 3.11257569 3.82638376 5.10765685 3 8 C1.68 8 0.36 8 -1 8 C-1 7.34 -1 6.68 -1 6 C-0.34 5.67 0.32 5.34 1 5 C0.34 4.67 -0.32 4.34 -1 4 C-0.67 2.68 -0.34 1.36 0 0 Z " fill="#393B49" transform="translate(99,28)"/>
<path d="M0 0 C1.32 0 2.64 0 4 0 C4 0.66 4 1.32 4 2 C2.68 2.33 1.36 2.66 0 3 C0 4.32 0 5.64 0 7 C1.32 7.33 2.64 7.66 4 8 C4 8.66 4 9.32 4 10 C2.33388095 10.042721 0.66617115 10.04063832 -1 10 C-2 9 -2 9 -2.1875 5.5625 C-2 2 -2 2 0 0 Z " fill="#3D3E4C" transform="translate(633,138)"/>
<path d="M0 0 C1.32 0 2.64 0 4 0 C4 0.66 4 1.32 4 2 C2.68 2.33 1.36 2.66 0 3 C0 4.32 0 5.64 0 7 C1.32 7.33 2.64 7.66 4 8 C4 8.66 4 9.32 4 10 C2.33388095 10.042721 0.66617115 10.04063832 -1 10 C-2 9 -2 9 -2.1875 5.5625 C-2 2 -2 2 0 0 Z " fill="#3D3E4C" transform="translate(519,138)"/>
<path d="M0 0 C1.32 0 2.64 0 4 0 C4 1.98 4 3.96 4 6 C2.35 5.67 0.7 5.34 -1 5 C-0.67 3.35 -0.34 1.7 0 0 Z " fill="#DCDDDF" transform="translate(603,140)"/>
<path d="M0 0 C0.66 0 1.32 0 2 0 C2 4.29 2 8.58 2 13 C1.01 12.67 0.02 12.34 -1 12 C-1.14285714 3.42857143 -1.14285714 3.42857143 0 0 Z " fill="#2E303E" transform="translate(446,135)"/>
<path d="M0 0 C1.66611905 -0.042721 3.33382885 -0.04063832 5 0 C6 1 6 1 6.0625 4.5625 C6.041875 5.696875 6.02125 6.83125 6 8 C5.67 8 5.34 8 5 8 C4.67 6.02 4.34 4.04 4 2 C3.67 2 3.34 2 3 2 C2.67 3.98 2.34 5.96 2 8 C1.34 8 0.68 8 0 8 C0 5.36 0 2.72 0 0 Z " fill="#474956" transform="translate(159,41)"/>
<path d="M0 0 C1.98 0.495 1.98 0.495 4 1 C4 2.65 4 4.3 4 6 C2.35 5.67 0.7 5.34 -1 5 C-0.67 3.35 -0.34 1.7 0 0 Z " fill="#EAEAEC" transform="translate(641,140)"/>
<path d="M0 0 C1.98 0.495 1.98 0.495 4 1 C4 2.65 4 4.3 4 6 C2.35 5.67 0.7 5.34 -1 5 C-0.67 3.35 -0.34 1.7 0 0 Z " fill="#EAEAEC" transform="translate(527,140)"/>
<path d="M0 0 C1.98 0 3.96 0 6 0 C5.67 0.66 5.34 1.32 5 2 C4.01 2 3.02 2 2 2 C2 4.64 2 7.28 2 10 C1.34 10 0.68 10 0 10 C0 6.7 0 3.4 0 0 Z " fill="#424351" transform="translate(760,138)"/>
<path d="M0 0 C1.65 0 3.3 0 5 0 C5 0.66 5 1.32 5 2 C4.01 2 3.02 2 2 2 C2 4.64 2 7.28 2 10 C1.34 10 0.68 10 0 10 C0 6.7 0 3.4 0 0 Z " fill="#3C3E4B" transform="translate(727,138)"/>
<path d="M0 0 C1.8125 1.25 1.8125 1.25 2.8125 3.25 C2.852492 5.24960012 2.85596799 7.25047242 2.8125 9.25 C1.8225 9.745 1.8225 9.745 0.8125 10.25 C0.4825 7.94 0.1525 5.63 -0.1875 3.25 C-2.1675 2.59 -4.1475 1.93 -6.1875 1.25 C-2.76721014 -0.94875776 -2.76721014 -0.94875776 0 0 Z " fill="#494A57" transform="translate(463.1875,136.75)"/>
<path d="M0 0 C0.33 2.64 0.66 5.28 1 8 C0.01 8 -0.98 8 -2 8 C-4 5 -4 5 -3.75 2.875 C-2.94753178 0.86882945 -2.31117637 0 0 0 Z " fill="#F6F6F7" transform="translate(591,139)"/>
<path d="M0 0 C0.598125 0.33 1.19625 0.66 1.8125 1 C4.05386471 2.20787988 4.05386471 2.20787988 7 2 C7.33 1.34 7.66 0.68 8 0 C8.66 0.33 9.32 0.66 10 1 C8.68 2.65 7.36 4.3 6 6 C3.37812506 4.95125002 2.20628639 4.35068687 0.75 1.875 C0.5025 1.25625 0.255 0.6375 0 0 Z " fill="#B1B2B8" transform="translate(272,42)"/>
<path d="M0 0 C2 3.75 2 3.75 2 6 C-0.97 5.505 -0.97 5.505 -4 5 C-3.6875 3.0625 -3.6875 3.0625 -3 1 C-2.01 0.67 -1.02 0.34 0 0 Z " fill="#85868F" transform="translate(200,142)"/>
<path d="M0 0 C1.32 0 2.64 0 4 0 C4 1.98 4 3.96 4 6 C2.68 6 1.36 6 0 6 C0 4.02 0 2.04 0 0 Z " fill="#F8F8F9" transform="translate(708,140)"/>
<path d="M0 0 C1.32 0 2.64 0 4 0 C4 1.98 4 3.96 4 6 C2.68 6 1.36 6 0 6 C0 4.02 0 2.04 0 0 Z " fill="#F8F8F9" transform="translate(393,140)"/>
<path d="M0 0 C0.66 0 1.32 0 2 0 C2 3.63 2 7.26 2 11 C1.01 10.67 0.02 10.34 -1 10 C-0.67 6.7 -0.34 3.4 0 0 Z " fill="#D1C7F8" transform="translate(443,38)"/>
<path d="M0 0 C0.99 0 1.98 0 3 0 C3 1.98 3 3.96 3 6 C1.35 5.67 -0.3 5.34 -2 5 C-1.125 1.125 -1.125 1.125 0 0 Z " fill="#646671" transform="translate(273,216)"/>
<path d="M0 0 C0.66 0 1.32 0 2 0 C2.33 3.63 2.66 7.26 3 11 C2.01 10.67 1.02 10.34 0 10 C0 6.7 0 3.4 0 0 Z " fill="#272938" transform="translate(59,25)"/>
<path d="M0 0 C1.67542976 0.28604898 3.34385343 0.61781233 5 1 C5.33 1.99 5.66 2.98 6 4 C4.02 4 2.04 4 0 4 C-0.33 3.01 -0.66 2.02 -1 1 C-0.67 0.67 -0.34 0.34 0 0 Z " fill="#83848C" transform="translate(819,138)"/>
<path d="M0 0 C1.65 0.33 3.3 0.66 5 1 C4.67 1.99 4.34 2.98 4 4 C2.02 4 0.04 4 -2 4 C-1.34 2.68 -0.68 1.36 0 0 Z " fill="#82838C" transform="translate(593,138)"/>
<path d="M0 0 C1.65 0.33 3.3 0.66 5 1 C4.67 1.99 4.34 2.98 4 4 C2.02 4 0.04 4 -2 4 C-1.34 2.68 -0.68 1.36 0 0 Z " fill="#82838C" transform="translate(212,138)"/>
<path d="M0 0 C1.65 0.33 3.3 0.66 5 1 C5 1.99 5 2.98 5 4 C3.35 4 1.7 4 0 4 C0 2.68 0 1.36 0 0 Z " fill="#82838C" transform="translate(803,138)"/>
<path d="M0 0 C0.99 0.33 1.98 0.66 3 1 C3 2.98 3 4.96 3 7 C2.01 7.33 1.02 7.66 0 8 C0 5.36 0 2.72 0 0 Z " fill="#F7F7F7" transform="translate(134,40)"/>
<path d="M0 0 C0.99 0.33 1.98 0.66 3 1 C2.67 3.97 2.34 6.94 2 10 C1.34 10 0.68 10 0 10 C0 6.7 0 3.4 0 0 Z " fill="#383A48" transform="translate(572,138)"/>
<path d="M0 0 C0.99 0.33 1.98 0.66 3 1 C2.67 3.97 2.34 6.94 2 10 C1.34 10 0.68 10 0 10 C0 6.7 0 3.4 0 0 Z " fill="#383A48" transform="translate(430,138)"/>
<path d="M0 0 C0.33 0.66 0.66 1.32 1 2 C1.66 2.33 2.32 2.66 3 3 C2.34 3 1.68 3 1 3 C1 5.31 1 7.62 1 10 C1.99 10 2.98 10 4 10 C4 10.66 4 11.32 4 12 C2.68 11.67 1.36 11.34 0 11 C0 8.36 0 5.72 0 3 C-0.66 2.67 -1.32 2.34 -2 2 C-1.34 2 -0.68 2 0 2 C0 1.34 0 0.68 0 0 Z " fill="#181A2A" transform="translate(205,136)"/>
<path d="M0 0 C0.66 0.33 1.32 0.66 2 1 C2 2.65 2 4.3 2 6 C1.01 6 0.02 6 -1 6 C-1 6.66 -1 7.32 -1 8 C-1.66 8 -2.32 8 -3 8 C-2.74438677 5.6568787 -2.40729228 3.32156597 -2 1 C-1.34 0.67 -0.68 0.34 0 0 Z " fill="#AC97F6" transform="translate(325,41)"/>
<path d="M0 0 C1.32 1.65 2.64 3.3 4 5 C0.62182575 5.84454356 -1.67465243 6.10844919 -5 5 C-5 4.34 -5 3.68 -5 3 C-4.360625 2.87625 -3.72125 2.7525 -3.0625 2.625 C-2.0415625 2.315625 -2.0415625 2.315625 -1 2 C-0.67 1.34 -0.34 0.68 0 0 Z " fill="#5D2EEF" transform="translate(378,42)"/>
<path d="M0 0 C0.99 0.33 1.98 0.66 3 1 C2.67 2.65 2.34 4.3 2 6 C1.01 5.67 0.02 5.34 -1 5 C-0.67 3.35 -0.34 1.7 0 0 Z " fill="#E0E0E2" transform="translate(333,137)"/>
<path d="M0 0 C0.99 0 1.98 0 3 0 C3.33 1.65 3.66 3.3 4 5 C2.35 5.33 0.7 5.66 -1 6 C-0.67 4.02 -0.34 2.04 0 0 Z " fill="#9072F3" transform="translate(449,43)"/>
<path d="M0 0 C0.99 0.33 1.98 0.66 3 1 C2.67 2.65 2.34 4.3 2 6 C1.01 5.67 0.02 5.34 -1 5 C-0.67 3.35 -0.34 1.7 0 0 Z " fill="#D7D7DA" transform="translate(189,42)"/>
<path d="M0 0 C0.66 0 1.32 0 2 0 C2 0.99 2 1.98 2 3 C2.99 3.33 3.98 3.66 5 4 C4.01 4.33 3.02 4.66 2 5 C2 5.66 2 6.32 2 7 C1.01 6.67 0.02 6.34 -1 6 C-0.67 4.02 -0.34 2.04 0 0 Z " fill="#CFCFD2" transform="translate(96,29)"/>
<path d="M0 0 C1.32 0.33 2.64 0.66 4 1 C4 2.32 4 3.64 4 5 C2.68 5 1.36 5 0 5 C0 3.35 0 1.7 0 0 Z " fill="#E0E1E3" transform="translate(241,137)"/>
<path d="M0 0 C1.125 3.75 1.125 3.75 0 6 C-1.65 6 -3.3 6 -5 6 C-5 5.01 -5 4.02 -5 3 C-3.35 3 -1.7 3 0 3 C0 2.01 0 1.02 0 0 Z " fill="#D3D4D7" transform="translate(598,140)"/>
<path d="M0 0 C1.125 3.75 1.125 3.75 0 6 C-1.65 6 -3.3 6 -5 6 C-5 5.01 -5 4.02 -5 3 C-3.35 3 -1.7 3 0 3 C0 2.01 0 1.02 0 0 Z " fill="#D3D4D7" transform="translate(217,140)"/>
<path d="M0 0 C1.32 0 2.64 0 4 0 C3.67 1.65 3.34 3.3 3 5 C2.01 4.67 1.02 4.34 0 4 C0 2.68 0 1.36 0 0 Z " fill="#E3E3E5" transform="translate(295,138)"/>
<path d="M0 0 C1.32 0 2.64 0 4 0 C3.67 1.65 3.34 3.3 3 5 C2.01 4.67 1.02 4.34 0 4 C0 2.68 0 1.36 0 0 Z " fill="#E3E3E5" transform="translate(267,138)"/>
<path d="M0 0 C2.475 0.495 2.475 0.495 5 1 C5 2.98 5 4.96 5 7 C4.34 6.67 3.68 6.34 3 6 C3.33 5.34 3.66 4.68 4 4 C2.68 3.34 1.36 2.68 0 2 C0 1.34 0 0.68 0 0 Z " fill="#DDD7F9" transform="translate(455,41)"/>
<path d="M0 0 C0.99 0 1.98 0 3 0 C3 2.31 3 4.62 3 7 C1.35 5.35 -0.3 3.7 -2 2 C-1.34 2 -0.68 2 0 2 C0 1.34 0 0.68 0 0 Z " fill="#7047F0" transform="translate(383,41)"/>
<path d="M0 0 C0.66 0.33 1.32 0.66 2 1 C1.67 3.31 1.34 5.62 1 8 C0.01 8 -0.98 8 -2 8 C-2.33 6.68 -2.66 5.36 -3 4 C-2.01 4 -1.02 4 0 4 C0 2.68 0 1.36 0 0 Z " fill="#303241" transform="translate(48,28)"/>
<path d="M0 0 C2.475 0.495 2.475 0.495 5 1 C5 2.98 5 4.96 5 7 C4.34 6.67 3.68 6.34 3 6 C3.33 5.34 3.66 4.68 4 4 C2.68 3.34 1.36 2.68 0 2 C0 1.34 0 0.68 0 0 Z " fill="#282A39" transform="translate(91,28)"/>
<path d="M0 0 C0.99 0 1.98 0 3 0 C3 1.65 3 3.3 3 5 C2.01 5.33 1.02 5.66 0 6 C0 4.02 0 2.04 0 0 Z " fill="#EAEAEB" transform="translate(457,141)"/>
<path d="M0 0 C2.31 0 4.62 0 7 0 C6.01 0.495 6.01 0.495 5 1 C5 1.66 5 2.32 5 3 C3.35 3 1.7 3 0 3 C0 2.01 0 1.02 0 0 Z " fill="#232535" transform="translate(444,106)"/>
<path d="M0 0 C0.99 0 1.98 0 3 0 C3 1.65 3 3.3 3 5 C2.01 5.33 1.02 5.66 0 6 C0 4.02 0 2.04 0 0 Z " fill="#F0F1F2" transform="translate(26,28)"/>
</svg>
