<?xml version="1.0" encoding="UTF-8"?>
<svg version="1.1" xmlns="http://www.w3.org/2000/svg" width="1919" height="955">
<path d="M0 0 C633.27 0 1266.54 0 1919 0 C1919 315.15 1919 630.3 1919 955 C1285.73 955 652.46 955 0 955 C0 639.85 0 324.7 0 0 Z " fill="#FEFEFE" transform="translate(0,0)"/>
<path d="M0 0 C0.66273698 -0.0072672 1.32547395 -0.01453441 2.00829387 -0.02202183 C4.23326876 -0.04029743 6.45652522 -0.02290728 8.68148804 -0.00571251 C10.29092097 -0.01147276 11.90034733 -0.01941323 13.5097599 -0.02934873 C17.93560237 -0.05025878 22.36090712 -0.03988816 26.78675175 -0.02441764 C31.55848431 -0.013125 36.3301231 -0.03055645 41.10183716 -0.04431725 C50.45088271 -0.06657652 59.79972782 -0.06173649 69.1487813 -0.04725404 C76.74541402 -0.03597237 84.34199047 -0.03442625 91.93862915 -0.03987312 C93.01889897 -0.04063929 94.09916879 -0.04140545 95.21217406 -0.04219484 C97.40656775 -0.04379343 99.60096142 -0.04541449 101.79535508 -0.04705779 C122.38304282 -0.06132318 142.97061932 -0.04491018 163.55828881 -0.01805596 C181.23206068 0.00428351 198.90566835 0.00040361 216.57943726 -0.02264977 C237.09232221 -0.04939382 257.60510962 -0.0599498 278.11800957 -0.04458845 C280.3044319 -0.04299566 282.49085425 -0.04142381 284.67727661 -0.03987312 C285.75310112 -0.03910175 286.82892562 -0.03833037 287.93735087 -0.03753562 C295.52683068 -0.03321443 303.11624874 -0.04051418 310.70571899 -0.05227089 C319.95196841 -0.06627893 329.19800553 -0.06253167 338.44423056 -0.03586717 C343.16387463 -0.02270614 347.88316446 -0.01761544 352.60280609 -0.03411293 C356.92077029 -0.04897834 361.23805089 -0.04088117 365.55595279 -0.01422517 C367.12047801 -0.00862565 368.68506062 -0.01151356 370.24954915 -0.02360411 C372.37249529 -0.03875588 374.49308383 -0.02327768 376.61590576 0 C377.79602423 0.00081176 378.97614269 0.00162352 380.19202232 0.00245988 C384.3538041 0.83957075 385.81020083 2.23048023 388.30795288 5.6292057 C388.93354803 8.79117113 388.93354803 8.79117113 388.93436527 12.43336773 C388.94133288 13.10822292 388.94830049 13.78307811 388.95547923 14.47838345 C388.97275394 16.74457148 388.95434427 19.00905658 388.93614197 21.27521706 C388.94118607 22.91423521 388.94841384 24.55324786 388.95764011 26.19224781 C388.97660875 30.69983815 388.96430284 35.20688765 388.94691718 39.71446455 C388.93357084 44.57410539 388.94897038 49.43366565 388.96073914 54.29329872 C388.97914012 63.8144698 388.97058718 73.33543597 388.95265091 82.85660071 C388.93863903 90.59244673 388.93472907 98.32823704 388.93809319 106.06409454 C388.93857063 107.16408061 388.93904807 108.26406669 388.93953998 109.39738567 C388.94056628 111.63180409 388.94162164 113.86622249 388.94270574 116.10064089 C388.95127768 135.8682602 388.93458133 155.63578042 388.90487671 175.40337563 C388.87603422 194.59742838 388.86895699 213.79133839 388.8843689 232.98540688 C388.90111812 253.87366667 388.90517863 274.76185865 388.88765854 295.6501202 C388.88581409 297.87612433 388.88397937 300.10212848 388.88215446 302.32813263 C388.88124237 303.42344662 388.88033029 304.51876061 388.87939056 305.64726593 C388.8737775 313.37696569 388.87709946 321.10663243 388.88369942 328.83633041 C388.8914193 338.25166774 388.8847285 347.66686439 388.85952438 357.0821733 C388.8469985 361.88873134 388.84092011 366.69507001 388.85206604 371.50163651 C388.86206805 375.89779835 388.85373566 380.29352167 388.83048486 384.6896299 C388.82530299 386.28374632 388.82692777 387.87790168 388.83587951 389.47200138 C388.84700505 391.63216041 388.83372054 393.7908185 388.81411076 395.95088482 C388.81291927 397.15264734 388.81172779 398.35440987 388.8105002 399.59258944 C388.30795288 402.6292057 388.30795288 402.6292057 386.68900722 405.01496589 C383.5336394 407.15415283 381.50739636 407.13154712 377.70492554 407.13536358 C377.03966606 407.14147694 376.37440659 407.1475903 375.68898773 407.15388891 C373.44964073 407.16954602 371.21136799 407.15660089 368.97201538 407.1438694 C367.35448573 407.14919216 365.73696103 407.15625628 364.1194458 407.16491646 C359.66668306 407.18360657 355.21425145 407.17721703 350.76147461 407.16676342 C345.96248442 407.15978945 341.16356351 407.17575556 336.36459351 407.18876076 C326.96029628 407.21043592 317.55611989 407.21026493 308.15180588 407.20213521 C300.51080912 407.19584317 292.86984769 407.19696492 285.22885132 407.20340729 C283.59948419 407.20475977 283.59948419 407.20475977 281.93720055 407.20613958 C279.7307256 407.20799072 277.52425066 407.20985328 275.31777573 407.21172713 C254.61282614 407.2283177 233.90794462 407.21957554 213.20299911 407.20274156 C194.24604049 407.18804181 175.28924031 407.20267468 156.33230209 407.23151172 C136.88236538 407.26087913 117.43250187 407.27188587 97.98254395 407.26232952 C95.78404746 407.26130693 93.58555096 407.26031232 91.38705444 407.25934601 C89.76437181 407.25863142 89.76437181 407.25863142 88.1089077 407.2579024 C80.47438162 407.25573485 72.83992458 407.2655604 65.20541382 407.28011703 C55.90532162 407.29760156 46.60543155 407.29757889 37.30534744 407.27476538 C32.55747551 407.26358808 27.8099602 407.26053923 23.06210327 407.27906609 C18.71948991 407.29579403 14.37754631 407.2896252 10.03497696 407.2648493 C8.46034159 407.25994018 6.88565298 407.26355148 5.31106186 407.27633674 C3.17688425 407.29242111 1.04505022 407.27796932 -1.08901978 407.2556181 C-2.27613556 407.25534841 -3.46325134 407.25507872 -4.68634033 407.25480086 C-7.69204712 406.6292057 -7.69204712 406.6292057 -10.07310146 404.51416439 C-12.03342961 401.02086262 -12.19423152 398.83981448 -12.19820499 394.84345436 C-12.20431835 394.17058714 -12.21043171 393.49771992 -12.21673033 392.80446279 C-12.23235584 390.54524946 -12.21945497 388.28710576 -12.20671082 386.02788734 C-12.21203492 384.3937082 -12.21909982 382.75953395 -12.22775787 381.12536907 C-12.2464301 376.63119081 -12.24006454 372.13734105 -12.22960484 367.6431489 C-12.22262584 362.797804 -12.23860082 357.95252746 -12.25160217 353.10720253 C-12.27326882 343.61380596 -12.27310852 334.12052914 -12.26497663 324.62711596 C-12.25868268 316.91321132 -12.2598081 309.19934166 -12.2662487 301.48543739 C-12.26715036 300.38851541 -12.26805201 299.29159342 -12.26898099 298.16143137 C-12.27083215 295.93321569 -12.27269471 293.70500001 -12.27456855 291.47678435 C-12.29115614 270.5715052 -12.28241947 249.6662935 -12.26558297 228.7610184 C-12.25088336 209.62373673 -12.26551642 190.48661202 -12.29435313 171.34935057 C-12.32372562 151.71066547 -12.3347258 132.07205286 -12.32517093 112.43334675 C-12.32414835 110.21322252 -12.32315375 107.99309827 -12.32218742 105.77297401 C-12.32171103 104.68056485 -12.32123464 103.58815568 -12.32074382 102.46264321 C-12.31857695 94.75593931 -12.32839821 87.04930384 -12.34295845 79.34261513 C-12.36044921 69.95364378 -12.36041125 60.56487264 -12.3376068 51.17590928 C-12.32643525 46.38335181 -12.32336781 41.59114751 -12.3419075 36.79860497 C-12.35865107 32.41403874 -12.35244504 28.03013539 -12.32769071 23.6456126 C-12.3227868 22.05685748 -12.32637896 20.46804951 -12.33917815 18.87933838 C-12.35529541 16.72373944 -12.34077986 14.57045071 -12.31845951 12.41495705 C-12.31805498 10.61743948 -12.31805498 10.61743948 -12.31764227 8.78360844 C-10.93865758 1.83043262 -6.60346395 0.00454229 0 0 Z " fill="#FDFDFE" transform="translate(770.6920471191406,298.37079429626465)"/>
<path d="M0 0 C633.27 0 1266.54 0 1919 0 C1919 22.11 1919 44.22 1919 67 C1285.73 67 652.46 67 0 67 C0 44.89 0 22.78 0 0 Z " fill="#EFF4F8" transform="translate(0,0)"/>
<path d="M0 0 C0.66525948 -0.00581376 1.33051895 -0.01162753 2.01593781 -0.01761746 C4.25529344 -0.03226843 6.49356169 -0.01830973 8.73291016 -0.00457001 C10.35043907 -0.00917694 11.9679638 -0.01552846 13.58547974 -0.02347898 C18.03825017 -0.04022408 22.49067903 -0.03190255 26.94345093 -0.01953411 C31.74243521 -0.01050705 36.54135955 -0.02444167 41.34033203 -0.0354538 C50.74463538 -0.05326873 60.14881125 -0.04938581 69.55311966 -0.03780323 C77.19411518 -0.02878086 84.8350749 -0.02753972 92.47607422 -0.0318985 C93.56231897 -0.03251143 94.64856373 -0.03312436 95.76772499 -0.03375587 C97.97419994 -0.03503473 100.18067488 -0.03633158 102.38714981 -0.03764623 C123.0921028 -0.04906074 143.79698503 -0.03592467 164.50192642 -0.01444477 C182.27947728 0.00342699 200.05692368 0.00032313 217.83447266 -0.01811981 C238.46379314 -0.03951115 259.09305156 -0.04796203 279.72238159 -0.03567076 C281.92087808 -0.03439652 284.11937458 -0.03313904 286.31787109 -0.0318985 C287.94055373 -0.03097285 287.94055373 -0.03097285 289.59601784 -0.03002849 C297.23053091 -0.02657038 304.86500472 -0.03241386 312.49951172 -0.04181671 C321.79958405 -0.05301879 331.0995213 -0.05003443 340.39957809 -0.02869374 C345.14740182 -0.01815915 349.89500006 -0.01410235 354.64282227 -0.02729034 C358.9853561 -0.03917042 363.3274545 -0.03272466 367.66994858 -0.01138014 C369.24458254 -0.00689537 370.81925296 -0.00922212 372.39386368 -0.01888329 C374.52775375 -0.03097616 376.6601352 -0.01864756 378.79394531 0 C379.9810611 0.00064941 381.16817688 0.00129882 382.39126587 0.00196791 C386.03125542 0.60917237 387.21543213 1.57174414 389.39697266 4.50336456 C389.91455078 7.83148956 389.91455078 7.83148956 389.92822266 11.75336456 C389.93204956 12.44849152 389.93587646 13.14361847 389.93981934 13.85980988 C389.94253445 15.32564497 389.93520101 16.79152884 389.91845703 18.25727081 C389.89703684 20.49665431 389.91826708 22.73283043 389.94384766 24.97211456 C389.9412043 26.39920495 389.93607916 27.82629335 389.92822266 29.25336456 C389.92371094 30.54758331 389.91919922 31.84180206 389.91455078 33.17523956 C389.29517319 37.15795431 388.55580653 38.08354973 385.39697266 40.50336456 C382.39126587 41.00476122 382.39126587 41.00476122 378.79394531 41.00672913 C378.12868584 41.01254289 377.46342636 41.01835665 376.77800751 41.02434659 C374.53865187 41.03899756 372.30038363 41.02503886 370.06103516 41.01129913 C368.44350624 41.01590607 366.82598151 41.02225759 365.20846558 41.03020811 C360.75569514 41.04695321 356.30326628 41.03863168 351.85049438 41.02626324 C347.05151011 41.01723618 342.25258576 41.03117079 337.45361328 41.04218292 C328.04930993 41.05999785 318.64513406 41.05611494 309.24082565 41.04453236 C301.59983013 41.03550999 293.95887041 41.03426885 286.31787109 41.03862762 C285.23162634 41.03924056 284.14538158 41.03985349 283.02622032 41.04048499 C280.81974537 41.04176386 278.61327043 41.04306071 276.4067955 41.04437536 C255.70184251 41.05578987 234.99696028 41.0426538 214.29201889 41.02117389 C196.51446803 41.00330213 178.73702163 41.006406 160.95947266 41.02484894 C140.33015217 41.04624027 119.70089375 41.05469115 99.07156372 41.04239988 C96.87306723 41.04112565 94.67457073 41.03986816 92.47607422 41.03862762 C91.39428579 41.03801052 90.31249737 41.03739342 89.19792747 41.03675762 C81.5634144 41.0332995 73.92894059 41.03914299 66.29443359 41.04854584 C56.99436126 41.05974792 47.69442402 41.05676356 38.39436722 41.03542286 C33.64654349 41.02488828 28.89894526 41.02083147 24.15112305 41.03401947 C19.80858921 41.04589954 15.46649081 41.03945378 11.12399673 41.01810926 C9.54936277 41.0136245 7.97469235 41.01595125 6.40008163 41.02561241 C4.26619157 41.03770528 2.13381011 41.02537669 0 41.00672913 C-1.18711578 41.00607972 -2.37423157 41.00543031 -3.59732056 41.00476122 C-7.23731011 40.39755675 -8.42148682 39.43498498 -10.60302734 36.50336456 C-11.12060547 33.17523956 -11.12060547 33.17523956 -11.13427734 29.25336456 C-11.13810425 28.55823761 -11.14193115 27.86311066 -11.14587402 27.14691925 C-11.14858914 25.68108416 -11.1412557 24.21520029 -11.12451172 22.74945831 C-11.10309153 20.51007481 -11.12432177 18.2738987 -11.14990234 16.03461456 C-11.14725899 14.60752417 -11.14213384 13.18043577 -11.13427734 11.75336456 C-11.12976563 10.45914581 -11.12525391 9.16492706 -11.12060547 7.83148956 C-10.07664813 1.11864693 -6.28980862 0.00344083 0 0 Z " fill="#F4F7FA" transform="translate(769.60302734375,250.49663543701172)"/>
<path d="M0 0 C1.79746655 -0.01173486 1.79746655 -0.01173486 3.63124555 -0.02370679 C4.9677401 -0.01722006 6.3042333 -0.01045006 7.64072514 -0.00342751 C9.05527374 -0.00688219 10.46981965 -0.01164547 11.8843599 -0.01760924 C15.78067201 -0.03017526 19.67676472 -0.02392356 23.5730778 -0.01465058 C27.77152021 -0.00788319 31.96992399 -0.01832985 36.1683588 -0.02659035 C44.39701686 -0.03995499 52.62559299 -0.03703772 60.8542543 -0.02835242 C67.54036893 -0.02158654 74.22646055 -0.0206544 80.91257763 -0.02392387 C81.86296517 -0.02438357 82.81335272 -0.02484327 83.79253988 -0.0253169 C85.72304336 -0.02627605 87.65354684 -0.02724869 89.58405031 -0.02823468 C107.70184452 -0.03679669 125.81959326 -0.02694197 143.93738002 -0.01083358 C159.49257567 0.00256818 175.04770416 0.00024425 190.6028986 -0.01358986 C208.65281867 -0.02963508 226.70269884 -0.03597036 244.75262505 -0.02675307 C246.67646666 -0.02579739 248.60030827 -0.02485428 250.52414989 -0.02392387 C251.94411291 -0.02322963 251.94411291 -0.02322963 253.39276205 -0.02252137 C260.07246631 -0.01992814 266.75214531 -0.02430968 273.43184566 -0.03136253 C281.56994409 -0.03976609 289.70795567 -0.03752164 297.84604412 -0.0215203 C302.00043077 -0.01362179 306.15467252 -0.01057273 310.30905819 -0.02046776 C314.10940137 -0.02938277 317.90946482 -0.02453494 321.70978249 -0.0085351 C323.0872756 -0.00517366 324.46479217 -0.00691185 325.84227031 -0.01416247 C327.70973149 -0.02324096 329.57725853 -0.01216524 331.44470215 0 C332.48350964 0.00048706 333.52231712 0.00097411 334.59260362 0.00147593 C337.70421606 0.43603156 339.08397762 1.15544642 341.28527164 3.37752342 C341.69211976 5.97655365 341.84685608 8.1493448 341.81652164 10.74861717 C341.82034855 11.46735512 341.82417545 12.18609306 341.82811832 12.92661095 C341.830838 14.44550033 341.82347262 15.96443649 341.80675602 17.48323631 C341.78537428 19.80388426 341.80653513 22.12142588 341.83214664 24.44197655 C341.82950276 25.9191969 341.82437652 27.39641533 341.81652164 28.87361717 C341.82461857 29.56539558 341.83271549 30.257174 341.84105778 30.96991539 C341.77966921 34.13802156 341.56368287 36.01295557 339.61795861 38.56080008 C336.68085424 40.84825063 335.14076076 40.8785774 331.44470215 40.88088799 C329.64332398 40.89653447 329.64332398 40.89653447 327.80555433 40.91249704 C326.47131198 40.90384865 325.13707203 40.89482201 323.80283451 40.88545799 C322.38670731 40.89006562 320.97058489 40.89641761 319.55447251 40.90436697 C315.65843225 40.9211025 311.76278269 40.91279502 307.86674082 40.9004221 C303.66695992 40.89139117 299.46724733 40.90533151 295.2674799 40.91634178 C287.03860563 40.93415213 278.80987708 40.93027599 270.58099704 40.91869122 C263.89536913 40.90966765 257.20978214 40.90842822 250.52414989 40.91278648 C249.57360912 40.91339942 248.62306834 40.91401235 247.6437233 40.91464385 C245.71289561 40.91592272 243.78206794 40.91721957 241.85124028 40.91853422 C223.73536578 40.92994723 205.61957217 40.9168147 187.50371093 40.89533275 C171.94819131 40.87745824 156.39279107 40.8805674 140.8372736 40.8990078 C122.78588219 40.92039684 104.73456172 40.92885156 86.68315941 40.91655874 C84.75963216 40.9152845 82.8361049 40.91402702 80.91257763 40.91278648 C79.96608989 40.91216938 79.01960216 40.91155228 78.04443298 40.91091648 C71.36373882 40.90745788 64.68308952 40.91330281 58.00240231 40.9227047 C49.86537234 40.93390412 41.72849679 40.93092801 33.5914846 40.90958172 C29.43717703 40.89904389 25.28312724 40.89499568 21.12882137 40.90817833 C17.32972462 40.92005182 13.53112585 40.91362409 9.73207463 40.89226812 C8.35395846 40.88778052 6.97580067 40.89011643 5.59771102 40.89977127 C3.7318358 40.91184608 1.8658436 40.89712967 0 40.88088799 C-1.03864513 40.88023858 -2.07729027 40.87958917 -3.1474095 40.87892008 C-5.71472836 40.37752342 -5.71472836 40.37752342 -7.5476374 38.56080008 C-9.23596586 35.40244461 -9.14383868 32.36775057 -9.11316586 28.87361717 C-9.11603603 28.1539225 -9.11890621 27.43422783 -9.12186337 26.69272423 C-9.12389981 25.17562126 -9.11839922 23.6584918 -9.10584164 22.14143944 C-9.08975692 19.81914769 -9.10571489 17.49858993 -9.12488461 15.17635155 C-9.12290256 13.70043625 -9.11905967 12.22452203 -9.11316586 10.74861717 C-9.11923855 10.05481453 -9.12531124 9.36101189 -9.13156796 8.64618492 C-9.06193901 3.87823374 -9.06193901 3.87823374 -7.5476374 1.69446886 C-4.97414237 -0.15458772 -3.15511765 0.00147954 0 0 Z " fill="#4914EE" transform="translate(792.7147283554077,639.6224765777588)"/>
<path d="M0 0 C1.05903534 -0.00788544 1.05903534 -0.00788544 2.13946533 -0.01593018 C4.47414249 -0.02913753 6.80813812 -0.02038903 9.14282227 -0.01025391 C10.76563142 -0.01227467 12.38843969 -0.01518613 14.01124573 -0.01895142 C17.41334677 -0.02337594 20.81521157 -0.01694059 24.21728516 -0.00292969 C28.57657687 0.01414883 32.93531394 0.00433056 37.29458523 -0.01364708 C40.64634878 -0.02449319 43.99798109 -0.02103458 47.34974861 -0.0132637 C48.95690031 -0.01126327 50.56406395 -0.01371549 52.17120171 -0.02070236 C54.41914238 -0.02832913 56.66618838 -0.01669593 58.9140625 0 C60.1929686 0.00238678 61.47187469 0.00477356 62.78953552 0.00723267 C66.22613605 0.41227536 67.66225029 0.88864967 70.02172852 3.38818359 C70.42857664 5.98721382 70.58331295 8.16000497 70.55297852 10.75927734 C70.55871887 11.83738426 70.55871887 11.83738426 70.5645752 12.93727112 C70.56729487 14.4561605 70.55992949 15.97509666 70.54321289 17.49389648 C70.52183115 19.81454443 70.542992 22.13208605 70.56860352 24.45263672 C70.56595963 25.92985708 70.56083339 27.4070755 70.55297852 28.88427734 C70.56107544 29.57605576 70.56917236 30.26783417 70.57751465 30.98057556 C70.51715982 34.09533295 70.28584943 36.02522955 68.43360901 38.5705719 C65.15241314 41.04330635 63.00117169 40.89559154 58.9140625 40.90576172 C58.20628662 40.912771 57.49851074 40.91978027 56.76928711 40.92700195 C54.43506377 40.9445752 52.10205742 40.93296407 49.76782227 40.91943359 C48.14404569 40.92212843 46.52027069 40.92601078 44.89649963 40.93103027 C41.49611014 40.93692411 38.09614133 40.92836532 34.69580078 40.90966797 C30.33517004 40.88685983 25.97552303 40.90001327 21.61492825 40.92395782 C18.26317413 40.93840368 14.91165376 40.93381582 11.55989265 40.92344666 C9.95191392 40.92077693 8.34391402 40.92405779 6.73596001 40.93336487 C4.49006695 40.94351315 2.24577371 40.92805736 0 40.90576172 C-1.2781105 40.90257935 -2.55622101 40.89939697 -3.87306213 40.89611816 C-6.97827148 40.38818359 -6.97827148 40.38818359 -8.89015198 38.5705719 C-10.4711698 35.39960145 -10.4071318 32.34992998 -10.37670898 28.88427734 C-10.37957916 28.16458267 -10.38244934 27.444888 -10.38540649 26.7033844 C-10.38744294 25.18628144 -10.38194235 23.66915197 -10.36938477 22.15209961 C-10.35330005 19.82980786 -10.36925802 17.5092501 -10.38842773 15.18701172 C-10.38644569 13.71109642 -10.3826028 12.2351822 -10.37670898 10.75927734 C-10.38278168 10.0654747 -10.38885437 9.37167206 -10.39511108 8.65684509 C-10.32602191 3.92585547 -10.32602191 3.92585547 -8.89015198 1.70579529 C-5.97762447 -0.30143284 -3.50719363 0.00654943 0 0 Z " fill="#4D19EE" transform="translate(1752.978271484375,11.61181640625)"/>
<path d="M0 0 C2.97 0 5.94 0 9 0 C12 3 12 3 12.375 6.4375 C11.99097007 10.08578434 11.71467367 11.57618422 9 14 C7.68 14 6.36 14 5 14 C4.67 15.65 4.34 17.3 4 19 C2.68 19 1.36 19 0 19 C0 12.73 0 6.46 0 0 Z " fill="#242635" transform="translate(986,330)"/>
<path d="M0 0 C-0.11409593 1.45922693 -0.24165544 2.91740598 -0.375 4.375 C-0.44460938 5.18710937 -0.51421875 5.99921875 -0.5859375 6.8359375 C-1 9 -1 9 -3 11 C-5.625 11.125 -5.625 11.125 -8 11 C-8 11.66 -8 12.32 -8 13 C-5.69 13 -3.38 13 -1 13 C-0.67 14.65 -0.34 16.3 0 18 C-3.6441774 20.4294516 -5.71241272 20.16179575 -10 20 C-10.66 18.68 -11.32 17.36 -12 16 C-9.36 16.33 -6.72 16.66 -4 17 C-3.67 16.34 -3.34 15.68 -3 15 C-4.98 15 -6.96 15 -9 15 C-10.58177926 10.84782943 -11.40478458 7.45263035 -11 3 C-7.88866897 -0.11133103 -4.26881718 0 0 0 Z " fill="#101223" transform="translate(951,329)"/>
<path d="M0 0 C0.78375 0.165 1.5675 0.33 2.375 0.5 C5.21655935 1.0412494 6.84022698 1.02972521 9.6875 0.5 C13.17257334 -0.02604881 16.48086574 -0.07038269 20 0 C19.67 0.66 19.34 1.32 19 2 C18.34 1.67 17.68 1.34 17 1 C17 1.99 17 2.98 17 4 C18.32 4.33 19.64 4.66 21 5 C20.67 6.32 20.34 7.64 20 9 C3.5 9 3.5 9 -1 8 C-0.67 6.68 -0.34 5.36 0 4 C1.32 4 2.64 4 4 4 C3.04134491 1.66924071 3.04134491 1.66924071 0 0 Z " fill="#8C8D95" transform="translate(855,548)"/>
<path d="M0 0 C1.32 0 2.64 0 4 0 C4.33 4.29 4.66 8.58 5 13 C6.32 13.33 7.64 13.66 9 14 C9 9.38 9 4.76 9 0 C10.32 0 11.64 0 13 0 C13.08126087 2.08268593 13.13930839 4.16628658 13.1875 6.25 C13.22230469 7.41015625 13.25710938 8.5703125 13.29296875 9.765625 C12.97670529 13.25717355 12.53062701 14.6141457 10 17 C6.5 17.5 6.5 17.5 3 17 C0.46937299 14.6141457 0.02329471 13.25717355 -0.29296875 9.765625 C-0.24076172 8.02539062 -0.24076172 8.02539062 -0.1875 6.25 C-0.16042969 5.07953125 -0.13335938 3.9090625 -0.10546875 2.703125 C-0.07066406 1.81109375 -0.03585937 0.9190625 0 0 Z " fill="#242635" transform="translate(971,327)"/>
<path d="M0 0 C3.0625 0.3125 3.0625 0.3125 4.9375 1.8125 C5.30875 2.3075 5.68 2.8025 6.0625 3.3125 C2.77273192 4.40908936 1.34946233 4.11203138 -1.9375 3.3125 C-1.9375 4.3025 -1.9375 5.2925 -1.9375 6.3125 C-0.2359375 6.7765625 -0.2359375 6.7765625 1.5 7.25 C5.0625 8.3125 5.0625 8.3125 6.0625 9.3125 C6.3125 12.25 6.3125 12.25 6.0625 15.3125 C2.38253497 17.76581002 0.40836828 17.70757893 -3.9375 17.3125 C-4.5975 16.3225 -5.2575 15.3325 -5.9375 14.3125 C-3.00925348 13.33641783 -0.98136724 13.23023332 2.0625 13.3125 C2.0625 12.6525 2.0625 11.9925 2.0625 11.3125 C1.093125 10.838125 0.12375 10.36375 -0.875 9.875 C-3.9375 8.3125 -3.9375 8.3125 -4.9375 7.3125 C-5.125 4.875 -5.125 4.875 -4.9375 2.3125 C-2.9375 0.3125 -2.9375 0.3125 0 0 Z " fill="#191B2B" transform="translate(925.9375,326.6875)"/>
<path d="M0 0 C2.5 0.3125 2.5 0.3125 5 1 C5.33 1.66 5.66 2.32 6 3 C6.66 2.01 7.32 1.02 8 0 C9.65 0.33 11.3 0.66 13 1 C12.01 1.66 11.02 2.32 10 3 C10.99 3.66 11.98 4.32 13 5 C12.67 6.32 12.34 7.64 12 9 C10.02090602 9.02686553 8.04171029 9.04633375 6.0625 9.0625 C4.96035156 9.07410156 3.85820313 9.08570313 2.72265625 9.09765625 C0 9 0 9 -1 8 C-1.125 4.5 -1.125 4.5 -1 1 C-0.67 0.67 -0.34 0.34 0 0 Z " fill="#D4D9DF" transform="translate(107,28)"/>
<path d="M0 0 C6.93359375 -0.09765625 6.93359375 -0.09765625 9 0 C10 1 10 1 10.09765625 3.94140625 C10.08605469 5.13636719 10.07445312 6.33132813 10.0625 7.5625 C10.05347656 8.76003906 10.04445313 9.95757812 10.03515625 11.19140625 C10.02355469 12.11824219 10.01195312 13.04507812 10 14 C9.01 14 8.02 14 7 14 C7 10.37 7 6.74 7 3 C6.01 3.33 5.02 3.66 4 4 C3.67 7.3 3.34 10.6 3 14 C2.01 14 1.02 14 0 14 C0 9.38 0 4.76 0 0 Z " fill="#0B0C1E" transform="translate(953,330)"/>
<path d="M0 0 C0.928125 0.165 1.85625 0.33 2.8125 0.5 C5.86018108 1.19032404 5.86018108 1.19032404 8.25 0.4375 C9.11625 0.2209375 9.11625 0.2209375 10 0 C10.66 0.66 11.32 1.32 12 2 C11.625 4.625 11.625 4.625 11 7 C6.68662408 8.1898968 3.35345729 7.94128806 -1 7 C-1.04254356 5.00045254 -1.04080783 2.99958364 -1 1 C-0.67 0.67 -0.34 0.34 0 0 Z " fill="#B1B8C5" transform="translate(869,417)"/>
<path d="M0 0 C5.36842105 -0.35789474 5.36842105 -0.35789474 7.875 1.0625 C9.64796631 4.11594197 9.36343372 6.54737962 9 10 C7.75 12.4375 7.75 12.4375 6 14 C4.68 14 3.36 14 2 14 C1.67 15.65 1.34 17.3 1 19 C0.67 19 0.34 19 0 19 C0 16.69 0 14.38 0 12 C1.65 11.67 3.3 11.34 5 11 C5 8.36 5 5.72 5 3 C3.35 2.67 1.7 2.34 0 2 C0 1.34 0 0.68 0 0 Z " fill="#202232" transform="translate(989,330)"/>
<path d="M0 0 C1.98 0 3.96 0 6 0 C8 2 8 2 8.25 4.5 C8 7 8 7 6 9 C5.01 9 4.02 9 3 9 C2.67 10.32 2.34 11.64 2 13 C1.34 13 0.68 13 0 13 C0 8.71 0 4.42 0 0 Z " fill="#111324" transform="translate(880,28)"/>
<path d="M0 0 C0.66 0 1.32 0 2 0 C2.33 1.98 2.66 3.96 3 6 C3.66 4.02 4.32 2.04 5 0 C5.99 0.33 6.98 0.66 8 1 C8 2.65 8 4.3 8 6 C8.66 6 9.32 6 10 6 C10 4.35 10 2.7 10 1 C10.66 0.67 11.32 0.34 12 0 C11.85892253 1.45880109 11.71197585 2.91703551 11.5625 4.375 C11.48128906 5.18710937 11.40007812 5.99921875 11.31640625 6.8359375 C11 9 11 9 10 11 C9.34 11 8.68 11 8 11 C7.34 9.02 6.68 7.04 6 5 C5.34 6.98 4.68 8.96 4 11 C3.34 11 2.68 11 2 11 C0.80712589 7.12315913 0 4.08378077 0 0 Z " fill="#404251" transform="translate(153,26)"/>
<path d="M0 0 C0.66 0 1.32 0 2 0 C2 3.96 2 7.92 2 12 C0.02 12 -1.96 12 -4 12 C-5 11 -5 11 -5.125 8.0625 C-5 5 -5 5 -4 3 C-2.68 3 -1.36 3 0 3 C0 2.01 0 1.02 0 0 Z " fill="#74757F" transform="translate(909,545)"/>
<path d="M0 0 C2.97 0 5.94 0 9 0 C8 4 8 4 6 7 C6.99 7.66 7.98 8.32 9 9 C6.03 9 3.06 9 0 9 C0 6.03 0 3.06 0 0 Z " fill="#70747F" transform="translate(167,28)"/>
<path d="M0 0 C0.66 0 1.32 0 2 0 C2.33 0.99 2.66 1.98 3 3 C5.01508358 3.73323796 5.01508358 3.73323796 7 4 C7.04241723 6.33294775 7.04092937 8.66702567 7 11 C6.67 11.33 6.34 11.66 6 12 C4.02 12 2.04 12 0 12 C0 8.04 0 4.08 0 0 Z " fill="#434654" transform="translate(1016,25)"/>
<path d="M0 0 C0.33 0.99 0.66 1.98 1 3 C2.65 3.33 4.3 3.66 6 4 C6 4.66 6 5.32 6 6 C4.35 6 2.7 6 1 6 C1.020625 6.804375 1.04125 7.60875 1.0625 8.4375 C1 11 1 11 0 12 C-1.66617115 12.04063832 -3.33388095 12.042721 -5 12 C-5.33 11.34 -5.66 10.68 -6 10 C-3.525 10.495 -3.525 10.495 -1 11 C-1 10.34 -1 9.68 -1 9 C-2.32 9 -3.64 9 -5 9 C-5 6.36 -5 3.72 -5 1 C-3.35 0.67 -1.7 0.34 0 0 Z " fill="#909BAF" transform="translate(1058,266)"/>
<path d="M0 0 C-0.14049518 1.47968324 -0.28754826 2.95874516 -0.4375 4.4375 C-0.51871094 5.26121094 -0.59992187 6.08492188 -0.68359375 6.93359375 C-1 9 -1 9 -2 10 C-3.66617115 10.04063832 -5.33388095 10.042721 -7 10 C-8.35439668 7.29120665 -8.06501451 4.99066732 -8 2 C-5.09399739 0.74335022 -3.20395416 0 0 0 Z " fill="#181A2A" transform="translate(951,329)"/>
<path d="M0 0 C1.32 0 2.64 0 4 0 C4.05402274 2.10388569 4.09280256 4.20816714 4.125 6.3125 C4.14820313 7.48425781 4.17140625 8.65601563 4.1953125 9.86328125 C4 13 4 13 2 16 C-0.625 16.1875 -0.625 16.1875 -3 16 C-2.34 15.34 -1.68 14.68 -1 14 C-0.69940057 11.63490639 -0.50484988 9.25558119 -0.375 6.875 C-0.30023437 5.59367187 -0.22546875 4.31234375 -0.1484375 2.9921875 C-0.09945312 2.00476563 -0.05046875 1.01734375 0 0 Z " fill="#1C1E2E" transform="translate(980,327)"/>
<path d="M0 0 C1.875 0.125 1.875 0.125 4 1 C5.59844485 4.59650092 6 7.03397243 6 11 C5.34 11 4.68 11 4 11 C4 10.34 4 9.68 4 9 C1.69 9.66 -0.62 10.32 -3 11 C-2.69078116 9.54096742 -2.37751201 8.08279278 -2.0625 6.625 C-1.88847656 5.81289063 -1.71445312 5.00078125 -1.53515625 4.1640625 C-1 2 -1 2 0 0 Z " fill="#1E2031" transform="translate(1008,26)"/>
<path d="M0 0 C1.64574566 -0.02688151 3.29161413 -0.04634123 4.9375 -0.0625 C5.85402344 -0.07410156 6.77054688 -0.08570312 7.71484375 -0.09765625 C10 0 10 0 11 1 C11.14115161 3.67058851 11.04247107 6.32432238 11 9 C10.34 9 9.68 9 9 9 C9 6.69 9 4.38 9 2 C8.01 2.495 8.01 2.495 7 3 C6.34227572 6.02934491 6.34227572 6.02934491 6 9 C5.34 9 4.68 9 4 9 C4 6.69 4 4.38 4 2 C3.34 2 2.68 2 2 2 C2 4.31 2 6.62 2 9 C1.34 9 0.68 9 0 9 C0 6.03 0 3.06 0 0 Z " fill="#191B2C" transform="translate(867,28)"/>
<path d="M0 0 C-0.33 0.66 -0.66 1.32 -1 2 C-1.66 1.67 -2.32 1.34 -3 1 C-3 1.99 -3 2.98 -3 4 C-1.68 4.33 -0.36 4.66 1 5 C0.67 6.32 0.34 7.64 0 9 C-2.31 8.67 -4.62 8.34 -7 8 C-7 6.68 -7 5.36 -7 4 C-8.32 3.67 -9.64 3.34 -11 3 C-10.67 2.34 -10.34 1.68 -10 1 C-6.56187949 0.23597322 -3.53471921 0 0 0 Z " fill="#95959D" transform="translate(875,548)"/>
<path d="M0 0 C4.55555556 0.55555556 4.55555556 0.55555556 6 2 C6.1875 4.4375 6.1875 4.4375 6 7 C5.34 7.66 4.68 8.32 4 9 C-0.55555556 8.44444444 -0.55555556 8.44444444 -2 7 C-2.1875 4.5625 -2.1875 4.5625 -2 2 C-1.34 1.34 -0.68 0.68 0 0 Z " fill="#888C96" transform="translate(1027,28)"/>
<path d="M0 0 C0.33 0 0.66 0 1 0 C1 3.96 1 7.92 1 12 C-0.65 12 -2.3 12 -4 12 C-6 10 -6 10 -6.25 7.5 C-6 5 -6 5 -4 3 C-3.01 3 -2.02 3 -1 3 C-0.67 2.01 -0.34 1.02 0 0 Z " fill="#73747E" transform="translate(849,461)"/>
<path d="M0 0 C1.485 0.99 1.485 0.99 3 2 C3.33 1.34 3.66 0.68 4 0 C4.66 0 5.32 0 6 0 C6.33 0.66 6.66 1.32 7 2 C7.99 1.34 8.98 0.68 10 0 C9.67 2.97 9.34 5.94 9 9 C8.01 9 7.02 9 6 9 C6 7.68 6 6.36 6 5 C5.34 5 4.68 5 4 5 C4 6.32 4 7.64 4 9 C3.01 9 2.02 9 1 9 C0.67 6.03 0.34 3.06 0 0 Z " fill="#494A57" transform="translate(877,548)"/>
<path d="M0 0 C0.66 0 1.32 0 2 0 C2 2.97 2 5.94 2 9 C2.99 9 3.98 9 5 9 C5 6.03 5 3.06 5 0 C5.99 0 6.98 0 8 0 C8.05399736 1.45792884 8.09279177 2.91642712 8.125 4.375 C8.14820313 5.18710937 8.17140625 5.99921875 8.1953125 6.8359375 C8 9 8 9 6 11 C3.4375 11.1875 3.4375 11.1875 1 11 C0 10 0 10 -0.09765625 7.71484375 C-0.08605469 6.79832031 -0.07445312 5.88179687 -0.0625 4.9375 C-0.05347656 4.01839844 -0.04445313 3.09929688 -0.03515625 2.15234375 C-0.02355469 1.44207031 -0.01195312 0.73179688 0 0 Z " fill="#262838" transform="translate(1054,26)"/>
<path d="M0 0 C1.65 0 3.3 0 5 0 C5.66 0.66 6.32 1.32 7 2 C6.625 4.625 6.625 4.625 6 7 C4.68 7.33 3.36 7.66 2 8 C2 8.99 2 9.98 2 11 C1.34 11 0.68 11 0 11 C0 7.37 0 3.74 0 0 Z " fill="#B3A0F6" transform="translate(976,656)"/>
<path d="M0 0 C1.32 0 2.64 0 4 0 C4 4.62 4 9.24 4 14 C2.68 14 1.36 14 0 14 C0 9.38 0 4.76 0 0 Z " fill="#282A39" transform="translate(934,330)"/>
<path d="M0 0 C1.65 0 3.3 0 5 0 C5.66 0.66 6.32 1.32 7 2 C6.625 4.625 6.625 4.625 6 7 C4.68 7.33 3.36 7.66 2 8 C2 8.99 2 9.98 2 11 C1.34 11 0.68 11 0 11 C0 7.37 0 3.74 0 0 Z " fill="#535561" transform="translate(879,267)"/>
<path d="M0 0 C1.99954746 -0.04254356 4.00041636 -0.04080783 6 0 C7 1 7 1 7.0625 3.5625 C7.041875 4.366875 7.02125 5.17125 7 6 C5.35 6.33 3.7 6.66 2 7 C2 8.32 2 9.64 2 11 C1.34 11 0.68 11 0 11 C0 7.37 0 3.74 0 0 Z " fill="#313241" transform="translate(846,546)"/>
<path d="M0 0 C2.625 0.375 2.625 0.375 5 1 C5 3.31 5 5.62 5 8 C2.625 8.625 2.625 8.625 0 9 C-2 7 -2 7 -2.25 4.5 C-2 2 -2 2 0 0 Z " fill="#353745" transform="translate(830,464)"/>
<path d="M0 0 C3.53571429 0.53571429 3.53571429 0.53571429 5 2 C5.1875 4.4375 5.1875 4.4375 5 7 C4.34 7.66 3.68 8.32 3 9 C0.375 8.625 0.375 8.625 -2 8 C-2.125 5.125 -2.125 5.125 -2 2 C-1.34 1.34 -0.68 0.68 0 0 Z " fill="#7E7F88" transform="translate(891,548)"/>
<path d="M0 0 C3.53571429 0.53571429 3.53571429 0.53571429 5 2 C5.1875 4.4375 5.1875 4.4375 5 7 C4.34 7.66 3.68 8.32 3 9 C0.375 8.625 0.375 8.625 -2 8 C-2.125 5.125 -2.125 5.125 -2 2 C-1.34 1.34 -0.68 0.68 0 0 Z " fill="#7E7F88" transform="translate(796,548)"/>
<path d="M0 0 C1.64574566 -0.02688151 3.29161413 -0.04634123 4.9375 -0.0625 C5.85402344 -0.07410156 6.77054688 -0.08570313 7.71484375 -0.09765625 C10 0 10 0 11 1 C11.14115161 3.67058851 11.04247107 6.32432238 11 9 C10.67 9 10.34 9 10 9 C9.67 6.69 9.34 4.38 9 2 C8.67 2 8.34 2 8 2 C7.67 4.31 7.34 6.62 7 9 C6.34 9 5.68 9 5 9 C4.67 6.69 4.34 4.38 4 2 C3.67 2 3.34 2 3 2 C2.67 4.31 2.34 6.62 2 9 C1.34 9 0.68 9 0 9 C0 6.03 0 3.06 0 0 Z " fill="#3D3F4D" transform="translate(828,548)"/>
<path d="M0 0 C0.66 0 1.32 0 2 0 C2.33 1.65 2.66 3.3 3 5 C3.33 3.35 3.66 1.7 4 0 C4.99 0 5.98 0 7 0 C7 1.32 7 2.64 7 4 C7.66 4 8.32 4 9 4 C9 2.68 9 1.36 9 0 C9.66 0 10.32 0 11 0 C10.34 2.97 9.68 5.94 9 9 C8.34 9 7.68 9 7 9 C6.34 8.34 5.68 7.68 5 7 C4.67 7.66 4.34 8.32 4 9 C3.34 9 2.68 9 2 9 C1.34 6.03 0.68 3.06 0 0 Z " fill="#484A57" transform="translate(816,464)"/>
<path d="M0 0 C0.66 0 1.32 0 2 0 C2 3.63 2 7.26 2 11 C0.35 11 -1.3 11 -3 11 C-4 10 -4 10 -4.0625 6.9375 C-4.041875 5.968125 -4.02125 4.99875 -4 4 C-2.68 3.67 -1.36 3.34 0 3 C0 2.01 0 1.02 0 0 Z " fill="#AAB2C1" transform="translate(845,414)"/>
<path d="M0 0 C-0.66 1.98 -1.32 3.96 -2 6 C-2.99 6 -3.98 6 -5 6 C-5 6.66 -5 7.32 -5 8 C-3.35 8.33 -1.7 8.66 0 9 C-0.33 9.99 -0.66 10.98 -1 12 C-2.65 12 -4.3 12 -6 12 C-6.33 11.34 -6.66 10.68 -7 10 C-5.68 10 -4.36 10 -3 10 C-3.99 9.67 -4.98 9.34 -6 9 C-6.33 6.69 -6.66 4.38 -7 2 C-2.25 0 -2.25 0 0 0 Z " fill="#DFD9F9" transform="translate(954,655)"/>
<path d="M0 0 C-0.66 1.98 -1.32 3.96 -2 6 C-2.99 6 -3.98 6 -5 6 C-5 6.66 -5 7.32 -5 8 C-3.35 8.33 -1.7 8.66 0 9 C-0.33 9.99 -0.66 10.98 -1 12 C-2.65 12 -4.3 12 -6 12 C-6.33 11.34 -6.66 10.68 -7 10 C-5.68 10 -4.36 10 -3 10 C-3.99 9.67 -4.98 9.34 -6 9 C-6.33 6.69 -6.66 4.38 -7 2 C-2.25 0 -2.25 0 0 0 Z " fill="#262838" transform="translate(855,266)"/>
<path d="M0 0 C1.65 0 3.3 0 5 0 C7.11096433 3.47688243 7.11096433 3.47688243 6.5625 6.0625 C6.376875 6.701875 6.19125 7.34125 6 8 C6.33 8.99 6.66 9.98 7 11 C6.34 11 5.68 11 5 11 C4.71125 10.360625 4.4225 9.72125 4.125 9.0625 C3.17176549 6.84793921 3.17176549 6.84793921 1 6 C1 7.65 1 9.3 1 11 C0.67 11 0.34 11 0 11 C0 7.37 0 3.74 0 0 Z " fill="#4F5260" transform="translate(97,26)"/>
<path d="M0 0 C1.65 0 3.3 0 5 0 C5.66 0.66 6.32 1.32 7 2 C6.625 4.125 6.625 4.125 6 6 C4.35 6.33 2.7 6.66 1 7 C0.67 8.32 0.34 9.64 0 11 C0 7.37 0 3.74 0 0 Z " fill="#1A1C2C" transform="translate(786,462)"/>
<path d="M0 0 C0.99 0 1.98 0 3 0 C3 2.31 3 4.62 3 7 C3.66 7 4.32 7 5 7 C5 4.69 5 2.38 5 0 C5.66 0 6.32 0 7 0 C7 2.97 7 5.94 7 9 C5.00045254 9.04254356 2.99958364 9.04080783 1 9 C0 8 0 8 -0.09765625 6.15234375 C-0.06510417 4.1015625 -0.03255208 2.05078125 0 0 Z " fill="#252837" transform="translate(1034,28)"/>
<path d="M0 0 C1.67542976 0.28604898 3.34385343 0.61781233 5 1 C5.33 2.32 5.66 3.64 6 5 C4.35 5 2.7 5 1 5 C1 5.66 1 6.32 1 7 C2.32 7 3.64 7 5 7 C5 7.66 5 8.32 5 9 C3.33388095 9.042721 1.66617115 9.04063832 0 9 C-1 8 -1 8 -1.125 4.5 C-1 1 -1 1 0 0 Z " fill="#5B5E6B" transform="translate(146,28)"/>
<path d="M0 0 C1.67542976 0.28604898 3.34385343 0.61781233 5 1 C5.33 2.32 5.66 3.64 6 5 C4.35 5 2.7 5 1 5 C1 5.66 1 6.32 1 7 C2.32 7 3.64 7 5 7 C5 7.66 5 8.32 5 9 C3.33388095 9.042721 1.66617115 9.04063832 0 9 C-1 8 -1 8 -1.125 4.5 C-1 1 -1 1 0 0 Z " fill="#2F3241" transform="translate(910,28)"/>
<path d="M0 0 C1.66611905 -0.042721 3.33382885 -0.04063832 5 0 C6 1 6 1 6.09765625 2.84765625 C6.06510417 4.8984375 6.03255208 6.94921875 6 9 C4.02 9 2.04 9 0 9 C-0.33 7.68 -0.66 6.36 -1 5 C0.65 4.67 2.3 4.34 4 4 C4 3.34 4 2.68 4 2 C2.68 2 1.36 2 0 2 C0 1.34 0 0.68 0 0 Z " fill="#2E3140" transform="translate(895,28)"/>
<path d="M0 0 C1.2065625 0.0309375 1.2065625 0.0309375 2.4375 0.0625 C2.1075 1.7125 1.7775 3.3625 1.4375 5.0625 C0.4475 5.0625 -0.5425 5.0625 -1.5625 5.0625 C-1.5625 5.7225 -1.5625 6.3825 -1.5625 7.0625 C-0.2425 7.0625 1.0775 7.0625 2.4375 7.0625 C2.1075 8.3825 1.7775 9.7025 1.4375 11.0625 C-0.2125 11.0625 -1.8625 11.0625 -3.5625 11.0625 C-3.5625 10.4025 -3.5625 9.7425 -3.5625 9.0625 C-2.2425 9.3925 -0.9225 9.7225 0.4375 10.0625 C0.4375 9.4025 0.4375 8.7425 0.4375 8.0625 C-0.8825 7.7325 -2.2025 7.4025 -3.5625 7.0625 C-3.60504356 5.06295254 -3.60330783 3.06208364 -3.5625 1.0625 C-2.5625 0.0625 -2.5625 0.0625 0 0 Z " fill="#D2C8F8" transform="translate(1774.5625,27.9375)"/>
<path d="M0 0 C1.67542976 0.28604898 3.34385343 0.61781233 5 1 C5.33 2.32 5.66 3.64 6 5 C4.35 5 2.7 5 1 5 C1 5.66 1 6.32 1 7 C2.32 7.33 3.64 7.66 5 8 C3.34385343 8.38218767 1.67542976 8.71395102 0 9 C-1 8 -1 8 -1.125 4.5 C-1 1 -1 1 0 0 Z " fill="#2E3140" transform="translate(859,28)"/>
<path d="M0 0 C1.66611905 -0.042721 3.33382885 -0.04063832 5 0 C6 1 6 1 6.09765625 2.84765625 C6.06510417 4.8984375 6.03255208 6.94921875 6 9 C4.02 9 2.04 9 0 9 C-0.33 7.68 -0.66 6.36 -1 5 C0.65 4.67 2.3 4.34 4 4 C4 3.01 4 2.02 4 1 C2.68 1.33 1.36 1.66 0 2 C0 1.34 0 0.68 0 0 Z " fill="#3A3B49" transform="translate(794,464)"/>
<path d="M0 0 C1.67542976 0.28604898 3.34385343 0.61781233 5 1 C5 2.98 5 4.96 5 7 C3.34385343 7.38218767 1.67542976 7.71395102 0 8 C-1 7 -1 7 -1.125 4 C-1 1 -1 1 0 0 Z " fill="#C7CCD5" transform="translate(869,417)"/>
<path d="M0 0 C2.125 0.375 2.125 0.375 4 1 C4.625 3.375 4.625 3.375 5 6 C4.34 6.66 3.68 7.32 3 8 C0.875 7.625 0.875 7.625 -1 7 C-1.625 4.625 -1.625 4.625 -2 2 C-1.34 1.34 -0.68 0.68 0 0 Z " fill="#B1B8C6" transform="translate(851,417)"/>
<path d="M0 0 C1.67542976 0.28604898 3.34385343 0.61781233 5 1 C5 2.98 5 4.96 5 7 C3.34385343 7.38218767 1.67542976 7.71395102 0 8 C-1 7 -1 7 -1.125 4 C-1 1 -1 1 0 0 Z " fill="#7F8AA0" transform="translate(803,417)"/>
<path d="M0 0 C0.66 0 1.32 0 2 0 C2 4.62 2 9.24 2 14 C1.67 14 1.34 14 1 14 C0.67 12.35 0.34 10.7 0 9 C-0.99 10.485 -0.99 10.485 -2 12 C-5.125 12.1875 -5.125 12.1875 -8 12 C-8 11.34 -8 10.68 -8 10 C-7.05125 9.835 -6.1025 9.67 -5.125 9.5 C-1.91873588 8.37777898 -1.91873588 8.37777898 -1.15625 6.0859375 C-0.67381375 4.07815136 -0.32880438 2.03858716 0 0 Z " fill="#C4C5C8" transform="translate(951,330)"/>
<path d="M0 0 C2.125 0.375 2.125 0.375 4 1 C4.625 3.375 4.625 3.375 5 6 C4.34 6.66 3.68 7.32 3 8 C0.875 7.625 0.875 7.625 -1 7 C-1.625 4.625 -1.625 4.625 -2 2 C-1.34 1.34 -0.68 0.68 0 0 Z " fill="#96A1B3" transform="translate(1046,267)"/>
<path d="M0 0 C0.66 0 1.32 0 2 0 C2 2.64 2 5.28 2 8 C2.99 8 3.98 8 5 8 C5 5.36 5 2.72 5 0 C5.66 0 6.32 0 7 0 C7.1953125 6.0546875 7.1953125 6.0546875 7 8 C6.34 8.66 5.68 9.32 5 10 C2.375 9.625 2.375 9.625 0 9 C0 6.03 0 3.06 0 0 Z " fill="#DDD6F9" transform="translate(967,654)"/>
<path d="M0 0 C0.66 0 1.32 0 2 0 C2 2.64 2 5.28 2 8 C2.99 8 3.98 8 5 8 C5 5.36 5 2.72 5 0 C5.66 0 6.32 0 7 0 C7.1953125 6.0546875 7.1953125 6.0546875 7 8 C6.34 8.66 5.68 9.32 5 10 C2.375 9.625 2.375 9.625 0 9 C0 6.03 0 3.06 0 0 Z " fill="#2A2B3A" transform="translate(870,265)"/>
<path d="M0 0 C-0.99 0.66 -1.98 1.32 -3 2 C-2.01 2.66 -1.02 3.32 0 4 C-0.33 5.32 -0.66 6.64 -1 8 C-2.65 8 -4.3 8 -6 8 C-6.33 7.34 -6.66 6.68 -7 6 C-5.68 5.67 -4.36 5.34 -3 5 C-4.32 4.34 -5.64 3.68 -7 3 C-7 2.01 -7 1.02 -7 0 C-4.3333581 -1.33332095 -2.83319697 -0.67102033 0 0 Z " fill="#212434" transform="translate(924,29)"/>
<path d="M0 0 C1.65 0.33 3.3 0.66 5 1 C3.02 1.99 3.02 1.99 1 3 C2.32 3.66 3.64 4.32 5 5 C4.67 6.65 4.34 8.3 4 10 C2.35 10 0.7 10 -1 10 C-1.33 9.34 -1.66 8.68 -2 8 C-0.35 8 1.3 8 3 8 C3 7.34 3 6.68 3 6 C0.525 5.01 0.525 5.01 -2 4 C-1.34 2.68 -0.68 1.36 0 0 Z " fill="#D4CBF9" transform="translate(937,654)"/>
<path d="M0 0 C1.65 0.33 3.3 0.66 5 1 C3.02 1.99 3.02 1.99 1 3 C2.32 3.66 3.64 4.32 5 5 C4.67 6.65 4.34 8.3 4 10 C2.35 10 0.7 10 -1 10 C-1.33 9.34 -1.66 8.68 -2 8 C-0.35 8 1.3 8 3 8 C3 7.34 3 6.68 3 6 C0.525 5.01 0.525 5.01 -2 4 C-1.34 2.68 -0.68 1.36 0 0 Z " fill="#353745" transform="translate(838,265)"/>
<path d="M0 0 C0.99 0 1.98 0 3 0 C4.15941038 3.47823115 3.70820884 5.45895578 3 9 C3.66 9 4.32 9 5 9 C5 9.66 5 10.32 5 11 C3.35 10.67 1.7 10.34 0 10 C-1.125 2.25 -1.125 2.25 0 0 Z " fill="#323544" transform="translate(903,26)"/>
<path d="M0 0 C0.99 0.33 1.98 0.66 3 1 C2.01 1.495 2.01 1.495 1 2 C2.32 2.33 3.64 2.66 5 3 C5 5.97 5 8.94 5 12 C4.34 12 3.68 12 3 12 C3 9.36 3 6.72 3 4 C2.01 4 1.02 4 0 4 C0 6.64 0 9.28 0 12 C-0.33 12 -0.66 12 -1 12 C-1 9.36 -1 6.72 -1 4 C-1.66 3.67 -2.32 3.34 -3 3 C-2.34 3 -1.68 3 -1 3 C-0.67 2.01 -0.34 1.02 0 0 Z " fill="#262838" transform="translate(814,545)"/>
<path d="M0 0 C1.65 0 3.3 0 5 0 C5 0.66 5 1.32 5 2 C4.01 2.33 3.02 2.66 2 3 C2.66 3.433125 3.32 3.86625 4 4.3125 C4.66 4.869375 5.32 5.42625 6 6 C6 6.99 6 7.98 6 9 C4.02 9.33 2.04 9.66 0 10 C-0.33 9.34 -0.66 8.68 -1 8 C0.65 8 2.3 8 4 8 C4 7.34 4 6.68 4 6 C1.525 5.01 1.525 5.01 -1 4 C-0.67 2.68 -0.34 1.36 0 0 Z " fill="#D5CCF9" transform="translate(1760,26)"/>
<path d="M0 0 C0.99 0 1.98 0 3 0 C3.33 3.96 3.66 7.92 4 12 C2.68 11.67 1.36 11.34 0 11 C0 7.37 0 3.74 0 0 Z " fill="#3A3D4C" transform="translate(889,25)"/>
<path d="M0 0 C1.65 0.33 3.3 0.66 5 1 C5.33 3.64 5.66 6.28 6 9 C4.02 9 2.04 9 0 9 C-0.33 7.68 -0.66 6.36 -1 5 C0.65 4.67 2.3 4.34 4 4 C3.04134491 1.66924071 3.04134491 1.66924071 0 0 Z " fill="#4F505D" transform="translate(808,380)"/>
<path d="M0 0 C1.67542976 0.28604898 3.34385343 0.61781233 5 1 C5 2.32 5 3.64 5 5 C3.35 5 1.7 5 0 5 C0.95865509 7.33075929 0.95865509 7.33075929 4 9 C2.35 8.67 0.7 8.34 -1 8 C-1.04241723 5.66705225 -1.04092937 3.33297433 -1 1 C-0.67 0.67 -0.34 0.34 0 0 Z " fill="#4E515E" transform="translate(107,28)"/>
<path d="M0 0 C1.66611905 -0.042721 3.33382885 -0.04063832 5 0 C6 1 6 1 6.0625 4.5625 C6.041875 5.696875 6.02125 6.83125 6 8 C5.34 8 4.68 8 4 8 C4 6.02 4 4.04 4 2 C3.34 2 2.68 2 2 2 C2 3.98 2 5.96 2 8 C1.34 8 0.68 8 0 8 C0 5.36 0 2.72 0 0 Z " fill="#DDD7F9" transform="translate(955,656)"/>
<path d="M0 0 C1.66611905 -0.042721 3.33382885 -0.04063832 5 0 C6 1 6 1 6.0625 4.5625 C6.041875 5.696875 6.02125 6.83125 6 8 C5.34 8 4.68 8 4 8 C4 6.02 4 4.04 4 2 C3.34 2 2.68 2 2 2 C2 3.98 2 5.96 2 8 C1.34 8 0.68 8 0 8 C0 5.36 0 2.72 0 0 Z " fill="#78859C" transform="translate(1070,267)"/>
<path d="M0 0 C1.66611905 -0.042721 3.33382885 -0.04063832 5 0 C6 1 6 1 6.0625 4.5625 C6.041875 5.696875 6.02125 6.83125 6 8 C5.34 8 4.68 8 4 8 C4 6.02 4 4.04 4 2 C3.34 2 2.68 2 2 2 C2 3.98 2 5.96 2 8 C1.34 8 0.68 8 0 8 C0 5.36 0 2.72 0 0 Z " fill="#292A3A" transform="translate(856,267)"/>
<path d="M0 0 C1.66611905 -0.042721 3.33382885 -0.04063832 5 0 C6 1 6 1 6.0625 4.5625 C6.041875 5.696875 6.02125 6.83125 6 8 C5.34 8 4.68 8 4 8 C4 6.02 4 4.04 4 2 C3.34 2 2.68 2 2 2 C2 3.98 2 5.96 2 8 C1.34 8 0.68 8 0 8 C0 5.36 0 2.72 0 0 Z " fill="#DBD4F9" transform="translate(1779,28)"/>
<path d="M0 0 C1.65 0 3.3 0 5 0 C6 1 6 1 6.0625 4.0625 C6.041875 5.031875 6.02125 6.00125 6 7 C5.34 7 4.68 7 4 7 C4 5.35 4 3.7 4 2 C3.34 2 2.68 2 2 2 C1.67 4.97 1.34 7.94 1 11 C0.67 11 0.34 11 0 11 C0 7.37 0 3.74 0 0 Z " fill="#DCD6F9" transform="translate(1800,28)"/>
<path d="M0 0 C1.65 0.33 3.3 0.66 5 1 C5 3.31 5 5.62 5 8 C3.35 8.33 1.7 8.66 0 9 C-0.33 7.68 -0.66 6.36 -1 5 C0.65 4.67 2.3 4.34 4 4 C3.04134491 1.66924071 3.04134491 1.66924071 0 0 Z " fill="#4D4E5B" transform="translate(855,548)"/>
<path d="M0 0 C0.66 0 1.32 0 2 0 C2 0.99 2 1.98 2 3 C3.32 3.33 4.64 3.66 6 4 C6 6.31 6 8.62 6 11 C5.67 11 5.34 11 5 11 C4.67 9.02 4.34 7.04 4 5 C3.67 5 3.34 5 3 5 C2.67 6.98 2.34 8.96 2 11 C1.34 11 0.68 11 0 11 C0 7.37 0 3.74 0 0 Z " fill="#8F99AC" transform="translate(810,414)"/>
<path d="M0 0 C1.65 0.33 3.3 0.66 5 1 C4.01 1.66 3.02 2.32 2 3 C2.99 3.66 3.98 4.32 5 5 C4.67 6.32 4.34 7.64 4 9 C2.35 8.67 0.7 8.34 -1 8 C-0.01 7.34 0.98 6.68 2 6 C1.01 5.34 0.02 4.68 -1 4 C-0.67 2.68 -0.34 1.36 0 0 Z " fill="#1B1E2E" transform="translate(1065,28)"/>
<path d="M0 0 C2.64 0 5.28 0 8 0 C8 0.66 8 1.32 8 2 C7.01 2 6.02 2 5 2 C5 4.97 5 7.94 5 11 C4.34 11 3.68 11 3 11 C3 8.03 3 5.06 3 2 C2.01 2 1.02 2 0 2 C0 1.34 0 0.68 0 0 Z " fill="#111224" transform="translate(849,26)"/>
<path d="M0 0 C2.31 0.33 4.62 0.66 7 1 C6.67 3.64 6.34 6.28 6 9 C5.67 9 5.34 9 5 9 C5 6.69 5 4.38 5 2 C4.01 2 3.02 2 2 2 C2 4.31 2 6.62 2 9 C1.34 9 0.68 9 0 9 C0 6.03 0 3.06 0 0 Z " fill="#363846" transform="translate(794,380)"/>
<path d="M0 0 C1.32 0 2.64 0 4 0 C4 1.98 4 3.96 4 6 C2.0625 6.5625 2.0625 6.5625 0 7 C-1 6 -1 6 -1.125 3.5 C-1 1 -1 1 0 0 Z " fill="#AAB1C0" transform="translate(831,418)"/>
<path d="M0 0 C1.32 0 2.64 0 4 0 C4 2.64 4 5.28 4 8 C2.68 8 1.36 8 0 8 C0 5.36 0 2.72 0 0 Z " fill="#F5F5F6" transform="translate(990,333)"/>
<path d="M0 0 C0.66 0.33 1.32 0.66 2 1 C2 3.64 2 6.28 2 9 C3.32 9.33 4.64 9.66 6 10 C3.69 10 1.38 10 -1 10 C-2.38125018 7.23749964 -2.19079306 5.05268901 -2 2 C-1.34 1.34 -0.68 0.68 0 0 Z " fill="#181A2A" transform="translate(942,330)"/>
<path d="M0 0 C3.875 0.875 3.875 0.875 5 2 C5.04063832 3.66617115 5.042721 5.33388095 5 7 C3 7 1 7 -1 7 C-0.67 4.69 -0.34 2.38 0 0 Z " fill="#7C808B" transform="translate(883,28)"/>
<path d="M0 0 C1.65 0.33 3.3 0.66 5 1 C4.01 1.66 3.02 2.32 2 3 C2.99 3.66 3.98 4.32 5 5 C4.67 6.32 4.34 7.64 4 9 C2.35 9 0.7 9 -1 9 C-1 8.34 -1 7.68 -1 7 C0.32 7.33 1.64 7.66 3 8 C3 7.01 3 6.02 3 5 C1.68 4.67 0.36 4.34 -1 4 C-0.67 2.68 -0.34 1.36 0 0 Z " fill="#424553" transform="translate(115,28)"/>
<path d="M0 0 C0.66 0 1.32 0 2 0 C2 0.66 2 1.32 2 2 C2.66 2 3.32 2 4 2 C4 2.66 4 3.32 4 4 C3.34 4 2.68 4 2 4 C2 5.65 2 7.3 2 9 C2.66 9 3.32 9 4 9 C4 9.66 4 10.32 4 11 C2.68 10.67 1.36 10.34 0 10 C-1.125 2.25 -1.125 2.25 0 0 Z " fill="#111324" transform="translate(1044,26)"/>
<path d="M0 0 C1.98 0.495 1.98 0.495 4 1 C3.01 1 2.02 1 1 1 C1.680625 1.5775 2.36125 2.155 3.0625 2.75 C3.701875 3.4925 4.34125 4.235 5 5 C4.75 7.25 4.75 7.25 4 9 C2.35 9 0.7 9 -1 9 C-1 8.34 -1 7.68 -1 7 C0.32 7 1.64 7 3 7 C3 6.34 3 5.68 3 5 C1.68 4.67 0.36 4.34 -1 4 C-0.67 2.68 -0.34 1.36 0 0 Z " fill="#424451" transform="translate(810,464)"/>
<path d="M0 0 C1.65 0.33 3.3 0.66 5 1 C5 1.99 5 2.98 5 4 C3.68 4 2.36 4 1 4 C1 4.99 1 5.98 1 7 C1.99 7.33 2.98 7.66 4 8 C2.68 8 1.36 8 0 8 C-1.125 2.25 -1.125 2.25 0 0 Z " fill="#949EB0" transform="translate(858,417)"/>
<path d="M0 0 C0.99 0.33 1.98 0.66 3 1 C3.1953125 7.0546875 3.1953125 7.0546875 3 9 C2.34 9.66 1.68 10.32 1 11 C1 10.01 1 9.02 1 8 C-0.32 8 -1.64 8 -3 8 C-3 7.34 -3 6.68 -3 6 C-2.01 5.67 -1.02 5.34 0 5 C0 3.35 0 1.7 0 0 Z " fill="#673CF0" transform="translate(1776,27)"/>
<path d="M0 0 C0.66 0 1.32 0 2 0 C2 2.64 2 5.28 2 8 C3.32 8 4.64 8 6 8 C6 8.66 6 9.32 6 10 C4.02 10 2.04 10 0 10 C0 6.7 0 3.4 0 0 Z " fill="#76839B" transform="translate(1038,265)"/>
<path d="M0 0 C1.65 0 3.3 0 5 0 C5.33 0.99 5.66 1.98 6 3 C6.99 3.33 7.98 3.66 9 4 C9 4.66 9 5.32 9 6 C7.35 6.33 5.7 6.66 4 7 C3.67 6.01 3.34 5.02 3 4 C2.01 3.67 1.02 3.34 0 3 C0 2.01 0 1.02 0 0 Z " fill="#EFF0F1" transform="translate(804,465)"/>
<path d="M0 0 C2.625 0.375 2.625 0.375 5 1 C5 2.65 5 4.3 5 6 C4.34 5.01 3.68 4.02 3 3 C2.01 2.67 1.02 2.34 0 2 C0.33 3.98 0.66 5.96 1 8 C0.01 7.67 -0.98 7.34 -2 7 C-2.125 4.625 -2.125 4.625 -2 2 C-1.34 1.34 -0.68 0.68 0 0 Z " fill="#101223" transform="translate(1027,28)"/>
<path d="M0 0 C0.33 0 0.66 0 1 0 C0.85892253 1.45880109 0.71197585 2.91703551 0.5625 4.375 C0.48128906 5.18710937 0.40007812 5.99921875 0.31640625 6.8359375 C0 9 0 9 -1 11 C-1.66 11 -2.32 11 -3 11 C-3.33 9.68 -3.66 8.36 -4 7 C-3.01 6.67 -2.02 6.34 -1 6 C-1.020625 5.195625 -1.04125 4.39125 -1.0625 3.5625 C-1 1 -1 1 0 0 Z " fill="#4A4D5B" transform="translate(164,26)"/>
<path d="M0 0 C0 0.33 0 0.66 0 1 C-2.31 1.66 -4.62 2.32 -7 3 C-7 2.34 -7 1.68 -7 1 C-8.32 1 -9.64 1 -11 1 C-11 0.34 -11 -0.32 -11 -1 C-6.70700357 -2.26264601 -4.12168689 -1.62950412 0 0 Z " fill="#DCE1E6" transform="translate(922,34)"/>
<path d="M0 0 C0.66 0 1.32 0 2 0 C2.33 1.65 2.66 3.3 3 5 C3.33 3.35 3.66 1.7 4 0 C4.66 0 5.32 0 6 0 C5.34 2.97 4.68 5.94 4 9 C3.34 9 2.68 9 2 9 C1.34 6.03 0.68 3.06 0 0 Z " fill="#393B49" transform="translate(816,464)"/>
<path d="M0 0 C1.98 0.495 1.98 0.495 4 1 C3.67 2.98 3.34 4.96 3 7 C2.01 7 1.02 7 0 7 C-1.125 2.25 -1.125 2.25 0 0 Z " fill="#4F525F" transform="translate(1008,26)"/>
<path d="M0 0 C1.98 0.66 3.96 1.32 6 2 C6 2.99 6 3.98 6 5 C4.02 5.33 2.04 5.66 0 6 C0 4.02 0 2.04 0 0 Z " fill="#E9E9EA" transform="translate(800,467)"/>
<path d="M0 0 C1.66611905 -0.042721 3.33382885 -0.04063832 5 0 C6 1 6 1 6.0625 3.5625 C6.041875 4.366875 6.02125 5.17125 6 6 C5.01 6.495 5.01 6.495 4 7 C3.67 6.01 3.34 5.02 3 4 C2.01 3.34 1.02 2.68 0 2 C0 1.34 0 0.68 0 0 Z " fill="#E1E2E4" transform="translate(811,465)"/>
<path d="M0 0 C0.66 0 1.32 0 2 0 C2.33 1.98 2.66 3.96 3 6 C1.68 6 0.36 6 -1 6 C-1.042721 4.33388095 -1.04063832 2.66617115 -1 1 C-0.67 0.67 -0.34 0.34 0 0 Z " fill="#E3E3E5" transform="translate(831,465)"/>
<path d="M0 0 C1.98 0.495 1.98 0.495 4 1 C4 3.64 4 6.28 4 9 C3.34 9 2.68 9 2 9 C2 6.69 2 4.38 2 2 C1.01 2.33 0.02 2.66 -1 3 C-0.67 2.01 -0.34 1.02 0 0 Z " fill="#111324" transform="translate(874,28)"/>
<path d="M0 0 C1.32 0 2.64 0 4 0 C4 0.66 4 1.32 4 2 C3.34 2 2.68 2 2 2 C2 4.31 2 6.62 2 9 C1.34 9 0.68 9 0 9 C0 6.03 0 3.06 0 0 Z " fill="#414350" transform="translate(822,548)"/>
<path d="M0 0 C1.32 0 2.64 0 4 0 C4 0.66 4 1.32 4 2 C3.34 2 2.68 2 2 2 C2 4.31 2 6.62 2 9 C1.34 9 0.68 9 0 9 C0 6.03 0 3.06 0 0 Z " fill="#414350" transform="translate(838,464)"/>
<path d="M0 0 C-0.66 1.98 -1.32 3.96 -2 6 C-2.99 6 -3.98 6 -5 6 C-4.625 3.5625 -4.625 3.5625 -4 1 C-2 0 -2 0 0 0 Z " fill="#B9A7F6" transform="translate(954,655)"/>
<path d="M0 0 C1.98 0.495 1.98 0.495 4 1 C4 2.32 4 3.64 4 5 C2.35 4.67 0.7 4.34 -1 4 C-0.67 2.68 -0.34 1.36 0 0 Z " fill="#83848D" transform="translate(794,468)"/>
<path d="M0 0 C-0.66 1.98 -1.32 3.96 -2 6 C-2.99 6 -3.98 6 -5 6 C-4.625 3.5625 -4.625 3.5625 -4 1 C-2 0 -2 0 0 0 Z " fill="#5D5E6A" transform="translate(855,266)"/>
<path d="M0 0 C2.76223278 2.76223278 2.57856291 5.20706617 3 9 C2.34 9 1.68 9 1 9 C1 8.34 1 7.68 1 7 C0.34 7 -0.32 7 -1 7 C-1.04254356 5.00045254 -1.04080783 2.99958364 -1 1 C-0.67 0.67 -0.34 0.34 0 0 Z " fill="#C7CBD2" transform="translate(907,28)"/>
<path d="M0 0 C1.65 0 3.3 0 5 0 C4.34 0.66 3.68 1.32 3 2 C2.60235737 3.98821313 2.26224651 5.98944339 2 8 C1.34 8 0.68 8 0 8 C0 5.36 0 2.72 0 0 Z " fill="#99A2B4" transform="translate(818,417)"/>
<path d="M0 0 C0.99 0.33 1.98 0.66 3 1 C2.67 2.65 2.34 4.3 2 6 C1.01 5.67 0.02 5.34 -1 5 C-0.67 3.35 -0.34 1.7 0 0 Z " fill="#EBEDF1" transform="translate(804,418)"/>
<path d="M0 0 C0.99 0.33 1.98 0.66 3 1 C2.67 2.65 2.34 4.3 2 6 C1.01 5.67 0.02 5.34 -1 5 C-0.67 3.35 -0.34 1.7 0 0 Z " fill="#E1E1E4" transform="translate(944,332)"/>
<path d="M0 0 C0.99 0.33 1.98 0.66 3 1 C2.67 3.64 2.34 6.28 2 9 C1.34 9 0.68 9 0 9 C0 6.03 0 3.06 0 0 Z " fill="#474856" transform="translate(803,548)"/>
<path d="M0 0 C1.98 0.66 3.96 1.32 6 2 C6 2.66 6 3.32 6 4 C4.02 4 2.04 4 0 4 C0 2.68 0 1.36 0 0 Z " fill="#D0D0D3" transform="translate(853,548)"/>
<path d="M0 0 C0.99 0.33 1.98 0.66 3 1 C2.67 3.64 2.34 6.28 2 9 C1.34 9 0.68 9 0 9 C0 6.03 0 3.06 0 0 Z " fill="#434654" transform="translate(131,28)"/>
<path d="M0 0 C1.65 1.65 3.3 3.3 5 5 C3.35 5.66 1.7 6.32 0 7 C-1.125 2.25 -1.125 2.25 0 0 Z " fill="#CCD1D7" transform="translate(1063,30)"/>
<path d="M0 0 C0.66 0 1.32 0 2 0 C2 2.97 2 5.94 2 9 C1.01 8.67 0.02 8.34 -1 8 C-0.67 5.36 -0.34 2.72 0 0 Z " fill="#434554" transform="translate(127,28)"/>
<path d="M0 0 C-1.65 1.32 -3.3 2.64 -5 4 C-5.66 3.67 -6.32 3.34 -7 3 C-7 2.01 -7 1.02 -7 0 C-4.3333581 -1.33332095 -2.83319697 -0.67102033 0 0 Z " fill="#393B4A" transform="translate(924,29)"/>
<path d="M0 0 C1.32 0.33 2.64 0.66 4 1 C3.67 2.32 3.34 3.64 3 5 C2.01 5 1.02 5 0 5 C0 3.35 0 1.7 0 0 Z " fill="#DDDEE0" transform="translate(848,547)"/>
<path d="M0 0 C1.32 0.33 2.64 0.66 4 1 C3.67 2.32 3.34 3.64 3 5 C2.01 5 1.02 5 0 5 C0 3.35 0 1.7 0 0 Z " fill="#E2E2E4" transform="translate(787,463)"/>
<path d="M0 0 C1.32 0.33 2.64 0.66 4 1 C3.01 1.495 3.01 1.495 2 2 C2 3.65 2 5.3 2 7 C1.34 7 0.68 7 0 7 C0 4.69 0 2.38 0 0 Z " fill="#DCD5F9" transform="translate(976,656)"/>
<path d="M0 0 C0 1.65 0 3.3 0 5 C-1.65 4.67 -3.3 4.34 -5 4 C-5 3.01 -5 2.02 -5 1 C-1.125 0 -1.125 0 0 0 Z " fill="#E0E0E2" transform="translate(877,548)"/>
</svg>
