<?xml version="1.0" encoding="UTF-8"?>
<svg version="1.1" xmlns="http://www.w3.org/2000/svg" width="982" height="280">
<path d="M0 0 C324.06 0 648.12 0 982 0 C982 92.4 982 184.8 982 280 C657.94 280 333.88 280 0 280 C0 187.6 0 95.2 0 0 Z " fill="#FDFDFD" transform="translate(0,0)"/>
<path d="M0 0 C1.06670032 -0.00935994 1.06670032 -0.00935994 2.15495014 -0.01890898 C4.53812618 -0.03486548 6.92028315 -0.0222252 9.3034668 -0.00964355 C11.01183672 -0.01506352 12.72020197 -0.02218548 14.42855835 -0.03088379 C19.06905428 -0.04913505 23.70919489 -0.04204222 28.34969711 -0.02936745 C33.20319332 -0.0192491 38.05665886 -0.02862988 42.91015625 -0.03491211 C51.06117217 -0.04219191 59.21204318 -0.03259207 67.36303711 -0.0135498 C76.79030502 0.00821958 86.21722691 0.00116844 95.64448643 -0.02085543 C103.73461401 -0.03899994 111.82463735 -0.0415724 119.91477871 -0.03110075 C124.74838878 -0.02486059 129.58183614 -0.02404451 134.41543579 -0.0372467 C138.95948124 -0.04879079 143.50308005 -0.040806 148.04707718 -0.01766968 C149.71600223 -0.01237485 151.38496478 -0.01390958 153.05387497 -0.02272034 C155.32988327 -0.03362949 157.60445471 -0.01997042 159.88037109 0 C161.15462448 0.0015081 162.42887787 0.0030162 163.741745 0.00457001 C166.94018555 0.50793457 166.94018555 0.50793457 169.34907532 2.32019806 C171.63728927 5.46643465 171.51412454 8.44942199 171.47143555 12.19543457 C171.47526245 12.93495361 171.47908936 13.67447266 171.48303223 14.43640137 C171.48574826 15.99639247 171.47840847 17.55642935 171.46166992 19.11633301 C171.44025228 21.50050643 171.46147818 23.88166706 171.48706055 26.26574707 C171.48441721 27.78398287 171.4792921 29.3022168 171.47143555 30.82043457 C171.47953247 31.53094971 171.48762939 32.24146484 171.49597168 32.97351074 C171.43638337 36.12807413 171.22580348 38.1152171 169.34907532 40.69567108 C166.07644075 43.15774976 163.9561826 43.01104534 159.88037109 43.01586914 C159.16923755 43.0221091 158.458104 43.02834907 157.72542095 43.03477812 C155.34224491 43.05073462 152.96008794 43.03809434 150.5769043 43.0255127 C148.86853437 43.03093267 147.16016912 43.03805462 145.45181274 43.04675293 C140.81131682 43.06500419 136.1711762 43.05791136 131.53067398 43.04523659 C126.67717777 43.03511824 121.82371223 43.04449902 116.97021484 43.05078125 C108.81919892 43.05806106 100.66832791 43.04846122 92.51733398 43.02941895 C83.09006608 43.00764956 73.66314419 43.0147007 64.23588467 43.03672457 C56.14575708 43.05486908 48.05573374 43.05744154 39.96559238 43.04696989 C35.13198232 43.04072973 30.29853495 43.03991365 25.4649353 43.05311584 C20.92088985 43.06465993 16.37729105 43.05667514 11.83329391 43.03353882 C10.16436887 43.02824399 8.49540631 43.02977873 6.82649612 43.03858948 C4.55048783 43.04949863 2.27591638 43.03583956 0 43.01586914 C-1.27425339 43.01436104 -2.54850677 43.01285294 -3.8613739 43.01129913 C-7.05981445 42.50793457 -7.05981445 42.50793457 -9.46870422 40.69567108 C-11.75691818 37.54943449 -11.63375345 34.56644715 -11.59106445 30.82043457 C-11.59489136 30.08091553 -11.59871826 29.34139648 -11.60266113 28.57946777 C-11.60537717 27.01947667 -11.59803737 25.45943979 -11.58129883 23.89953613 C-11.55988118 21.51536271 -11.58110708 19.13420208 -11.60668945 16.75012207 C-11.60404612 15.23188627 -11.59892101 13.71365234 -11.59106445 12.19543457 C-11.59916138 11.48491943 -11.6072583 10.7744043 -11.61560059 10.0423584 C-11.55601227 6.88779502 -11.34543239 4.90065204 -9.46870422 2.32019806 C-6.19606966 -0.14188062 -4.07581151 0.0048238 0 0 Z " fill="#FDFDFE" transform="translate(128.059814453125,23.4920654296875)"/>
<path d="M0 0 C0.73069688 -0.00467997 1.46139377 -0.00935994 2.21423298 -0.01418173 C4.66945877 -0.02617419 7.12413076 -0.01665817 9.57936096 -0.00723267 C11.33684109 -0.01129653 13.09431867 -0.01663736 14.85179138 -0.02316284 C19.63071897 -0.03686537 24.40945274 -0.03152544 29.18838382 -0.02202559 C34.18468682 -0.01444298 39.18097297 -0.02147081 44.17727661 -0.02618408 C52.56963589 -0.03164623 60.96191604 -0.02443852 69.35426331 -0.01016235 C79.06149912 0.00615972 88.76854587 0.00088071 98.47577709 -0.01564157 C106.8036608 -0.02924971 115.13148754 -0.03117923 123.45937878 -0.02332556 C128.43605941 -0.01864467 133.41265115 -0.01803553 138.3893261 -0.02793503 C143.06871145 -0.03659244 147.7478528 -0.03060521 152.42721176 -0.01325226 C154.14612866 -0.00928063 155.86506605 -0.01043299 157.58397484 -0.01704025 C159.92768103 -0.02521944 162.27060187 -0.01497868 164.61425781 0 C165.92668174 0.00113108 167.23910566 0.00226215 168.59130001 0.00342751 C172.05599532 0.4022917 173.50061294 0.85480501 175.87062073 3.38095093 C176.27746885 5.97998116 176.43220516 8.15277231 176.40187073 10.75204468 C176.40569763 11.47078262 176.40952454 12.18952057 176.41346741 12.93003845 C176.41618709 14.44892783 176.40882171 15.967864 176.3921051 17.48666382 C176.37072336 19.80731177 176.39188422 22.12485339 176.41749573 24.44540405 C176.41485184 25.92262441 176.4097256 27.39984284 176.40187073 28.87704468 C176.40996765 29.56882309 176.41806458 30.2606015 176.42640686 30.9733429 C176.36616785 34.08212338 176.13276587 36.0184914 174.29179478 38.56394196 C170.96596421 41.05986495 168.75233726 40.88413044 164.61425781 40.8888855 C163.88200094 40.89512546 163.14974406 40.90136542 162.39529759 40.90779448 C159.94069987 40.92375435 157.48709111 40.91110929 155.03248596 40.89852905 C153.27323324 40.90394882 151.51398505 40.91107066 149.75474548 40.91976929 C144.97589474 40.93802159 140.19738899 40.93092762 135.41853213 40.91825294 C130.42176291 40.90813675 125.42502353 40.91751463 120.42825317 40.92379761 C112.03765042 40.93107736 103.64718844 40.92147699 95.25660706 40.9024353 C85.54871231 40.88065886 75.84115349 40.88772223 66.13326687 40.90974092 C57.80451656 40.92787712 49.47586752 40.93046219 41.14710385 40.91998625 C36.16988654 40.91374242 31.19282727 40.9129402 26.21562004 40.9261322 C21.53779578 40.93766446 16.86040584 40.92971325 12.18262863 40.90655518 C10.46329407 40.9012543 8.74392311 40.90280532 7.02460289 40.91160583 C4.68257075 40.92249096 2.34194199 40.90888508 0 40.8888855 C-1.3120469 40.8873774 -2.6240938 40.88586929 -3.9758997 40.88431549 C-7.12937927 40.38095093 -7.12937927 40.38095093 -9.050704 38.56394196 C-10.6185112 35.39106023 -10.55821319 32.3396912 -10.52781677 28.87704468 C-10.53068695 28.15735001 -10.53355713 27.43765533 -10.53651428 26.69615173 C-10.53855073 25.17904877 -10.53305013 23.6619193 -10.52049255 22.14486694 C-10.50440784 19.8225752 -10.52036581 17.50201743 -10.53953552 15.17977905 C-10.53755347 13.70386376 -10.53371059 12.22794954 -10.52781677 10.75204468 C-10.53388947 10.05824203 -10.53996216 9.36443939 -10.54621887 8.64961243 C-10.47720223 3.92358921 -10.47720223 3.92358921 -9.050704 1.69811058 C-6.09490687 -0.3282292 -3.55284812 0.00306281 0 0 Z " fill="#4B17EE" transform="translate(316.12937927246094,24.619049072265625)"/>
<path d="M0 0 C0.68633451 -0.00311998 1.37266903 -0.00623996 2.07980156 -0.00945449 C4.39068951 -0.01746253 6.7013169 -0.01110008 9.01220703 -0.00482178 C10.66440994 -0.0075304 12.31661164 -0.0110906 13.96881104 -0.01544189 C18.46458123 -0.02458352 22.96025994 -0.02101437 27.4560318 -0.01468372 C32.15298211 -0.00963288 36.8499244 -0.01431262 41.546875 -0.01745605 C49.43572399 -0.02109838 57.32453559 -0.01628963 65.21337891 -0.0067749 C74.3440418 0.00411016 83.47461538 0.00058477 92.60527611 -0.01042771 C100.43374078 -0.01949302 108.26217852 -0.02078958 116.09064674 -0.01555037 C120.7710377 -0.0124265 125.45138662 -0.01203274 130.1317749 -0.01862335 C134.53120877 -0.02438521 138.93052709 -0.02042131 143.32994843 -0.00883484 C144.94811562 -0.00618201 146.56629248 -0.00696389 148.18445587 -0.01136017 C150.38644987 -0.01679269 152.5880692 -0.01000985 154.79003906 0 C156.64171188 0.00113108 156.64171188 0.00113108 158.53079224 0.002285 C161.39501953 0.25396729 161.39501953 0.25396729 163.39501953 2.25396729 C163.65380859 5.01959229 163.65380859 5.01959229 163.66064453 8.50396729 C163.66322266 9.75177979 163.66580078 10.99959229 163.66845703 12.28521729 C163.66072266 13.59490479 163.65298828 14.90459229 163.64501953 16.25396729 C163.65275391 17.56365479 163.66048828 18.87334229 163.66845703 20.22271729 C163.66587891 21.47052979 163.66330078 22.71834229 163.66064453 24.00396729 C163.65838867 25.15381104 163.65613281 26.30365479 163.65380859 27.48834229 C163.39501953 30.25396729 163.39501953 30.25396729 161.39501953 32.25396729 C158.53079224 32.50564957 158.53079224 32.50564957 154.79003906 32.50793457 C154.10370455 32.51105455 153.41737003 32.51417453 152.7102375 32.51738906 C150.39934956 32.5253971 148.08872216 32.51903465 145.77783203 32.51275635 C144.12562912 32.51546497 142.47342742 32.51902517 140.82122803 32.52337646 C136.32545784 32.53251809 131.82977912 32.52894894 127.33400726 32.52261829 C122.63705695 32.51756745 117.94011467 32.52224719 113.24316406 32.52539062 C105.35431507 32.52903295 97.46550348 32.5242242 89.57666016 32.51470947 C80.44599727 32.50382441 71.31542368 32.5073498 62.18476295 32.51836228 C54.35629828 32.52742759 46.52786055 32.52872415 38.69939232 32.52348495 C34.01900137 32.52036107 29.33865244 32.51996731 24.65826416 32.52655792 C20.25883029 32.53231978 15.85951197 32.52835588 11.46009064 32.51676941 C9.84192344 32.51411659 8.22374659 32.51489846 6.60558319 32.51929474 C4.4035892 32.52472726 2.20196986 32.51794442 0 32.50793457 C-1.85167282 32.50680349 -1.85167282 32.50680349 -3.74075317 32.50564957 C-6.60498047 32.25396729 -6.60498047 32.25396729 -8.60498047 30.25396729 C-8.86376953 27.48834229 -8.86376953 27.48834229 -8.87060547 24.00396729 C-8.87318359 22.75615479 -8.87576172 21.50834229 -8.87841797 20.22271729 C-8.87068359 18.91302979 -8.86294922 17.60334229 -8.85498047 16.25396729 C-8.86271484 14.94427979 -8.87044922 13.63459229 -8.87841797 12.28521729 C-8.87583984 11.03740479 -8.87326172 9.78959229 -8.87060547 8.50396729 C-8.86834961 7.35412354 -8.86609375 6.20427979 -8.86376953 5.01959229 C-8.33018493 -0.68271557 -4.85834775 0.00296768 0 0 Z " fill="#EEF3F7" transform="translate(131.60498046875,105.74603271484375)"/>
<path d="M0 0 C0.71915179 -0.00467997 1.43830359 -0.00935994 2.17924786 -0.01418173 C4.59535203 -0.02617298 7.01089331 -0.01665872 9.42700195 -0.00723267 C11.15654838 -0.01129655 12.88609221 -0.01663739 14.6156311 -0.02316284 C19.31804875 -0.03686414 24.0202694 -0.03152622 28.72269058 -0.02202559 C33.63804922 -0.01444354 38.55339072 -0.02147054 43.46875 -0.02618408 C51.7240706 -0.03164588 59.97931075 -0.02443889 68.23461914 -0.01016235 C77.78623368 0.00616497 87.33765613 0.00087676 96.88926601 -0.01564157 C105.08210364 -0.02924435 113.27488335 -0.03118202 121.46772861 -0.02332556 C126.36445325 -0.01864239 131.26108752 -0.01804184 136.1578064 -0.02793503 C140.76085807 -0.03658486 145.36366147 -0.03061921 149.96668625 -0.01325226 C151.65860964 -0.00927678 153.35055384 -0.01043952 155.04246902 -0.01704025 C157.34711934 -0.02520423 159.65096759 -0.01499747 161.95556641 0 C163.24678909 0.00113108 164.53801178 0.00226215 165.86836243 0.00342751 C168.9777832 0.38095093 168.9777832 0.38095093 170.91667175 1.59226036 C172.30657255 3.93518339 172.05223354 5.69994604 171.9777832 8.38095093 C173.15312317 8.37981177 174.32846314 8.37867261 175.53941947 8.37749892 C227.31718198 8.32751182 279.09494649 8.28122576 330.87272644 8.25392151 C331.65612634 8.25350734 332.43952625 8.25309317 333.24666554 8.25266644 C350.27041988 8.24368856 367.29417449 8.23537789 384.3179295 8.22775494 C392.66589186 8.2240128 401.01385415 8.22012316 409.36181641 8.21615601 C410.6079268 8.21556759 410.6079268 8.21556759 411.87921113 8.21496729 C438.82525792 8.20217413 465.77128588 8.17963342 492.71732126 8.15205927 C520.3986496 8.123784 548.07996751 8.10529983 575.76131005 8.09920596 C579.66752528 8.09834144 583.57374048 8.09736453 587.47995567 8.0963192 C588.24878507 8.09611693 589.01761447 8.09591466 589.80974173 8.09570626 C602.20569965 8.0921556 614.60162541 8.07822661 626.9975702 8.06045483 C639.44761444 8.04282557 651.89762669 8.03603882 664.34768299 8.0404468 C671.09830657 8.04253331 677.84882977 8.03932839 684.59943771 8.0233345 C690.77080571 8.00881898 696.94201464 8.00794387 703.11338969 8.01825424 C705.35434664 8.01952999 707.5953132 8.01565405 709.836251 8.00630138 C712.86615989 7.99438402 715.89548312 8.00067592 718.92538166 8.01180744 C719.80951668 8.0039264 720.69365171 7.99604536 721.6045787 7.9879255 C727.52442303 8.03758308 727.52442303 8.03758308 729.70081697 9.68594955 C731.85475215 12.54500957 731.37759479 15.8962004 731.33854675 19.33448792 C731.34111003 20.15376166 731.3436733 20.97303541 731.34631425 21.81713563 C731.35126935 24.57192247 731.33473094 27.32616546 731.31835938 30.0809021 C731.31751348 32.05176277 731.31798752 34.02262438 731.31968689 35.9934845 C731.32054971 41.3527224 731.30287746 46.71175999 731.28196502 52.07095122 C731.26324605 57.66835888 731.26145155 63.26577083 731.25788879 68.86320496 C731.24855426 79.46669008 731.22392141 90.07008272 731.19384032 100.67352706 C731.16034013 112.74348699 731.14382133 124.81345127 731.12875402 136.8834461 C731.09737309 161.71599904 731.04458523 186.54846981 730.9777832 211.38095093 C730.6477832 211.38095093 730.3177832 211.38095093 729.9777832 211.38095093 C729.97447306 210.35720179 729.97116291 209.33345264 729.96775246 208.2786808 C729.88685934 183.40088449 729.79457509 158.52315047 729.69025612 133.64544106 C729.64007423 121.61490788 729.59363206 109.58438171 729.5559082 97.55380249 C729.52302949 87.07139284 729.48322132 76.58903669 729.43499315 66.106686 C729.40968705 60.55325945 729.38791803 54.99986858 729.37443924 49.44639969 C729.36165605 44.2245546 729.33964253 39.00283162 729.31040001 33.78105354 C729.30129483 31.8597387 729.2956272 29.93840418 729.29356956 28.01706886 C729.29026768 25.40332862 729.27484724 22.78993899 729.2562561 20.17626953 C729.25819084 19.4077965 729.26012557 18.63932348 729.26211894 17.84756339 C729.35643906 13.65671009 729.35643906 13.65671009 726.9777832 10.38095093 C723.97642591 10.18006881 721.06690803 10.1068565 718.06404686 10.1192379 C717.12469178 10.11524184 716.18533669 10.11124578 715.2175163 10.10712862 C712.0340683 10.09606075 708.85079142 10.09936872 705.66732788 10.10247803 C703.37633555 10.09748047 701.08534498 10.09160628 698.79435694 10.08492529 C692.47099325 10.06904594 686.14767389 10.06569027 679.82429266 10.0642767 C673.71413214 10.06194696 667.6039916 10.04832847 661.49384503 10.03587682 C648.99009729 10.01072104 636.48635378 9.99487902 623.98258591 9.98429489 C611.59738627 9.97378088 599.21220279 9.95915803 586.82701492 9.93901443 C586.05772994 9.93776557 585.28844496 9.9365167 584.49584831 9.93522999 C580.5892412 9.92886648 576.68263422 9.92242924 572.77602728 9.91596361 C545.08580069 9.87026762 517.39556886 9.83383426 489.70532227 9.80282593 C462.80004102 9.77267548 435.89477043 9.73834324 408.98950195 9.69833374 C408.16056397 9.69710274 407.331626 9.69587173 406.47756868 9.69460343 C398.15324085 9.68223686 389.82891314 9.66978512 381.50458553 9.65727095 C364.54607735 9.63177873 347.58756836 9.6068552 330.62905884 9.58227539 C329.84928707 9.58114448 329.06951529 9.58001357 328.26611407 9.57884839 C276.17001612 9.50335822 224.07390078 9.44116707 171.9777832 9.38095093 C171.99253189 10.16037552 172.00728058 10.93980011 172.0224762 11.74284363 C172.16270218 19.22483586 172.29551171 26.70691102 172.4207468 34.18916798 C172.48531458 38.03239281 172.55238421 41.87553395 172.62597656 45.71859741 C172.91766696 61.06634663 173.14508644 76.41880194 172.81762695 91.76766968 C172.81026016 92.87785965 172.80289337 93.98804962 172.79530334 95.13188171 C172.6506066 99.83541978 172.50388441 102.58479412 169.87098408 106.56920147 C166.26203744 108.82915762 164.09573212 108.99771952 159.84672546 108.98222351 C159.14008233 108.98649563 158.4334392 108.99076776 157.70538265 108.99516934 C155.34330308 109.00338944 152.98300898 108.97593387 150.62109375 108.94857788 C148.92579694 108.94716718 147.23049706 108.94795982 145.53520203 108.95079041 C140.93620342 108.95222513 136.33785671 108.9228264 131.73900962 108.88792062 C126.93173765 108.85666643 122.12445078 108.85372712 117.3170929 108.84779358 C108.21521166 108.83225238 99.11363067 108.79122015 90.01188165 108.74104613 C79.64924835 108.68516129 69.28660071 108.65766832 58.92385423 108.63256896 C37.60832964 108.58030457 16.29307533 108.49235687 -5.0222168 108.38095093 C-5.0222168 107.72095093 -5.0222168 107.06095093 -5.0222168 106.38095093 C-5.6615918 106.25720093 -6.3009668 106.13345093 -6.9597168 106.00595093 C-7.9806543 105.69657593 -7.9806543 105.69657593 -9.0222168 105.38095093 C-10.70294455 102.01949542 -10.15098508 98.22107624 -10.13574219 94.5249939 C-10.13588821 93.60786621 -10.13603424 92.69073853 -10.13618469 91.74581909 C-10.13548628 88.70490174 -10.1276972 85.66404512 -10.11987305 82.62313843 C-10.11800861 80.51849399 -10.11658483 78.41384912 -10.11558533 76.3092041 C-10.11176214 70.76238818 -10.10193354 65.21559833 -10.09088135 59.66879272 C-10.08066296 54.01165113 -10.07608679 48.35450534 -10.07104492 42.69735718 C-10.06031111 31.59187696 -10.04323706 20.48641611 -10.0222168 9.38095093 C-15.03756732 9.71055308 -15.03756732 9.71055308 -19.0222168 12.38095093 C-19.22763066 15.01340806 -19.30732197 17.54194118 -19.3006897 20.17626953 C-19.3064821 20.9906053 -19.3122745 21.80494107 -19.31824243 22.64395368 C-19.33532318 25.38786853 -19.33812583 28.13161601 -19.34106445 30.87557983 C-19.35035707 32.83644528 -19.36052473 34.79730674 -19.37150574 36.75816345 C-19.39889501 42.09464322 -19.4139815 47.43109647 -19.42693377 52.76762819 C-19.44252538 58.33972512 -19.46932816 63.91176755 -19.4949646 69.48382568 C-19.5418229 80.04123851 -19.57853281 90.5986615 -19.61163747 101.15612543 C-19.64980915 113.17290545 -19.69923221 125.18963084 -19.74962163 137.20636487 C-19.85304631 161.93118644 -19.94227235 186.65604308 -20.0222168 211.38095093 C-20.3522168 211.38095093 -20.6822168 211.38095093 -21.0222168 211.38095093 C-21.09222664 185.35602157 -21.14516557 159.33110628 -21.17765331 133.3061018 C-21.19313733 121.22286524 -21.21425613 109.1396871 -21.24853516 97.05648804 C-21.27839057 86.52759412 -21.29778063 75.99874251 -21.30448228 65.46980745 C-21.30840109 59.89226027 -21.31764261 54.31483414 -21.33940697 48.73732567 C-21.35971119 43.49169273 -21.36606291 38.24623116 -21.36153984 33.00056267 C-21.36236777 31.07158223 -21.36836938 29.1425963 -21.37983322 27.21364975 C-21.39468255 24.58704933 -21.39119828 21.96110235 -21.38298035 19.33448792 C-21.39171887 18.56503678 -21.4004574 17.79558565 -21.40946072 17.00281781 C-21.36581366 11.86838582 -21.36581366 11.86838582 -19.62735462 9.40216541 C-16.60936424 7.48207142 -13.49778099 8.21002154 -10.0222168 8.38095093 C-10.0840918 7.61782593 -10.1459668 6.85470093 -10.2097168 6.06845093 C-10.0222168 3.38095093 -10.0222168 3.38095093 -8.9493866 1.73679161 C-6.01886048 -0.32495019 -3.55365563 0.00311291 0 0 Z M-7.93255043 2.65094566 C-9.25548097 4.75129204 -9.39925833 5.96715881 -9.40316772 8.44198608 C-9.4116272 9.26636169 -9.42008667 10.0907373 -9.42880249 10.94009399 C-9.4227298 11.84096741 -9.4166571 12.74184082 -9.41040039 13.67001343 C-9.41565735 14.62148254 -9.42091431 15.57295166 -9.42633057 16.55325317 C-9.43955488 19.70431848 -9.43078375 22.85488031 -9.4206543 26.00595093 C-9.42267433 28.19166155 -9.42558517 30.37737152 -9.42935181 32.56307983 C-9.43377846 37.14631561 -9.42733302 41.72937612 -9.41333008 46.31259155 C-9.39623814 52.19425405 -9.40607748 58.0755059 -9.42404747 63.95715332 C-9.43487601 68.47123319 -9.43144322 72.98521532 -9.42366409 77.4992981 C-9.42165952 79.66828459 -9.42413035 81.83727989 -9.43110275 84.0062561 C-9.43870183 87.03504011 -9.42713444 90.06315444 -9.41040039 93.09188843 C-9.41647308 93.99276184 -9.42254578 94.89363525 -9.42880249 95.82180786 C-9.42034302 96.64618347 -9.41188354 97.47055908 -9.40316772 98.31991577 C-9.40203665 99.03593964 -9.40090557 99.7519635 -9.39974022 100.48968506 C-9.12681911 102.44314537 -9.12681911 102.44314537 -7.93255043 104.11095619 C-5.01764282 106.04879431 -2.55025864 105.75882327 0.92407227 105.76190186 C1.9905493 105.76892181 1.9905493 105.76892181 3.07857132 105.77608359 C5.4670386 105.78807404 7.8549364 105.77856091 10.2434082 105.76913452 C11.95325049 105.77319844 13.66309014 105.7785393 15.3729248 105.7850647 C20.0216259 105.79876557 24.67012772 105.79342825 29.3188324 105.78392744 C34.17813667 105.77634517 39.03742359 105.78337246 43.89672852 105.78808594 C52.05789257 105.79354768 60.21897525 105.78634092 68.38012695 105.77206421 C77.8226791 105.7557369 87.26503694 105.76102511 96.70758438 105.77754343 C104.80700471 105.79114639 112.90636646 105.79308379 121.00579453 105.78522742 C125.84662818 105.78054435 130.68737042 105.77994342 135.52819824 105.78983688 C140.07872132 105.79848699 144.62899326 105.79252058 149.17948914 105.77515411 C150.85206179 105.77117878 152.52465549 105.77234114 154.19721985 105.77894211 C156.47559904 105.78710667 158.75316703 105.77689867 161.03149414 105.76190186 C162.30796814 105.76077078 163.58444214 105.7596397 164.89959717 105.75847435 C167.9268308 105.62056421 167.9268308 105.62056421 169.88811684 104.11095619 C171.21104738 102.01060982 171.35482474 100.79474305 171.35873413 98.31991577 C171.37142334 97.08335236 171.37142334 97.08335236 171.3843689 95.82180786 C171.3782962 94.92093445 171.37222351 94.02006104 171.3659668 93.09188843 C171.37122375 92.14041931 171.37648071 91.1889502 171.38189697 90.20864868 C171.39512129 87.05758337 171.38635016 83.90702155 171.3762207 80.75595093 C171.37824074 78.5702403 171.38115158 76.38453033 171.38491821 74.19882202 C171.38934487 69.61558624 171.38289942 65.03252573 171.36889648 60.4493103 C171.35180454 54.5676478 171.36164388 48.68639596 171.37961388 42.80474854 C171.39044242 38.29066867 171.38700962 33.77668653 171.3792305 29.26260376 C171.37722592 27.09361727 171.37969675 24.92462197 171.38666916 22.75564575 C171.39426824 19.72686174 171.38270084 16.69874742 171.3659668 13.67001343 C171.37507584 12.31870331 171.37507584 12.31870331 171.3843689 10.94009399 C171.37590942 10.11571838 171.36744995 9.29134277 171.35873413 8.44198608 C171.35760305 7.72596222 171.35647198 7.00993835 171.35530663 6.2722168 C171.08238552 4.31875649 171.08238552 4.31875649 169.88811684 2.65094566 C166.97320922 0.71310755 164.50582505 1.00307859 161.03149414 1 C159.96501711 0.99298004 159.96501711 0.99298004 158.87699509 0.98581827 C156.4885278 0.97382781 154.10063001 0.98334095 151.7121582 0.99276733 C150.00231592 0.98870342 148.29247626 0.98336255 146.5826416 0.97683716 C141.93394051 0.96313629 137.28543868 0.9684736 132.63673401 0.97797441 C127.77742974 0.98555668 122.91814281 0.9785294 118.05883789 0.97381592 C109.89767384 0.96835418 101.73659116 0.97556094 93.57543945 0.98983765 C84.1328873 1.00616496 74.69052946 1.00087675 65.24798203 0.98435843 C57.14856169 0.97075547 49.04919994 0.96881807 40.94977188 0.97667444 C36.10893823 0.98135751 31.26819598 0.98195844 26.42736816 0.97206497 C21.87684509 0.96341487 17.32657314 0.96938127 12.77607727 0.98674774 C11.10350461 0.99072308 9.43091091 0.98956072 7.75834656 0.98295975 C5.47996737 0.97479519 3.20239938 0.98500318 0.92407227 1 C-0.35240173 1.00113108 -1.62887573 1.00226215 -2.94403076 1.00342751 C-5.97126439 1.14133764 -5.97126439 1.14133764 -7.93255043 2.65094566 Z " fill="#6E7073" transform="translate(128.022216796875,68.61904907226563)"/>
<path d="M0 0 C1.06670032 -0.00935994 1.06670032 -0.00935994 2.15495014 -0.01890898 C4.53812618 -0.03486548 6.92028315 -0.0222252 9.3034668 -0.00964355 C11.01183672 -0.01506352 12.72020197 -0.02218548 14.42855835 -0.03088379 C19.06905428 -0.04913505 23.70919489 -0.04204222 28.34969711 -0.02936745 C33.20319332 -0.0192491 38.05665886 -0.02862988 42.91015625 -0.03491211 C51.06117217 -0.04219191 59.21204318 -0.03259207 67.36303711 -0.0135498 C76.79030502 0.00821958 86.21722691 0.00116844 95.64448643 -0.02085543 C103.73461401 -0.03899994 111.82463735 -0.0415724 119.91477871 -0.03110075 C124.74838878 -0.02486059 129.58183614 -0.02404451 134.41543579 -0.0372467 C138.95948124 -0.04879079 143.50308005 -0.040806 148.04707718 -0.01766968 C149.71600223 -0.01237485 151.38496478 -0.01390958 153.05387497 -0.02272034 C155.32988327 -0.03362949 157.60445471 -0.01997042 159.88037109 0 C161.15462448 0.0015081 162.42887787 0.0030162 163.741745 0.00457001 C166.94018555 0.50793457 166.94018555 0.50793457 169.34907532 2.32019806 C171.63728927 5.46643465 171.51412454 8.44942199 171.47143555 12.19543457 C171.47526245 12.93495361 171.47908936 13.67447266 171.48303223 14.43640137 C171.48574826 15.99639247 171.47840847 17.55642935 171.46166992 19.11633301 C171.44025228 21.50050643 171.46147818 23.88166706 171.48706055 26.26574707 C171.48441721 27.78398287 171.4792921 29.3022168 171.47143555 30.82043457 C171.47953247 31.53094971 171.48762939 32.24146484 171.49597168 32.97351074 C171.43638337 36.12807413 171.22580348 38.1152171 169.34907532 40.69567108 C166.07644075 43.15774976 163.9561826 43.01104534 159.88037109 43.01586914 C159.16923755 43.0221091 158.458104 43.02834907 157.72542095 43.03477812 C155.34224491 43.05073462 152.96008794 43.03809434 150.5769043 43.0255127 C148.86853437 43.03093267 147.16016912 43.03805462 145.45181274 43.04675293 C140.81131682 43.06500419 136.1711762 43.05791136 131.53067398 43.04523659 C126.67717777 43.03511824 121.82371223 43.04449902 116.97021484 43.05078125 C108.81919892 43.05806106 100.66832791 43.04846122 92.51733398 43.02941895 C83.09006608 43.00764956 73.66314419 43.0147007 64.23588467 43.03672457 C56.14575708 43.05486908 48.05573374 43.05744154 39.96559238 43.04696989 C35.13198232 43.04072973 30.29853495 43.03991365 25.4649353 43.05311584 C20.92088985 43.06465993 16.37729105 43.05667514 11.83329391 43.03353882 C10.16436887 43.02824399 8.49540631 43.02977873 6.82649612 43.03858948 C4.55048783 43.04949863 2.27591638 43.03583956 0 43.01586914 C-1.27425339 43.01436104 -2.54850677 43.01285294 -3.8613739 43.01129913 C-7.05981445 42.50793457 -7.05981445 42.50793457 -9.46870422 40.69567108 C-11.75691818 37.54943449 -11.63375345 34.56644715 -11.59106445 30.82043457 C-11.59489136 30.08091553 -11.59871826 29.34139648 -11.60266113 28.57946777 C-11.60537717 27.01947667 -11.59803737 25.45943979 -11.58129883 23.89953613 C-11.55988118 21.51536271 -11.58110708 19.13420208 -11.60668945 16.75012207 C-11.60404612 15.23188627 -11.59892101 13.71365234 -11.59106445 12.19543457 C-11.59916138 11.48491943 -11.6072583 10.7744043 -11.61560059 10.0423584 C-11.55601227 6.88779502 -11.34543239 4.90065204 -9.46870422 2.32019806 C-6.19606966 -0.14188062 -4.07581151 0.0048238 0 0 Z M-7.96495056 3.82983971 C-9.79783354 6.63909439 -9.44970344 9.39652113 -9.45825195 12.69543457 C-9.46112213 13.39434814 -9.46399231 14.09326172 -9.46694946 14.81335449 C-9.46898871 16.28935558 -9.46346848 17.76538378 -9.45092773 19.24133301 C-9.43487025 21.50008595 -9.45077916 23.75704975 -9.4699707 26.01574707 C-9.46798824 27.45064685 -9.46414451 28.88554552 -9.45825195 30.32043457 C-9.45486816 31.62625488 -9.45148438 32.9320752 -9.44799805 34.27746582 C-9.31629184 37.38532879 -9.31629184 37.38532879 -7.96495056 39.18602943 C-5.07980661 41.18792662 -2.67404315 40.88576173 0.81054688 40.8888855 C1.86477325 40.89590546 1.86477325 40.89590546 2.94029713 40.90306723 C5.30112758 40.91505688 7.66138178 40.90554489 10.0222168 40.89611816 C11.71235494 40.90018212 13.40249042 40.905523 15.09262085 40.91204834 C19.68760541 40.92574878 24.28238837 40.92041208 28.87737656 40.91091108 C33.68062646 40.90332859 38.48385882 40.91035616 43.28710938 40.91506958 C51.35411689 40.92053125 59.42104208 40.91332473 67.48803711 40.89904785 C76.82152689 40.88272055 86.15482008 40.88800877 95.48830509 40.90452707 C103.49430814 40.91813022 111.50025192 40.92006734 119.50626278 40.91221106 C124.29120545 40.90752809 129.07605566 40.90692678 133.86099243 40.91682053 C138.35898693 40.92547091 142.85672738 40.91950373 147.35469437 40.90213776 C149.00791629 40.89816257 150.6611595 40.89932453 152.31437302 40.90592575 C154.56648115 40.91409091 156.81776876 40.90388165 159.06982422 40.8888855 C160.33154953 40.88775442 161.59327484 40.88662334 162.89323425 40.88545799 C165.90330839 40.75212492 165.90330839 40.75212492 167.84532166 39.18602943 C169.67820463 36.37677475 169.33007453 33.61934801 169.33862305 30.32043457 C169.34149323 29.621521 169.3443634 28.92260742 169.34732056 28.20251465 C169.3493598 26.72651356 169.34383957 25.25048536 169.33129883 23.77453613 C169.31524134 21.51578319 169.33115025 19.25881939 169.3503418 17.00012207 C169.34835934 15.56522229 169.3445156 14.13032362 169.33862305 12.69543457 C169.33354736 10.7367041 169.33354736 10.7367041 169.32836914 8.73840332 C169.19666293 5.63054035 169.19666293 5.63054035 167.84532166 3.82983971 C164.9601777 1.82794252 162.55441424 2.13010741 159.06982422 2.12698364 C158.01559784 2.11996368 158.01559784 2.11996368 156.94007397 2.11280191 C154.57924352 2.10081226 152.21898931 2.11032425 149.8581543 2.11975098 C148.16801616 2.11568702 146.47788067 2.11034614 144.78775024 2.1038208 C140.19276568 2.09012036 135.59798272 2.09545706 131.00299454 2.10495806 C126.19974464 2.11254055 121.39651228 2.10551298 116.59326172 2.10079956 C108.5262542 2.09533789 100.45932901 2.10254441 92.39233398 2.11682129 C83.05884421 2.13314859 73.72555101 2.12786037 64.392066 2.11134207 C56.38606296 2.09773892 48.38011918 2.0958018 40.37410831 2.10365808 C35.58916564 2.10834105 30.80431544 2.10894236 26.01937866 2.09904861 C21.52138416 2.09039823 17.02364371 2.09636541 12.52567673 2.11373138 C10.87245481 2.11770657 9.2192116 2.11654461 7.56599808 2.10994339 C5.31388995 2.10177823 3.06260234 2.11198749 0.81054688 2.12698364 C-0.45117844 2.12811472 -1.71290375 2.1292458 -3.01286316 2.13041115 C-6.02293729 2.26374422 -6.02293729 2.26374422 -7.96495056 3.82983971 Z " fill="#E5EAF7" transform="translate(128.059814453125,23.4920654296875)"/>
<path d="M0 0 C8 0 8 0 11.0625 1.9375 C13.43786695 5.69211227 13.41582829 7.6945427 12.6328125 11.97265625 C12 14 12 14 10.4375 16.0625 C8 17 8 17 0 17 C0 11.39 0 5.78 0 0 Z " fill="#151728" transform="translate(490,103)"/>
<path d="M0 0 C-0.33 0.66 -0.66 1.32 -1 2 C-3.5625 2.625 -3.5625 2.625 -6 3 C-6 4.98 -6 6.96 -6 9 C-3.03 9.495 -3.03 9.495 0 10 C1.32 6.37 2.64 2.74 4 -1 C5.65 -0.67 7.3 -0.34 9 0 C9.50512244 1.60256108 10.00391627 3.20711792 10.5 4.8125 C10.7784375 5.70582031 11.056875 6.59914062 11.34375 7.51953125 C12 10 12 10 12 13 C11.01 13 10.02 13 9 13 C8.67 12.34 8.34 11.68 8 11 C5.97536745 10.34786708 5.97536745 10.34786708 4 10 C4 10.99 4 11.98 4 13 C2.22992286 13.08114106 0.45877902 13.13925505 -1.3125 13.1875 C-2.29863281 13.22230469 -3.28476563 13.25710937 -4.30078125 13.29296875 C-7 13 -7 13 -8.83203125 11.73828125 C-10.88999773 8.67542144 -10.52315315 5.54417838 -10 2 C-7.75198885 -2.36378636 -4.22539083 -0.87696791 0 0 Z " fill="#323342" transform="translate(151,214)"/>
<path d="M0 0 C1.65 0 3.3 0 5 0 C5.66 1.98 6.32 3.96 7 6 C7.33 4.02 7.66 2.04 8 0 C9.65 0 11.3 0 13 0 C13.95261487 4.76307437 14.08333357 9.1666528 14 14 C12.68 14 11.36 14 10 14 C9.67 13.34 9.34 12.68 9 12 C7.68 12.33 6.36 12.66 5 13 C4.67 12.34 4.34 11.68 4 11 C3.67 11.99 3.34 12.98 3 14 C2.01 14 1.02 14 0 14 C0 9.38 0 4.76 0 0 Z " fill="#2B2D3C" transform="translate(239,213)"/>
<path d="M0 0 C1.65 0 3.3 0 5 0 C5.33 1.98 5.66 3.96 6 6 C6.66 4.02 7.32 2.04 8 0 C9.65 0 11.3 0 13 0 C13 4.62 13 9.24 13 14 C12.01 14 11.02 14 10 14 C9.67 12.35 9.34 10.7 9 9 C8.67 10.32 8.34 11.64 8 13 C6.68 12.67 5.36 12.34 4 12 C3.67 12.66 3.34 13.32 3 14 C1.68 14 0.36 14 -1 14 C-0.67 9.38 -0.34 4.76 0 0 Z " fill="#1B1D2D" transform="translate(255,213)"/>
<path d="M0 0 C2.32749345 3.49124017 2.50299316 4.89222251 2 9 C-0.01200619 11.83171242 -1.12071767 12.84987863 -4.5625 13.4375 C-7 13 -7 13 -8.8125 12 C-10.71481722 8.79609732 -10.53498173 5.62431285 -10 2 C-7.76411593 -2.34024556 -4.18639275 -1.06562725 0 0 Z " fill="#181A2A" transform="translate(515,107)"/>
<path d="M0 0 C1.32 0 2.64 0 4 0 C4.66 0.66 5.32 1.32 6 2 C6.66 1.34 7.32 0.68 8 0 C10.625 0.375 10.625 0.375 13 1 C13.625 3.8125 13.625 3.8125 14 7 C13.01 8.485 13.01 8.485 12 10 C9.375 10.1875 9.375 10.1875 7 10 C7 9.34 7 8.68 7 8 C6.01 8 5.02 8 4 8 C4 8.66 4 9.32 4 10 C2.33388095 10.042721 0.66617115 10.04063832 -1 10 C-2 9 -2 9 -2.1875 5.5625 C-2 2 -2 2 0 0 Z " fill="#393A49" transform="translate(633,138)"/>
<path d="M0 0 C1.32 0 2.64 0 4 0 C4.66 0.66 5.32 1.32 6 2 C6.66 1.34 7.32 0.68 8 0 C10.625 0.375 10.625 0.375 13 1 C13.625 3.8125 13.625 3.8125 14 7 C13.01 8.485 13.01 8.485 12 10 C9.375 10.1875 9.375 10.1875 7 10 C7 9.34 7 8.68 7 8 C6.01 8 5.02 8 4 8 C4 8.66 4 9.32 4 10 C2.33388095 10.042721 0.66617115 10.04063832 -1 10 C-2 9 -2 9 -2.1875 5.5625 C-2 2 -2 2 0 0 Z " fill="#393A49" transform="translate(519,138)"/>
<path d="M0 0 C3.5 0.5625 3.5 0.5625 5.9375 2.1875 C7.92769679 5.21259912 7.96382725 7.00649109 7.5 10.5625 C5.5 12.5625 5.5 12.5625 3.58984375 12.79296875 C-2.38888889 12.67361111 -2.38888889 12.67361111 -3.5 11.5625 C-3.6875 9.125 -3.6875 9.125 -3.5 6.5625 C-1.5 4.5625 -1.5 4.5625 1.125 4.4375 C1.90875 4.47875 2.6925 4.52 3.5 4.5625 C3.5 6.5425 3.5 8.5225 3.5 10.5625 C4.16 10.5625 4.82 10.5625 5.5 10.5625 C4.84 8.2525 4.18 5.9425 3.5 3.5625 C1.16705225 3.52008277 -1.16702567 3.52157063 -3.5 3.5625 C-4.69695276 4.54160585 -4.69695276 4.54160585 -4.6328125 6.375 C-4.63023437 7.096875 -4.62765625 7.81875 -4.625 8.5625 C-4.62757813 9.284375 -4.63015625 10.00625 -4.6328125 10.75 C-4.69695276 12.58339415 -4.69695276 12.58339415 -3.5 13.5625 C-1.17182036 13.93010731 1.1618385 14.26491581 3.5 14.5625 C3.5 15.2225 3.5 15.8825 3.5 16.5625 C-2.75 17.04326923 -2.75 17.04326923 -5.9375 15 C-8.11348954 11.60545632 -8.05627159 9.5259351 -7.5 5.5625 C-5.40973646 1.63280455 -4.43218827 0.71231597 0 0 Z " fill="#393A48" transform="translate(458.5,135.4375)"/>
<path d="M0 0 C1.258125 -0.04125 2.51625 -0.0825 3.8125 -0.125 C4.52019531 -0.14820313 5.22789062 -0.17140625 5.95703125 -0.1953125 C8 0 8 0 11 2 C10.814375 3.2375 10.62875 4.475 10.4375 5.75 C10.05288777 8.76279577 9.9125406 11.10010827 11 14 C9.125 13.75 9.125 13.75 7 13 C5.75 10.9375 5.75 10.9375 5 9 C4.67 10.65 4.34 12.3 4 14 C2.68 14 1.36 14 0 14 C0 9.38 0 4.76 0 0 Z " fill="#353645" transform="translate(197,213)"/>
<path d="M0 0 C7.75 -0.125 7.75 -0.125 10 1 C10 2.98 10 4.96 10 7 C9.34 7 8.68 7 8 7 C8.495 7.78375 8.99 8.5675 9.5 9.375 C11 12 11 12 11 14 C9.68 14 8.36 14 7 14 C6.34 12.35 5.68 10.7 5 9 C4.67 10.65 4.34 12.3 4 14 C2.68 14 1.36 14 0 14 C0 9.38 0 4.76 0 0 Z " fill="#2F3140" transform="translate(282,213)"/>
<path d="M0 0 C7.75 -0.125 7.75 -0.125 10 1 C10 2.98 10 4.96 10 7 C9.34 7 8.68 7 8 7 C8.495 7.78375 8.99 8.5675 9.5 9.375 C11 12 11 12 11 14 C9.68 14 8.36 14 7 14 C6.34 12.35 5.68 10.7 5 9 C4.67 10.65 4.34 12.3 4 14 C2.68 14 1.36 14 0 14 C0 9.38 0 4.76 0 0 Z " fill="#2F3140" transform="translate(164,213)"/>
<path d="M0 0 C6.45672625 -0.36547507 6.45672625 -0.36547507 8.71875 1.15625 C10.50895567 3.73239963 10.2969848 5.5854308 10.1875 8.6875 C10.16042969 9.68136719 10.13335937 10.67523438 10.10546875 11.69921875 C10.07066406 12.45847656 10.03585937 13.21773437 10 14 C9.09121094 13.73703125 9.09121094 13.73703125 8.1640625 13.46875 C5.51896643 12.895805 3.62350037 13.44768413 1 14 C0.34 13.67 -0.32 13.34 -1 13 C-1.125 10.625 -1.125 10.625 -1 8 C1 6 1 6 3.625 5.875 C4.40875 5.91625 5.1925 5.9575 6 6 C6 5.01 6 4.02 6 3 C4.02 3 2.04 3 0 3 C0 2.01 0 1.02 0 0 Z " fill="#161828" transform="translate(444,106)"/>
<path d="M0 0 C0.33 2.31 0.66 4.62 1 7 C-1.31 7 -3.62 7 -6 7 C-5.67 7.66 -5.34 8.32 -5 9 C-3.35 9 -1.7 9 0 9 C0.33 9.99 0.66 10.98 1 12 C-1.82883747 13.41441874 -3.87376745 13.31900332 -7 13 C-9.83268842 10.63942631 -9.98743809 9.11933812 -10.375 5.4375 C-10 2 -10 2 -8.9375 0 C-5.86664787 -1.58495594 -3.27813225 -0.68036707 0 0 Z " fill="#101223" transform="translate(480,107)"/>
<path d="M0 0 C1.8125 1.1875 1.8125 1.1875 3 3 C3.1875 5.6875 3.1875 5.6875 3 8 C0.69 8 -1.62 8 -4 8 C-4 8.99 -4 9.98 -4 11 C-2.02 10.67 -0.04 10.34 2 10 C1.67 11.32 1.34 12.64 1 14 C-4.33333333 14.35555556 -4.33333333 14.35555556 -6.875 13 C-8.68324933 9.78533453 -8.54662881 6.59427161 -8 3 C-5.99552859 -0.37595184 -3.7543224 -0.56314836 0 0 Z " fill="#272938" transform="translate(527,106)"/>
<path d="M0 0 C1.32 0.33 2.64 0.66 4 1 C4.86625 0.814375 5.7325 0.62875 6.625 0.4375 C7.40875 0.293125 8.1925 0.14875 9 0 C11 2 11 2 11.1953125 4.8203125 C11.16050781 6.45613281 11.16050781 6.45613281 11.125 8.125 C11.10695313 9.22070312 11.08890625 10.31640625 11.0703125 11.4453125 C11.04710937 12.28835937 11.02390625 13.13140625 11 14 C9.68 14 8.36 14 7 14 C7 10.37 7 6.74 7 3 C6.01 3.33 5.02 3.66 4 4 C3.67 7.3 3.34 10.6 3 14 C2.01 14 1.02 14 0 14 C0 9.38 0 4.76 0 0 Z " fill="#171829" transform="translate(457,106)"/>
<path d="M0 0 C1.65 0.33 3.3 0.66 5 1 C5.50512244 2.60256108 6.00391627 4.20711792 6.5 5.8125 C6.7784375 6.70582031 7.056875 7.59914062 7.34375 8.51953125 C8 11 8 11 8 14 C7.01 14 6.02 14 5 14 C4.67 13.34 4.34 12.68 4 12 C1.97536745 11.34786708 1.97536745 11.34786708 0 11 C0 11.99 0 12.98 0 14 C-1.32 13.67 -2.64 13.34 -4 13 C-2.68 8.71 -1.36 4.42 0 0 Z " fill="#171929" transform="translate(273,213)"/>
<path d="M0 0 C0.99 0 1.98 0 3 0 C3 3.63 3 7.26 3 11 C4.32 11 5.64 11 7 11 C7 7.37 7 3.74 7 0 C8.32 0 9.64 0 11 0 C11.08114106 1.77007714 11.13925505 3.54122098 11.1875 5.3125 C11.22230469 6.29863281 11.25710937 7.28476563 11.29296875 8.30078125 C11 11 11 11 9.6796875 12.8359375 C7.1105353 14.61641972 5.0339552 14.32276119 2 14 C0 12 0 12 -0.1953125 9.1796875 C-0.17210937 8.08914062 -0.14890625 6.99859375 -0.125 5.875 C-0.10695312 4.77929688 -0.08890625 3.68359375 -0.0703125 2.5546875 C-0.04710937 1.71164063 -0.02390625 0.86859375 0 0 Z " fill="#2A2B3A" transform="translate(226,213)"/>
<path d="M0 0 C1.67542976 0.28604898 3.34385343 0.61781233 5 1 C5.33 1.99 5.66 2.98 6 4 C6.66 4 7.32 4 8 4 C8 2.68 8 1.36 8 0 C9.98 0 11.96 0 14 0 C14 0.66 14 1.32 14 2 C13.01 2.33 12.02 2.66 11 3 C10.67 5.31 10.34 7.62 10 10 C9.34 10 8.68 10 8 10 C7.67 8.68 7.34 7.36 7 6 C6.34 7.32 5.68 8.64 5 10 C0.125 9.125 0.125 9.125 -1 8 C-1.125 4.5 -1.125 4.5 -1 1 C-0.67 0.67 -0.34 0.34 0 0 Z " fill="#909199" transform="translate(803,138)"/>
<path d="M0 0 C0.33 0.99 0.66 1.98 1 3 C-0.65 3 -2.3 3 -4 3 C-4 3.66 -4 4.32 -4 5 C-2.02 5.66 -0.04 6.32 2 7 C2.125 9.375 2.125 9.375 2 12 C0 14 0 14 -3 14.1875 C-6 14 -6 14 -8 13 C-8 12.34 -8 11.68 -8 11 C-5.69 11 -3.38 11 -1 11 C-2.50663783 7.98672434 -5.03166411 7.38943382 -8 6 C-7.625 3.5625 -7.625 3.5625 -7 1 C-4.53721199 -0.231394 -2.7204945 -0.07159196 0 0 Z " fill="#222333" transform="translate(222,213)"/>
<path d="M0 0 C1.32 0 2.64 0 4 0 C4.08089542 2.77141717 4.14044062 5.54047819 4.1875 8.3125 C4.22520508 9.49102539 4.22520508 9.49102539 4.26367188 10.69335938 C4.27333984 11.45068359 4.28300781 12.20800781 4.29296875 12.98828125 C4.3086792 13.68477783 4.32438965 14.38127441 4.34057617 15.09887695 C3.89122619 17.60718396 3.01981426 18.48831511 1 20 C0.01 20 -0.98 20 -2 20 C-1.84152588 19.42024414 -1.68305176 18.84048828 -1.51977539 18.24316406 C-0.71911382 14.78779602 -0.62776918 11.28089697 -0.4375 7.75 C-0.39431641 7.00492187 -0.35113281 6.25984375 -0.30664062 5.4921875 C-0.20103275 3.661651 -0.10005799 1.83084824 0 0 Z " fill="#1B1D2D" transform="translate(437,103)"/>
<path d="M0 0 C1.2065625 0.0309375 1.2065625 0.0309375 2.4375 0.0625 C3.6273968 4.37587592 3.37878806 7.70904271 2.4375 12.0625 C0.0625 12.1875 0.0625 12.1875 -2.5625 12.0625 C-4.5625 10.0625 -4.5625 10.0625 -4.57421875 7.93359375 C-4.46722656 7.13050781 -4.36023438 6.32742187 -4.25 5.5 C-4.15074219 4.69433594 -4.05148437 3.88867188 -3.94921875 3.05859375 C-3.3681349 0.05926196 -3.12049841 0.07610972 0 0 Z " fill="#70717C" transform="translate(306.5625,135.9375)"/>
<path d="M0 0 C0.66 0 1.32 0 2 0 C2 4.29 2 8.58 2 13 C0.02 13 -1.96 13 -4 13 C-6 11 -6 11 -6.25 8 C-6 5 -6 5 -4 3 C-3.01 3 -2.02 3 -1 3 C-0.67 2.01 -0.34 1.02 0 0 Z " fill="#95969E" transform="translate(446,135)"/>
<path d="M0 0 C-0.020625 0.7425 -0.04125 1.485 -0.0625 2.25 C-0.11733104 4.93826222 -0.11733104 4.93826222 0.625 7.1875 C0.74875 7.785625 0.8725 8.38375 1 9 C-1 11 -1 11 -3.625 11.125 C-4.40875 11.08375 -5.1925 11.0425 -6 11 C-6.814709 7.23197087 -7 3.85318348 -7 0 C-4.3333581 -1.33332095 -2.83319697 -0.67102033 0 0 Z " fill="#70727C" transform="translate(328,137)"/>
<path d="M0 0 C1.2065625 0.0309375 1.2065625 0.0309375 2.4375 0.0625 C3.31553368 3.79414314 3.61173601 7.22930771 3.4375 11.0625 C2.4375 12.0625 2.4375 12.0625 -0.0625 12.1875 C-2.5625 12.0625 -2.5625 12.0625 -3.5625 11.0625 C-3.66073937 9.39820949 -3.69223631 7.72968069 -3.6875 6.0625 C-3.69007813 5.155 -3.69265625 4.2475 -3.6953125 3.3125 C-3.50465529 0.08254264 -3.25740423 0.07944888 0 0 Z " fill="#71727D" transform="translate(343.5625,135.9375)"/>
<path d="M0 0 C1.67542976 0.28604898 3.34385343 0.61781233 5 1 C5 2.32 5 3.64 5 5 C5.30830925 7.00401011 5.63729412 9.00511766 6 11 C3.125 11.625 3.125 11.625 0 12 C-2 10 -2 10 -2.01171875 7.87109375 C-1.90472656 7.06800781 -1.79773438 6.26492187 -1.6875 5.4375 C-1.58824219 4.63183594 -1.48898437 3.82617188 -1.38671875 2.99609375 C-1 1 -1 1 0 0 Z " fill="#565763" transform="translate(351,136)"/>
<path d="M0 0 C0.66 0 1.32 0 2 0 C3.09658936 3.28976808 2.79953138 4.71303767 2 8 C2.66 8 3.32 8 4 8 C4 8.66 4 9.32 4 10 C2.68 10 1.36 10 0 10 C-0.33 9.34 -0.66 8.68 -1 8 C-1.66 8.66 -2.32 9.32 -3 10 C-5.625 10.125 -5.625 10.125 -8 10 C-7.814375 9.236875 -7.62875 8.47375 -7.4375 7.6875 C-6.77180827 4.91032625 -6.77180827 4.91032625 -8 2 C-5.36 2 -2.72 2 0 2 C0 1.34 0 0.68 0 0 Z " fill="#4F505D" transform="translate(196,84)"/>
<path d="M0 0 C0.66 0 1.32 0 2 0 C2 0.99 2 1.98 2 3 C2.928125 3.2165625 2.928125 3.2165625 3.875 3.4375 C6 4 6 4 8 5 C8 4.34 8 3.68 8 3 C9.65 3.33 11.3 3.66 13 4 C13 5.98 13 7.96 13 10 C10.6875 10.625 10.6875 10.625 8 11 C7.01 10.34 6.02 9.68 5 9 C5 7.68 5 6.36 5 5 C4.01 5 3.02 5 2 5 C2 6.65 2 8.3 2 10 C1.01 10.495 1.01 10.495 0 11 C0 7.37 0 3.74 0 0 Z " fill="#A992F5" transform="translate(447,38)"/>
<path d="M0 0 C2.64 0 5.28 0 8 0 C8 0.66 8 1.32 8 2 C6.35 2 4.7 2 3 2 C3 3.32 3 4.64 3 6 C4.32 6 5.64 6 7 6 C7 6.66 7 7.32 7 8 C5.68 8 4.36 8 3 8 C3 9.32 3 10.64 3 12 C4.65 12 6.3 12 8 12 C8 12.66 8 13.32 8 14 C5.36 14 2.72 14 0 14 C0 9.38 0 4.76 0 0 Z " fill="#050719" transform="translate(187,213)"/>
<path d="M0 0 C2.64 0 5.28 0 8 0 C8 0.66 8 1.32 8 2 C6.35 2 4.7 2 3 2 C3 3.32 3 4.64 3 6 C4.32 6 5.64 6 7 6 C7 6.66 7 7.32 7 8 C5.68 8 4.36 8 3 8 C3 9.32 3 10.64 3 12 C4.65 12 6.3 12 8 12 C8 12.66 8 13.32 8 14 C5.36 14 2.72 14 0 14 C0 9.38 0 4.76 0 0 Z " fill="#080A1B" transform="translate(177,213)"/>
<path d="M0 0 C1.81242052 -0.02687279 3.62495233 -0.04633715 5.4375 -0.0625 C6.44683594 -0.07410156 7.45617187 -0.08570313 8.49609375 -0.09765625 C11 0 11 0 12 1 C12.07179964 2.51928038 12.08392007 4.04167482 12.0625 5.5625 C12.05347656 6.38878906 12.04445313 7.21507812 12.03515625 8.06640625 C12.02355469 8.70449219 12.01195312 9.34257812 12 10 C11.34 10 10.68 10 10 10 C10 7.36 10 4.72 10 2 C9.01 2 8.02 2 7 2 C7 4.64 7 7.28 7 10 C6.34 10 5.68 10 5 10 C5 7.36 5 4.72 5 2 C4.01 2 3.02 2 2 2 C2 4.64 2 7.28 2 10 C1.34 10 0.68 10 0 10 C0 6.7 0 3.4 0 0 Z " fill="#363846" transform="translate(760,138)"/>
<path d="M0 0 C4.55555556 0.55555556 4.55555556 0.55555556 6 2 C6.1875 4.9375 6.1875 4.9375 6 8 C5.34 8.66 4.68 9.32 4 10 C-0.55555556 9.44444444 -0.55555556 9.44444444 -2 8 C-2.1875 5.0625 -2.1875 5.0625 -2 2 C-1.34 1.34 -0.68 0.68 0 0 Z " fill="#373947" transform="translate(708,138)"/>
<path d="M0 0 C0.33 0 0.66 0 1 0 C1 4.29 1 8.58 1 13 C-0.98 13 -2.96 13 -5 13 C-6 12 -6 12 -6.125 8.5625 C-6 5 -6 5 -5 3 C-3.68 3 -2.36 3 -1 3 C-0.67 2.01 -0.34 1.02 0 0 Z " fill="#2A2B3B" transform="translate(607,135)"/>
<path d="M0 0 C4.55555556 0.55555556 4.55555556 0.55555556 6 2 C6.1875 4.9375 6.1875 4.9375 6 8 C5.34 8.66 4.68 9.32 4 10 C-0.55555556 9.44444444 -0.55555556 9.44444444 -2 8 C-2.1875 5.0625 -2.1875 5.0625 -2 2 C-1.34 1.34 -0.68 0.68 0 0 Z " fill="#373947" transform="translate(393,138)"/>
<path d="M0 0 C-0.33 0.66 -0.66 1.32 -1 2 C-3.5625 2.625 -3.5625 2.625 -6 3 C-6 4.98 -6 6.96 -6 9 C-4.35 9.33 -2.7 9.66 -1 10 C-1.33 10.99 -1.66 11.98 -2 13 C-4.6664882 13.21620175 -6.44004321 13.30894168 -8.8125 12 C-10.71481722 8.79609732 -10.53498173 5.62431285 -10 2 C-7.75198885 -2.36378636 -4.22539083 -0.87696791 0 0 Z " fill="#191B2C" transform="translate(151,214)"/>
<path d="M0 0 C1.875 0.3125 1.875 0.3125 4 1 C4.66 1.99 5.32 2.98 6 4 C6.66 2.68 7.32 1.36 8 0 C8.99 0 9.98 0 11 0 C10.566875 1.2375 10.566875 1.2375 10.125 2.5 C8.90101549 6.30795181 7.9383118 10.11270827 7 14 C6.01 14 5.02 14 4 14 C3.71125 12.80375 3.4225 11.6075 3.125 10.375 C2.2475666 6.85273164 1.19979363 3.42798179 0 0 Z " fill="#121425" transform="translate(293,213)"/>
<path d="M0 0 C1.32 0 2.64 0 4 0 C6.1519437 3.22791555 6.20086443 4.28400809 6 8 C5.34 8 4.68 8 4 8 C4 8.66 4 9.32 4 10 C2.33388095 10.042721 0.66617115 10.04063832 -1 10 C-2 9 -2 9 -2.1875 5.5625 C-2 2 -2 2 0 0 Z " fill="#EBECED" transform="translate(633,138)"/>
<path d="M0 0 C1.32 0 2.64 0 4 0 C6.1519437 3.22791555 6.20086443 4.28400809 6 8 C5.34 8 4.68 8 4 8 C4 8.66 4 9.32 4 10 C2.33388095 10.042721 0.66617115 10.04063832 -1 10 C-2 9 -2 9 -2.1875 5.5625 C-2 2 -2 2 0 0 Z " fill="#EBECED" transform="translate(519,138)"/>
<path d="M0 0 C1 2 1 2 0.0625 5.125 C-0.288125 6.07375 -0.63875 7.0225 -1 8 C-1.99 8 -2.98 8 -4 8 C-4 8.66 -4 9.32 -4 10 C-2.35 10.33 -0.7 10.66 1 11 C0.67 12.32 0.34 13.64 0 15 C-1.98 15 -3.96 15 -6 15 C-6 14.01 -6 13.02 -6 12 C-4.35 12.33 -2.7 12.66 -1 13 C-1.61875 12.773125 -2.2375 12.54625 -2.875 12.3125 C-5.68240771 10.57851288 -6.17387474 9.15429646 -7 6 C-7 3.8125 -7 3.8125 -6 2 C-2.9375 0.75 -2.9375 0.75 0 0 Z " fill="#545562" transform="translate(475,137)"/>
<path d="M0 0 C1.65 0 3.3 0 5 0 C5 0.66 5 1.32 5 2 C4.01 2 3.02 2 2 2 C2 2.66 2 3.32 2 4 C2.721875 3.649375 3.44375 3.29875 4.1875 2.9375 C7.3122705 1.89590983 8.88161996 2.10903428 12 3 C12 3.99 12 4.98 12 6 C10.68 6 9.36 6 8 6 C8 6.66 8 7.32 8 8 C9.32 8.33 10.64 8.66 12 9 C10.35 9.33 8.7 9.66 7 10 C6.34 9.01 5.68 8.02 5 7 C2.94074861 6.27617533 2.94074861 6.27617533 1 6 C0.67 7.32 0.34 8.64 0 10 C0 6.7 0 3.4 0 0 Z " fill="#CABEF8" transform="translate(417,39)"/>
<path d="M0 0 C4.55555556 0.55555556 4.55555556 0.55555556 6 2 C6.375 4.75 6.375 4.75 6 8 C3.625 10.875 3.625 10.875 1 13 C0.34 13 -0.32 13 -1 13 C-1 12.34 -1 11.68 -1 11 C1 9.375 1 9.375 3 8 C1.68 7.67 0.36 7.34 -1 7 C-1.625 4.625 -1.625 4.625 -2 2 C-1.34 1.34 -0.68 0.68 0 0 Z " fill="#3A3B49" transform="translate(332,136)"/>
<path d="M0 0 C4.29 0 8.58 0 13 0 C13 0.66 13 1.32 13 2 C12.01 2.33 11.02 2.66 10 3 C10.66 3.433125 11.32 3.86625 12 4.3125 C12.66 4.869375 13.32 5.42625 14 6 C14 6.99 14 7.98 14 9 C12.02 9.33 10.04 9.66 8 10 C7.67 9.34 7.34 8.68 7 8 C8.65 8 10.3 8 12 8 C12 7.34 12 6.68 12 6 C9.525 5.01 9.525 5.01 7 4 C7 3.34 7 2.68 7 2 C6.01 2 5.02 2 4 2 C4 4.64 4 7.28 4 10 C3.34 10 2.68 10 2 10 C2 7.03 2 4.06 2 1 C1.34 0.67 0.68 0.34 0 0 Z " fill="#DAD3F9" transform="translate(330,39)"/>
<path d="M0 0 C1.65 0 3.3 0 5 0 C7 2 7 2 7.25 5 C7 8 7 8 5 10 C3.35 10 1.7 10 0 10 C0 6.7 0 3.4 0 0 Z " fill="#444653" transform="translate(132,39)"/>
<path d="M0 0 C5.875 0.875 5.875 0.875 7 2 C7.1875 4.9375 7.1875 4.9375 7 8 C6.34 8.66 5.68 9.32 5 10 C3.35 10 1.7 10 0 10 C0 6.7 0 3.4 0 0 Z " fill="#333544" transform="translate(24,26)"/>
<path d="M0 0 C1.81242052 -0.02687279 3.62495233 -0.04633715 5.4375 -0.0625 C6.44683594 -0.07410156 7.45617187 -0.08570313 8.49609375 -0.09765625 C11 0 11 0 12 1 C12.07179964 2.51928038 12.08392007 4.04167482 12.0625 5.5625 C12.05347656 6.38878906 12.04445313 7.21507812 12.03515625 8.06640625 C12.02355469 8.70449219 12.01195312 9.34257812 12 10 C11.67 10 11.34 10 11 10 C11 7.36 11 4.72 11 2 C10.01 2.33 9.02 2.66 8 3 C7.67 5.31 7.34 7.62 7 10 C6.34 10 5.68 10 5 10 C5 7.36 5 4.72 5 2 C4.01 2 3.02 2 2 2 C2 4.64 2 7.28 2 10 C1.34 10 0.68 10 0 10 C0 6.7 0 3.4 0 0 Z " fill="#383A48" transform="translate(649,138)"/>
<path d="M0 0 C1.81242052 -0.02687279 3.62495233 -0.04633715 5.4375 -0.0625 C6.44683594 -0.07410156 7.45617187 -0.08570313 8.49609375 -0.09765625 C11 0 11 0 12 1 C12.07179964 2.51928038 12.08392007 4.04167482 12.0625 5.5625 C12.05347656 6.38878906 12.04445313 7.21507812 12.03515625 8.06640625 C12.02355469 8.70449219 12.01195312 9.34257812 12 10 C11.67 10 11.34 10 11 10 C11 7.36 11 4.72 11 2 C10.01 2.33 9.02 2.66 8 3 C7.67 5.31 7.34 7.62 7 10 C6.34 10 5.68 10 5 10 C5 7.36 5 4.72 5 2 C4.01 2 3.02 2 2 2 C2 4.64 2 7.28 2 10 C1.34 10 0.68 10 0 10 C0 6.7 0 3.4 0 0 Z " fill="#383A48" transform="translate(478,138)"/>
<path d="M0 0 C1.65 0 3.3 0 5 0 C5.33 0.66 5.66 1.32 6 2 C5.01 2 4.02 2 3 2 C3 6.29 3 10.58 3 15 C3.66 15 4.32 15 5 15 C5 15.66 5 16.32 5 17 C3.35 17 1.7 17 0 17 C0 11.39 0 5.78 0 0 Z " fill="#030517" transform="translate(490,103)"/>
<path d="M0 0 C0.66 0 1.32 0 2 0 C2 3.63 2 7.26 2 11 C0.00045254 11.04254356 -2.00041636 11.04080783 -4 11 C-5 10 -5 10 -5.0625 6.9375 C-5.041875 5.968125 -5.02125 4.99875 -5 4 C-3.35 3.67 -1.7 3.34 0 3 C0 2.01 0 1.02 0 0 Z " fill="#A78FF5" transform="translate(443,38)"/>
<path d="M0 0 C4.70588235 0.70588235 4.70588235 0.70588235 6 2 C6.47323944 8.38873239 6.47323944 8.38873239 4.5 10.9375 C4.005 11.288125 3.51 11.63875 3 12 C2.01 11.67 1.02 11.34 0 11 C0.99 10.01 1.98 9.02 3 8 C1.68 7.67 0.36 7.34 -1 7 C-1.04254356 5.00045254 -1.04080783 2.99958364 -1 1 C-0.67 0.67 -0.34 0.34 0 0 Z " fill="#656671" transform="translate(313,136)"/>
<path d="M0 0 C5 1 5 1 6 2 C6.26293056 6.03160191 6.29404844 7.55892734 4 11 C2.68 11 1.36 11 0 11 C0 7.37 0 3.74 0 0 Z " fill="#DBDBDE" transform="translate(493,106)"/>
<path d="M0 0 C1.65 0.33 3.3 0.66 5 1 C4.67 2.32 4.34 3.64 4 5 C4.99 5 5.98 5 7 5 C7 6.65 7 8.3 7 10 C4.69 10 2.38 10 0 10 C-0.95024979 6.30458414 -0.95024979 3.69541586 0 0 Z " fill="#C7BAF8" transform="translate(350,39)"/>
<path d="M0 0 C2 0 4 0 6 0 C6 0.66 6 1.32 6 2 C6.66 2 7.32 2 8 2 C8 1.34 8 0.68 8 0 C8.66 0.33 9.32 0.66 10 1 C9.67 3.31 9.34 5.62 9 8 C8.4225 7.814375 7.845 7.62875 7.25 7.4375 C4.79307475 6.95976454 3.35602466 7.24270636 1 8 C0.67 5.36 0.34 2.72 0 0 Z " fill="#51525F" transform="translate(40,28)"/>
<path d="M0 0 C2.97 0.495 2.97 0.495 6 1 C6 3.64 6 6.28 6 9 C4.02 9.33 2.04 9.66 0 10 C0 6.7 0 3.4 0 0 Z " fill="#222433" transform="translate(165,148)"/>
<path d="M0 0 C1.65 0 3.3 0 5 0 C5 2.31 5 4.62 5 7 C4.67 7 4.34 7 4 7 C3.67 9.31 3.34 11.62 3 14 C2.01 14 1.02 14 0 14 C0 9.38 0 4.76 0 0 Z " fill="#181A2B" transform="translate(239,213)"/>
<path d="M0 0 C0.78375 0.04125 1.5675 0.0825 2.375 0.125 C2.375 2.105 2.375 4.085 2.375 6.125 C3.035 6.125 3.695 6.125 4.375 6.125 C4.375 6.785 4.375 7.445 4.375 8.125 C-1.77734375 8.22265625 -1.77734375 8.22265625 -3.625 8.125 C-4.625 7.125 -4.625 7.125 -4.8125 4.6875 C-4.54653904 1.05270021 -3.63803315 0.17323967 0 0 Z " fill="#40424F" transform="translate(459.625,139.875)"/>
<path d="M0 0 C0 3.63 0 7.26 0 11 C-2.97 10.505 -2.97 10.505 -6 10 C-6 9.01 -6 8.02 -6 7 C-5.01 7 -4.02 7 -3 7 C-3 6.34 -3 5.68 -3 5 C-4.32 5 -5.64 5 -7 5 C-7 3.68 -7 2.36 -7 1 C-1.125 0 -1.125 0 0 0 Z " fill="#E5E6E7" transform="translate(197,214)"/>
<path d="M0 0 C2.375 -0.125 2.375 -0.125 5 0 C7 2 7 2 7.1953125 3.9453125 C7.13020833 5.96354167 7.06510417 7.98177083 7 10 C5.02 10 3.04 10 1 10 C0.67 8.35 0.34 6.7 0 5 C1.65 4.67 3.3 4.34 5 4 C5 3.34 5 2.68 5 2 C3.35 2 1.7 2 0 2 C0 1.34 0 0.68 0 0 Z " fill="#5B5C68" transform="translate(750,138)"/>
<path d="M0 0 C2.375 -0.125 2.375 -0.125 5 0 C7 2 7 2 7.1953125 3.9453125 C7.13020833 5.96354167 7.06510417 7.98177083 7 10 C5.02 10 3.04 10 1 10 C0.67 8.35 0.34 6.7 0 5 C1.65 4.67 3.3 4.34 5 4 C5 3.34 5 2.68 5 2 C3.35 2 1.7 2 0 2 C0 1.34 0 0.68 0 0 Z " fill="#5B5C68" transform="translate(493,138)"/>
<path d="M0 0 C2.4375 0.375 2.4375 0.375 5 1 C6.42041821 3.84083641 6.31452272 5.85477278 6 9 C4.125 11.375 4.125 11.375 2 13 C1.34 13 0.68 13 0 13 C-0.33 12.01 -0.66 11.02 -1 10 C-0.34 9.67 0.32 9.34 1 9 C1.07427838 5.65747276 1.06546953 3.1964086 0 0 Z " fill="#141627" transform="translate(511,107)"/>
<path d="M0 0 C1.47906892 -0.02689216 2.95827483 -0.04634621 4.4375 -0.0625 C5.26121094 -0.07410156 6.08492187 -0.08570312 6.93359375 -0.09765625 C9 0 9 0 10 1 C10.04092937 3.33297433 10.04241723 5.66705225 10 8 C9.34 8 8.68 8 8 8 C8 6.02 8 4.04 8 2 C7.34 2 6.68 2 6 2 C6 3.98 6 5.96 6 8 C5.34 8 4.68 8 4 8 C4 6.02 4 4.04 4 2 C3.34 2 2.68 2 2 2 C2 3.98 2 5.96 2 8 C1.34 8 0.68 8 0 8 C0 5.36 0 2.72 0 0 Z " fill="#121425" transform="translate(176,86)"/>
<path d="M0 0 C2.625 0.375 2.625 0.375 5 1 C5.33 2.32 5.66 3.64 6 5 C4.02 5 2.04 5 0 5 C0 5.99 0 6.98 0 8 C1.98 8 3.96 8 6 8 C5.67 8.66 5.34 9.32 5 10 C2.625 10.1875 2.625 10.1875 0 10 C-2.14915785 6.77626323 -2.38286803 5.73296326 -2 2 C-1.34 1.34 -0.68 0.68 0 0 Z " fill="#393B49" transform="translate(819,138)"/>
<path d="M0 0 C1.66611905 -0.042721 3.33382885 -0.04063832 5 0 C6.58272601 1.58272601 6.34735747 3.38034003 6.5625 5.5625 C6.64628906 6.38878906 6.73007812 7.21507812 6.81640625 8.06640625 C6.87699219 8.70449219 6.93757813 9.34257812 7 10 C4.69 10 2.38 10 0 10 C-0.625 8.125 -0.625 8.125 -1 6 C-0.34 5.34 0.32 4.68 1 4 C2.32 4 3.64 4 5 4 C5 3.34 5 2.68 5 2 C3.35 2 1.7 2 0 2 C0 1.34 0 0.68 0 0 Z " fill="#5A5C67" transform="translate(376,138)"/>
<path d="M0 0 C1.65 0 3.3 0 5 0 C5 1.98 5 3.96 5 6 C4.34 6 3.68 6 3 6 C2.67 8.64 2.34 11.28 2 14 C1.01 14 0.02 14 -1 14 C-0.67 9.38 -0.34 4.76 0 0 Z " fill="#161828" transform="translate(255,213)"/>
<path d="M0 0 C1.65 0 3.3 0 5 0 C5.66666667 3.33333333 6.33333333 6.66666667 7 10 C6.01 9.67 5.02 9.34 4 9 C3.67 8.34 3.34 7.68 3 7 C2.67 7.99 2.34 8.98 2 10 C1.34 10 0.68 10 0 10 C0 6.7 0 3.4 0 0 Z " fill="#D1C7F8" transform="translate(363,39)"/>
<path d="M0 0 C0.99 0 1.98 0 3 0 C3 3.63 3 7.26 3 11 C3.99 11.33 4.98 11.66 6 12 C6.66 12.66 7.32 13.32 8 14 C5.125 14.125 5.125 14.125 2 14 C0 12 0 12 -0.1953125 9.1796875 C-0.17210937 8.08914062 -0.14890625 6.99859375 -0.125 5.875 C-0.10695312 4.77929688 -0.08890625 3.68359375 -0.0703125 2.5546875 C-0.04710937 1.71164063 -0.02390625 0.86859375 0 0 Z " fill="#141626" transform="translate(226,213)"/>
<path d="M0 0 C1.67542976 0.28604898 3.34385343 0.61781233 5 1 C5.625 3.375 5.625 3.375 6 6 C5.34 6.66 4.68 7.32 4 8 C1.375 7.625 1.375 7.625 -1 7 C-1.04254356 5.00045254 -1.04080783 2.99958364 -1 1 C-0.67 0.67 -0.34 0.34 0 0 Z " fill="#585965" transform="translate(163,86)"/>
<path d="M0 0 C0.33 0 0.66 0 1 0 C1 3.63 1 7.26 1 11 C-0.65 11 -2.3 11 -4 11 C-5 10 -5 10 -5.0625 6.9375 C-5.041875 5.968125 -5.02125 4.99875 -5 4 C-3.35 3.67 -1.7 3.34 0 3 C0 2.01 0 1.02 0 0 Z " fill="#222333" transform="translate(192,38)"/>
<path d="M0 0 C2.625 0.375 2.625 0.375 5 1 C5 2.32 5 3.64 5 5 C3.35 5 1.7 5 0 5 C0 5.99 0 6.98 0 8 C1.65 8 3.3 8 5 8 C4.67 8.66 4.34 9.32 4 10 C-0.875 9.125 -0.875 9.125 -2 8 C-2.1875 5.0625 -2.1875 5.0625 -2 2 C-1.34 1.34 -0.68 0.68 0 0 Z " fill="#272938" transform="translate(593,138)"/>
<path d="M0 0 C0.66 0 1.32 0 2 0 C2 0.99 2 1.98 2 3 C2.66 3 3.32 3 4 3 C4 2.01 4 1.02 4 0 C4.66 0 5.32 0 6 0 C6.33 0.66 6.66 1.32 7 2 C7.33 1.34 7.66 0.68 8 0 C8.66 0.33 9.32 0.66 10 1 C9.34 3.31 8.68 5.62 8 8 C7.34 8 6.68 8 6 8 C6 7.01 6 6.02 6 5 C5.34 5 4.68 5 4 5 C4 5.99 4 6.98 4 8 C3.01 8 2.02 8 1 8 C0.67 5.36 0.34 2.72 0 0 Z " fill="#565864" transform="translate(148,41)"/>
<path d="M0 0 C1.32 0.33 2.64 0.66 4 1 C4.66 3.97 5.32 6.94 6 10 C5.34 10 4.68 10 4 10 C4 9.34 4 8.68 4 8 C2.68 8 1.36 8 0 8 C0 8.66 0 9.32 0 10 C-0.66 10 -1.32 10 -2 10 C-1.34 6.7 -0.68 3.4 0 0 Z " fill="#E4E0FA" transform="translate(324,39)"/>
<path d="M0 0 C1.65 0.33 3.3 0.66 5 1 C5.625 3.375 5.625 3.375 6 6 C5.34 6.66 4.68 7.32 4 8 C1.375 7.625 1.375 7.625 -1 7 C-0.67 4.69 -0.34 2.38 0 0 Z " fill="#62636F" transform="translate(64,28)"/>
<path d="M0 0 C0.66 0 1.32 0 2 0 C2.33 1.65 2.66 3.3 3 5 C4.32 4.34 5.64 3.68 7 3 C6.01 4.485 6.01 4.485 5 6 C5.25723969 8.02919843 5.25723969 8.02919843 6 10 C6.33 10.99 6.66 11.98 7 13 C6.01 12.67 5.02 12.34 4 12 C3.67 11.34 3.34 10.68 3 10 C2.67 10.99 2.34 11.98 2 13 C1.34 13 0.68 13 0 13 C0 8.71 0 4.42 0 0 Z " fill="#373846" transform="translate(583,135)"/>
<path d="M0 0 C1.65 0 3.3 0 5 0 C6.0625 1.875 6.0625 1.875 7 4 C6.67 4.66 6.34 5.32 6 6 C4.68 6 3.36 6 2 6 C2 7.32 2 8.64 2 10 C1.34 10 0.68 10 0 10 C0 6.7 0 3.4 0 0 Z " fill="#6E6F79" transform="translate(156,148)"/>
<path d="M0 0 C1.67542976 0.28604898 3.34385343 0.61781233 5 1 C5.33 2.32 5.66 3.64 6 5 C4.02 5 2.04 5 0 5 C0.33 5.66 0.66 6.32 1 7 C3.52733235 7.65555119 3.52733235 7.65555119 6 8 C5.67 8.66 5.34 9.32 5 10 C0.125 9.125 0.125 9.125 -1 8 C-1.125 4.5 -1.125 4.5 -1 1 C-0.67 0.67 -0.34 0.34 0 0 Z " fill="#252636" transform="translate(803,138)"/>
<path d="M0 0 C1.65 0 3.3 0 5 0 C6.0625 1.875 6.0625 1.875 7 4 C6.67 4.66 6.34 5.32 6 6 C4.68 6 3.36 6 2 6 C2 7.32 2 8.64 2 10 C1.34 10 0.68 10 0 10 C0 6.7 0 3.4 0 0 Z " fill="#6F7382" transform="translate(156,116)"/>
<path d="M0 0 C0.99 0 1.98 0 3 0 C3 0.66 3 1.32 3 2 C3.66 2.33 4.32 2.66 5 3 C4.67 3.33 4.34 3.66 4 4 C3.76712992 5.68183948 3.58735834 7.3712416 3.4375 9.0625 C3.31181641 10.44115234 3.31181641 10.44115234 3.18359375 11.84765625 C3.12300781 12.55792969 3.06242187 13.26820312 3 14 C2.01 14 1.02 14 0 14 C0 9.38 0 4.76 0 0 Z " fill="#030517" transform="translate(457,106)"/>
<path d="M0 0 C2.125 0.375 2.125 0.375 4 1 C4.625 3.375 4.625 3.375 5 6 C4.34 6.66 3.68 7.32 3 8 C1.68 8 0.36 8 -1 8 C-1.625 5.125 -1.625 5.125 -2 2 C-1.34 1.34 -0.68 0.68 0 0 Z " fill="#83848D" transform="translate(173,41)"/>
<path d="M0 0 C2.875 -0.125 2.875 -0.125 6 0 C8 2 8 2 8.1953125 3.9453125 C8.13020833 5.96354167 8.06510417 7.98177083 8 10 C7.34 10 6.68 10 6 10 C6 7.36 6 4.72 6 2 C4.68 2 3.36 2 2 2 C2 4.64 2 7.28 2 10 C1.34 10 0.68 10 0 10 C0 6.7 0 3.4 0 0 Z " fill="#464754" transform="translate(572,138)"/>
<path d="M0 0 C2.875 -0.125 2.875 -0.125 6 0 C8 2 8 2 8.1953125 3.9453125 C8.13020833 5.96354167 8.06510417 7.98177083 8 10 C7.34 10 6.68 10 6 10 C6 7.36 6 4.72 6 2 C4.68 2 3.36 2 2 2 C2 4.64 2 7.28 2 10 C1.34 10 0.68 10 0 10 C0 6.7 0 3.4 0 0 Z " fill="#464754" transform="translate(430,138)"/>
<path d="M0 0 C1.67542976 0.28604898 3.34385343 0.61781233 5 1 C5 2.98 5 4.96 5 7 C3.34385343 7.38218767 1.67542976 7.71395102 0 8 C-1 7 -1 7 -1.125 4 C-1 1 -1 1 0 0 Z " fill="#81828B" transform="translate(142,41)"/>
<path d="M0 0 C2.125 0.375 2.125 0.375 4 1 C4.625 3.375 4.625 3.375 5 6 C4.34 6.66 3.68 7.32 3 8 C0.875 7.625 0.875 7.625 -1 7 C-1.625 4.625 -1.625 4.625 -2 2 C-1.34 1.34 -0.68 0.68 0 0 Z " fill="#5E5F6B" transform="translate(34,28)"/>
<path d="M0 0 C0.99 0.33 1.98 0.66 3 1 C3.6875 3.0625 3.6875 3.0625 4 5 C4.66 3.35 5.32 1.7 6 0 C6.66 0 7.32 0 8 0 C7.74279326 1.58560393 7.46861201 3.16845924 7.1875 4.75 C7.03667969 5.63171875 6.88585937 6.5134375 6.73046875 7.421875 C5.93705743 10.22215024 4.97252282 11.87345147 3 14 C2.34 14 1.68 14 1 14 C1 12 1 12 3 10 C2.01 6.7 1.02 3.4 0 0 Z " fill="#333443" transform="translate(696,138)"/>
<path d="M0 0 C0.66 0 1.32 0 2 0 C2 0.66 2 1.32 2 2 C2.99 2 3.98 2 5 2 C4.67 3.98 4.34 5.96 4 8 C1.03 7.505 1.03 7.505 -2 7 C-2.125 4.625 -2.125 4.625 -2 2 C-1.34 1.34 -0.68 0.68 0 0 Z " fill="#474956" transform="translate(445,112)"/>
<path d="M0 0 C0.99 1.485 0.99 1.485 2 3 C4.56282742 3.72965366 4.56282742 3.72965366 7 4 C7 6.97 7 9.94 7 13 C6.34 13 5.68 13 5 13 C5 10.36 5 7.72 5 5 C4.01 5.33 3.02 5.66 2 6 C1.67 8.31 1.34 10.62 1 13 C0.67 13 0.34 13 0 13 C0 8.71 0 4.42 0 0 Z " fill="#2C2D3C" transform="translate(792,135)"/>
<path d="M0 0 C1.67542976 0.28604898 3.34385343 0.61781233 5 1 C5.33 2.32 5.66 3.64 6 5 C4.02 5 2.04 5 0 5 C1.32 6.65 2.64 8.3 4 10 C0.125 9.125 0.125 9.125 -1 8 C-1.125 4.5 -1.125 4.5 -1 1 C-0.67 0.67 -0.34 0.34 0 0 Z " fill="#4E505C" transform="translate(776,138)"/>
<path d="M0 0 C0.66 0 1.32 0 2 0 C2.33 1.65 2.66 3.3 3 5 C3.33 4.34 3.66 3.68 4 3 C4.66 3 5.32 3 6 3 C5.79375 3.5775 5.5875 4.155 5.375 4.75 C4.91338739 7.51967567 5.57055055 8.64561267 7 11 C6.01 11 5.02 11 4 11 C3.67 10.34 3.34 9.68 3 9 C2.67 9.66 2.34 10.32 2 11 C1.34 11 0.68 11 0 11 C0 7.37 0 3.74 0 0 Z " fill="#D9D2F9" transform="translate(469,38)"/>
<path d="M0 0 C1.99954746 -0.04254356 4.00041636 -0.04080783 6 0 C7 1 7 1 7.09765625 3.06640625 C7.08605469 3.89011719 7.07445312 4.71382812 7.0625 5.5625 C7.05347656 6.38878906 7.04445313 7.21507812 7.03515625 8.06640625 C7.01775391 9.02353516 7.01775391 9.02353516 7 10 C6.34 10 5.68 10 5 10 C5 7.36 5 4.72 5 2 C4.01 2.33 3.02 2.66 2 3 C1.67 5.31 1.34 7.62 1 10 C0.67 10 0.34 10 0 10 C0 6.7 0 3.4 0 0 Z " fill="#2F303F" transform="translate(679,138)"/>
<path d="M0 0 C1.99954746 -0.04254356 4.00041636 -0.04080783 6 0 C7 1 7 1 7.09765625 3.06640625 C7.08605469 3.89011719 7.07445312 4.71382812 7.0625 5.5625 C7.05347656 6.38878906 7.04445313 7.21507812 7.03515625 8.06640625 C7.01775391 9.02353516 7.01775391 9.02353516 7 10 C6.34 10 5.68 10 5 10 C5 7.36 5 4.72 5 2 C4.01 2.33 3.02 2.66 2 3 C1.67 5.31 1.34 7.62 1 10 C0.67 10 0.34 10 0 10 C0 6.7 0 3.4 0 0 Z " fill="#2F303F" transform="translate(617,138)"/>
<path d="M0 0 C1.99954746 -0.04254356 4.00041636 -0.04080783 6 0 C7 1 7 1 7.09765625 3.06640625 C7.08605469 3.89011719 7.07445312 4.71382812 7.0625 5.5625 C7.05347656 6.38878906 7.04445313 7.21507812 7.03515625 8.06640625 C7.01775391 9.02353516 7.01775391 9.02353516 7 10 C6.34 10 5.68 10 5 10 C5 7.36 5 4.72 5 2 C4.01 2.33 3.02 2.66 2 3 C1.67 5.31 1.34 7.62 1 10 C0.67 10 0.34 10 0 10 C0 6.7 0 3.4 0 0 Z " fill="#2F303F" transform="translate(407,138)"/>
<path d="M0 0 C0.33 0 0.66 0 1 0 C1 2.64 1 5.28 1 8 C1.99 7.67 2.98 7.34 4 7 C4.33 4.69 4.66 2.38 5 0 C5.66 0 6.32 0 7 0 C7 3.3 7 6.6 7 10 C5.00045254 10.04254356 2.99958364 10.04080783 1 10 C0 9 0 9 -0.09765625 6.93359375 C-0.08605469 6.10988281 -0.07445312 5.28617188 -0.0625 4.4375 C-0.05347656 3.61121094 -0.04445313 2.78492188 -0.03515625 1.93359375 C-0.02355469 1.29550781 -0.01195312 0.65742188 0 0 Z " fill="#333543" transform="translate(717,138)"/>
<path d="M0 0 C1.65 0.33 3.3 0.66 5 1 C5 2.98 5 4.96 5 7 C3.35 7.33 1.7 7.66 0 8 C-0.98120464 4.94736336 -0.98120464 3.05263664 0 0 Z " fill="#656671" transform="translate(91,28)"/>
<path d="M0 0 C1.99954746 -0.04254356 4.00041636 -0.04080783 6 0 C7 1 7 1 7.09765625 3.06640625 C7.08605469 3.89011719 7.07445312 4.71382812 7.0625 5.5625 C7.05347656 6.38878906 7.04445313 7.21507812 7.03515625 8.06640625 C7.01775391 9.02353516 7.01775391 9.02353516 7 10 C6.67 10 6.34 10 6 10 C6 7.36 6 4.72 6 2 C4.68 2 3.36 2 2 2 C2 4.64 2 7.28 2 10 C1.34 10 0.68 10 0 10 C0 6.7 0 3.4 0 0 Z " fill="#2A2C3B" transform="translate(740,138)"/>
<path d="M0 0 C1.67542976 0.28604898 3.34385343 0.61781233 5 1 C5 1.99 5 2.98 5 4 C3.68 4 2.36 4 1 4 C1 4.66 1 5.32 1 6 C2.32 6.33 3.64 6.66 5 7 C3.34385343 7.38218767 1.67542976 7.71395102 0 8 C-1 7 -1 7 -1.125 4 C-1 1 -1 1 0 0 Z " fill="#CCC0F8" transform="translate(372,41)"/>
<path d="M0 0 C0.33 0.66 0.66 1.32 1 2 C1.99 2 2.98 2 4 2 C4 2.66 4 3.32 4 4 C4.66 4 5.32 4 6 4 C6 5.65 6 7.3 6 9 C5.38125 8.79375 4.7625 8.5875 4.125 8.375 C3.42375 8.25125 2.7225 8.1275 2 8 C1.34 8.66 0.68 9.32 0 10 C0 6.7 0 3.4 0 0 Z " fill="#434552" transform="translate(257,217)"/>
<path d="M0 0 C0.33 0 0.66 0 1 0 C1.05399736 1.45792884 1.09279177 2.91642712 1.125 4.375 C1.14820313 5.18710938 1.17140625 5.99921875 1.1953125 6.8359375 C1 9 1 9 -1 11 C-1.061875 10.38125 -1.12375 9.7625 -1.1875 9.125 C-1.828919 6.72238859 -1.828919 6.72238859 -4.5625 5.75 C-5.366875 5.5025 -6.17125 5.255 -7 5 C-7 4.34 -7 3.68 -7 3 C-5.5459375 2.814375 -5.5459375 2.814375 -4.0625 2.625 C-2.5465625 2.315625 -2.5465625 2.315625 -1 2 C-0.67 1.34 -0.34 0.68 0 0 Z " fill="#E7E7E9" transform="translate(225,213)"/>
<path d="M0 0 C1.32 0 2.64 0 4 0 C3.67 1.32 3.34 2.64 3 4 C2.34 4 1.68 4 1 4 C1 6.97 1 9.94 1 13 C0.34 13 -0.32 13 -1 13 C-1 10.03 -1 7.06 -1 4 C-1.66 3.67 -2.32 3.34 -3 3 C-2.34 3 -1.68 3 -1 3 C-0.67 2.01 -0.34 1.02 0 0 Z " fill="#444653" transform="translate(387,135)"/>
<path d="M0 0 C0.66 0 1.32 0 2 0 C2.66 1.32 3.32 2.64 4 4 C4.66 2.68 5.32 1.36 6 0 C6 3.3 6 6.6 6 10 C5.34 10 4.68 10 4 10 C3.34 8.68 2.68 7.36 2 6 C1.34 7.32 0.68 8.64 0 10 C0 6.7 0 3.4 0 0 Z " fill="#3A3E52" transform="translate(165,116)"/>
<path d="M0 0 C1.65 0.33 3.3 0.66 5 1 C5 3.31 5 5.62 5 8 C3.35 8 1.7 8 0 8 C-0.33 6.68 -0.66 5.36 -1 4 C0.32 3.67 1.64 3.34 3 3 C3 2.34 3 1.68 3 1 C2.01 0.67 1.02 0.34 0 0 Z " fill="#60616C" transform="translate(180,41)"/>
<path d="M0 0 C0.33 0 0.66 0 1 0 C1 3.63 1 7.26 1 11 C-0.65 11 -2.3 11 -4 11 C-5 10 -5 10 -5.0625 6.9375 C-5.041875 5.968125 -5.02125 4.99875 -5 4 C-4.34 4 -3.68 4 -3 4 C-3 5.65 -3 7.3 -3 9 C-2.34 9 -1.68 9 -1 9 C-0.67 6.03 -0.34 3.06 0 0 Z " fill="#2D2F3E" transform="translate(84,25)"/>
<path d="M0 0 C1.65 0.33 3.3 0.66 5 1 C5 3.31 5 5.62 5 8 C3.35 8 1.7 8 0 8 C-0.33 6.68 -0.66 5.36 -1 4 C0.32 3.67 1.64 3.34 3 3 C3 2.34 3 1.68 3 1 C2.01 0.67 1.02 0.34 0 0 Z " fill="#3E3F4D" transform="translate(72,28)"/>
<path d="M0 0 C1.66611905 -0.042721 3.33382885 -0.04063832 5 0 C6 1 6 1 6.0625 4.5625 C6.041875 5.696875 6.02125 6.83125 6 8 C5.34 8 4.68 8 4 8 C4 6.02 4 4.04 4 2 C3.34 2 2.68 2 2 2 C2 3.98 2 5.96 2 8 C1.34 8 0.68 8 0 8 C0 5.36 0 2.72 0 0 Z " fill="#292A3A" transform="translate(51,28)"/>
<path d="M0 0 C3.375 -0.125 3.375 -0.125 7 0 C9 2 9 2 9.125 5.125 C9.08375 6.07375 9.0425 7.0225 9 8 C8.34 8 7.68 8 7 8 C7 6.02 7 4.04 7 2 C4.03 2.66 1.06 3.32 -2 4 C-1.34 2.68 -0.68 1.36 0 0 Z " fill="#F2F2F3" transform="translate(455,138)"/>
<path d="M0 0 C2.97 0 5.94 0 9 0 C9 2.64 9 5.28 9 8 C8.67 8 8.34 8 8 8 C8 6.02 8 4.04 8 2 C7.01 2 6.02 2 5 2 C5 3.98 5 5.96 5 8 C4.67 8 4.34 8 4 8 C4 6.02 4 4.04 4 2 C3.01 2 2.02 2 1 2 C1 3.98 1 5.96 1 8 C0.67 8 0.34 8 0 8 C0 5.36 0 2.72 0 0 Z " fill="#E8E5FA" transform="translate(394,41)"/>
<path d="M0 0 C2.125 0.375 2.125 0.375 4 1 C4 1.99 4 2.98 4 4 C2.68 4 1.36 4 0 4 C0 4.66 0 5.32 0 6 C1.32 6 2.64 6 4 6 C4 6.66 4 7.32 4 8 C2.35 7.67 0.7 7.34 -1 7 C-1.625 4.625 -1.625 4.625 -2 2 C-1.34 1.34 -0.68 0.68 0 0 Z " fill="#D0C6F8" transform="translate(432,41)"/>
<path d="M0 0 C0.33 0 0.66 0 1 0 C1 4.62 1 9.24 1 14 C0.34 14 -0.32 14 -1 14 C-2.6875 11.625 -2.6875 11.625 -4 9 C-3 7 -3 7 -1 6 C-0.34227572 2.97065509 -0.34227572 2.97065509 0 0 Z " fill="#C2C3C7" transform="translate(176,213)"/>
<path d="M0 0 C2.0625 0.75 2.0625 0.75 4 2 C4.33 2.99 4.66 3.98 5 5 C2.125 5.625 2.125 5.625 -1 6 C-1.66 5.34 -2.32 4.68 -3 4 C-2.67 3.01 -2.34 2.02 -2 1 C-1.34 0.67 -0.68 0.34 0 0 Z " fill="#8F9098" transform="translate(352,142)"/>
<path d="M0 0 C0.66 0 1.32 0 2 0 C2 0.99 2 1.98 2 3 C3.32 3.33 4.64 3.66 6 4 C6 5.65 6 7.3 6 9 C5.67 7.68 5.34 6.36 5 5 C4.01 5 3.02 5 2 5 C2 6.65 2 8.3 2 10 C1.01 10.495 1.01 10.495 0 11 C0 7.37 0 3.74 0 0 Z " fill="#DED8F9" transform="translate(447,38)"/>
<path d="M0 0 C0 0.33 0 0.66 0 1 C-1.423125 1.12375 -1.423125 1.12375 -2.875 1.25 C-6.10461791 1.65074923 -6.10461791 1.65074923 -7.375 4.0625 C-7.58125 4.701875 -7.7875 5.34125 -8 6 C-10.5 4.625 -10.5 4.625 -13 3 C-13 2.34 -13 1.68 -13 1 C-8.60563789 0.14256349 -4.47427924 -0.08948558 0 0 Z " fill="#ABACB2" transform="translate(789,142)"/>
<path d="M0 0 C1.32 0.33 2.64 0.66 4 1 C4 2.98 4 4.96 4 7 C2.68 7.33 1.36 7.66 0 8 C0 5.36 0 2.72 0 0 Z " fill="#F3F3F4" transform="translate(509,109)"/>
<path d="M0 0 C1.32 0 2.64 0 4 0 C4.33 2.31 4.66 4.62 5 7 C3.35 7.33 1.7 7.66 0 8 C-0.33 7.34 -0.66 6.68 -1 6 C-0.34 5.67 0.32 5.34 1 5 C0.67 3.35 0.34 1.7 0 0 Z " fill="#CEC3F8" transform="translate(379,41)"/>
<path d="M0 0 C0.99 0.33 1.98 0.66 3 1 C3 1.99 3 2.98 3 4 C1.68 4 0.36 4 -1 4 C-1 4.66 -1 5.32 -1 6 C0.32 6 1.64 6 3 6 C3 6.66 3 7.32 3 8 C1.35 8 -0.3 8 -2 8 C-2.33 5.69 -2.66 3.38 -3 1 C-2.34 1 -1.68 1 -1 1 C-1 1.66 -1 2.32 -1 3 C-0.34 3 0.32 3 1 3 C0.67 2.01 0.34 1.02 0 0 Z " fill="#D9D1F9" transform="translate(408,41)"/>
<path d="M0 0 C1.65 0.33 3.3 0.66 5 1 C5 1.66 5 2.32 5 3 C4.01 3.33 3.02 3.66 2 4 C1.67 5.65 1.34 7.3 1 9 C0.01 8.67 -0.98 8.34 -2 8 C-1.125 2.25 -1.125 2.25 0 0 Z " fill="#171929" transform="translate(155,213)"/>
<path d="M0 0 C1.2065625 0.0309375 1.2065625 0.0309375 2.4375 0.0625 C2.4375 2.0625 2.4375 4.0625 2.4375 6.0625 C1.1175 6.0625 -0.2025 6.0625 -1.5625 6.0625 C-1.8925 5.0725 -2.2225 4.0825 -2.5625 3.0625 C-3.5525 3.7225 -4.5425 4.3825 -5.5625 5.0625 C-3.15007962 0.07683121 -3.15007962 0.07683121 0 0 Z " fill="#6F707A" transform="translate(475.5625,105.9375)"/>
<path d="M0 0 C0.33 0 0.66 0 1 0 C1 1.98 1 3.96 1 6 C1.99 6 2.98 6 4 6 C4 4.02 4 2.04 4 0 C4.66 0 5.32 0 6 0 C6 2.64 6 5.28 6 8 C4.02 8 2.04 8 0 8 C0 5.36 0 2.72 0 0 Z " fill="#D7CEF9" transform="translate(386,41)"/>
<path d="M0 0 C1.32 0 2.64 0 4 0 C4 3.11257569 3.82638376 5.10765685 3 8 C1.68 8 0.36 8 -1 8 C-1 7.34 -1 6.68 -1 6 C-0.34 5.67 0.32 5.34 1 5 C0.34 4.67 -0.32 4.34 -1 4 C-0.67 2.68 -0.34 1.36 0 0 Z " fill="#393B49" transform="translate(99,28)"/>
<path d="M0 0 C0.99 0 1.98 0 3 0 C3.33 2.31 3.66 4.62 4 7 C2.68 7.33 1.36 7.66 0 8 C0 5.36 0 2.72 0 0 Z " fill="#F1F1F2" transform="translate(166,149)"/>
<path d="M0 0 C1.32 0 2.64 0 4 0 C4 0.66 4 1.32 4 2 C2.68 2.33 1.36 2.66 0 3 C0 4.32 0 5.64 0 7 C1.32 7.33 2.64 7.66 4 8 C4 8.66 4 9.32 4 10 C2.33388095 10.042721 0.66617115 10.04063832 -1 10 C-2 9 -2 9 -2.1875 5.5625 C-2 2 -2 2 0 0 Z " fill="#3D3E4C" transform="translate(633,138)"/>
<path d="M0 0 C1.32 0 2.64 0 4 0 C4 0.66 4 1.32 4 2 C2.68 2.33 1.36 2.66 0 3 C0 4.32 0 5.64 0 7 C1.32 7.33 2.64 7.66 4 8 C4 8.66 4 9.32 4 10 C2.33388095 10.042721 0.66617115 10.04063832 -1 10 C-2 9 -2 9 -2.1875 5.5625 C-2 2 -2 2 0 0 Z " fill="#3D3E4C" transform="translate(519,138)"/>
<path d="M0 0 C1.32 0 2.64 0 4 0 C4 1.98 4 3.96 4 6 C2.35 5.67 0.7 5.34 -1 5 C-0.67 3.35 -0.34 1.7 0 0 Z " fill="#DCDDDF" transform="translate(603,140)"/>
<path d="M0 0 C0.66 0 1.32 0 2 0 C2 4.29 2 8.58 2 13 C1.01 12.67 0.02 12.34 -1 12 C-1.14285714 3.42857143 -1.14285714 3.42857143 0 0 Z " fill="#2E303E" transform="translate(446,135)"/>
<path d="M0 0 C1.66611905 -0.042721 3.33382885 -0.04063832 5 0 C6 1 6 1 6.0625 4.5625 C6.041875 5.696875 6.02125 6.83125 6 8 C5.67 8 5.34 8 5 8 C4.67 6.02 4.34 4.04 4 2 C3.67 2 3.34 2 3 2 C2.67 3.98 2.34 5.96 2 8 C1.34 8 0.68 8 0 8 C0 5.36 0 2.72 0 0 Z " fill="#474956" transform="translate(159,41)"/>
<path d="M0 0 C1.98 0.495 1.98 0.495 4 1 C4 2.65 4 4.3 4 6 C2.35 5.67 0.7 5.34 -1 5 C-0.67 3.35 -0.34 1.7 0 0 Z " fill="#EAEAEC" transform="translate(641,140)"/>
<path d="M0 0 C1.98 0.495 1.98 0.495 4 1 C4 2.65 4 4.3 4 6 C2.35 5.67 0.7 5.34 -1 5 C-0.67 3.35 -0.34 1.7 0 0 Z " fill="#EAEAEC" transform="translate(527,140)"/>
<path d="M0 0 C1.98 0 3.96 0 6 0 C5.67 0.66 5.34 1.32 5 2 C4.01 2 3.02 2 2 2 C2 4.64 2 7.28 2 10 C1.34 10 0.68 10 0 10 C0 6.7 0 3.4 0 0 Z " fill="#424351" transform="translate(760,138)"/>
<path d="M0 0 C1.65 0 3.3 0 5 0 C5 0.66 5 1.32 5 2 C4.34 2 3.68 2 3 2 C3 3.98 3 5.96 3 8 C2.01 8 1.02 8 0 8 C0 5.36 0 2.72 0 0 Z " fill="#454653" transform="translate(170,86)"/>
<path d="M0 0 C1.65 0 3.3 0 5 0 C5 0.66 5 1.32 5 2 C4.01 2 3.02 2 2 2 C2 4.64 2 7.28 2 10 C1.34 10 0.68 10 0 10 C0 6.7 0 3.4 0 0 Z " fill="#3C3E4B" transform="translate(727,138)"/>
<path d="M0 0 C1.8125 1.25 1.8125 1.25 2.8125 3.25 C2.852492 5.24960012 2.85596799 7.25047242 2.8125 9.25 C1.8225 9.745 1.8225 9.745 0.8125 10.25 C0.4825 7.94 0.1525 5.63 -0.1875 3.25 C-2.1675 2.59 -4.1475 1.93 -6.1875 1.25 C-2.76721014 -0.94875776 -2.76721014 -0.94875776 0 0 Z " fill="#494A57" transform="translate(463.1875,136.75)"/>
<path d="M0 0 C0.66 0 1.32 0 2 0 C3.09658936 3.28976808 2.79953138 4.71303767 2 8 C2.66 8 3.32 8 4 8 C4 8.66 4 9.32 4 10 C2.68 10 1.36 10 0 10 C-1.125 2.25 -1.125 2.25 0 0 Z " fill="#313342" transform="translate(196,84)"/>
<path d="M0 0 C1.65 0 3.3 0 5 0 C4.01 0.33 3.02 0.66 2 1 C2 2.32 2 3.64 2 5 C2.99 5.33 3.98 5.66 5 6 C4.01 6 3.02 6 2 6 C2 7.32 2 8.64 2 10 C1.34 10 0.68 10 0 10 C0 6.7 0 3.4 0 0 Z " fill="#040618" transform="translate(156,84)"/>
<path d="M0 0 C0.33 2.64 0.66 5.28 1 8 C0.01 8 -0.98 8 -2 8 C-4 5 -4 5 -3.75 2.875 C-2.94753178 0.86882945 -2.31117637 0 0 0 Z " fill="#F6F6F7" transform="translate(591,139)"/>
<path d="M0 0 C0.598125 0.33 1.19625 0.66 1.8125 1 C4.05386471 2.20787988 4.05386471 2.20787988 7 2 C7.33 1.34 7.66 0.68 8 0 C8.66 0.33 9.32 0.66 10 1 C8.68 2.65 7.36 4.3 6 6 C3.37812506 4.95125002 2.20628639 4.35068687 0.75 1.875 C0.5025 1.25625 0.255 0.6375 0 0 Z " fill="#B1B2B8" transform="translate(272,42)"/>
<path d="M0 0 C1.32 0 2.64 0 4 0 C4 1.98 4 3.96 4 6 C2.68 6 1.36 6 0 6 C0 4.02 0 2.04 0 0 Z " fill="#F8F8F9" transform="translate(708,140)"/>
<path d="M0 0 C1.32 0 2.64 0 4 0 C4 1.98 4 3.96 4 6 C2.68 6 1.36 6 0 6 C0 4.02 0 2.04 0 0 Z " fill="#F8F8F9" transform="translate(393,140)"/>
<path d="M0 0 C0.66 0 1.32 0 2 0 C2 3.63 2 7.26 2 11 C1.01 10.67 0.02 10.34 -1 10 C-0.67 6.7 -0.34 3.4 0 0 Z " fill="#D1C7F8" transform="translate(443,38)"/>
<path d="M0 0 C0.99 0 1.98 0 3 0 C3 1.98 3 3.96 3 6 C1.35 5.67 -0.3 5.34 -2 5 C-1.125 1.125 -1.125 1.125 0 0 Z " fill="#646671" transform="translate(273,216)"/>
<path d="M0 0 C0.66 0 1.32 0 2 0 C2.33 3.63 2.66 7.26 3 11 C2.01 10.67 1.02 10.34 0 10 C0 6.7 0 3.4 0 0 Z " fill="#272938" transform="translate(59,25)"/>
<path d="M0 0 C1.67542976 0.28604898 3.34385343 0.61781233 5 1 C5.33 1.99 5.66 2.98 6 4 C4.02 4 2.04 4 0 4 C-0.33 3.01 -0.66 2.02 -1 1 C-0.67 0.67 -0.34 0.34 0 0 Z " fill="#83848C" transform="translate(819,138)"/>
<path d="M0 0 C1.65 0.33 3.3 0.66 5 1 C4.67 1.99 4.34 2.98 4 4 C2.02 4 0.04 4 -2 4 C-1.34 2.68 -0.68 1.36 0 0 Z " fill="#82838C" transform="translate(593,138)"/>
<path d="M0 0 C1.65 0.33 3.3 0.66 5 1 C5 1.99 5 2.98 5 4 C3.35 4 1.7 4 0 4 C0 2.68 0 1.36 0 0 Z " fill="#82838C" transform="translate(803,138)"/>
<path d="M0 0 C0.99 0.33 1.98 0.66 3 1 C3 2.98 3 4.96 3 7 C2.01 7.33 1.02 7.66 0 8 C0 5.36 0 2.72 0 0 Z " fill="#F7F7F7" transform="translate(134,40)"/>
<path d="M0 0 C0.99 0.33 1.98 0.66 3 1 C2.67 3.97 2.34 6.94 2 10 C1.34 10 0.68 10 0 10 C0 6.7 0 3.4 0 0 Z " fill="#383A48" transform="translate(572,138)"/>
<path d="M0 0 C0.99 0.33 1.98 0.66 3 1 C2.67 3.97 2.34 6.94 2 10 C1.34 10 0.68 10 0 10 C0 6.7 0 3.4 0 0 Z " fill="#383A48" transform="translate(430,138)"/>
<path d="M0 0 C0.66 0.33 1.32 0.66 2 1 C2 2.65 2 4.3 2 6 C1.01 6 0.02 6 -1 6 C-1 6.66 -1 7.32 -1 8 C-1.66 8 -2.32 8 -3 8 C-2.74438677 5.6568787 -2.40729228 3.32156597 -2 1 C-1.34 0.67 -0.68 0.34 0 0 Z " fill="#AC97F6" transform="translate(325,41)"/>
<path d="M0 0 C1.32 1.65 2.64 3.3 4 5 C0.62182575 5.84454356 -1.67465243 6.10844919 -5 5 C-5 4.34 -5 3.68 -5 3 C-4.360625 2.87625 -3.72125 2.7525 -3.0625 2.625 C-2.0415625 2.315625 -2.0415625 2.315625 -1 2 C-0.67 1.34 -0.34 0.68 0 0 Z " fill="#5D2EEF" transform="translate(378,42)"/>
<path d="M0 0 C0.99 0.33 1.98 0.66 3 1 C2.67 2.65 2.34 4.3 2 6 C1.01 5.67 0.02 5.34 -1 5 C-0.67 3.35 -0.34 1.7 0 0 Z " fill="#E0E0E2" transform="translate(333,137)"/>
<path d="M0 0 C0.99 0 1.98 0 3 0 C3.33 1.65 3.66 3.3 4 5 C2.35 5.33 0.7 5.66 -1 6 C-0.67 4.02 -0.34 2.04 0 0 Z " fill="#9072F3" transform="translate(449,43)"/>
<path d="M0 0 C0.99 0.33 1.98 0.66 3 1 C2.67 2.65 2.34 4.3 2 6 C1.01 5.67 0.02 5.34 -1 5 C-0.67 3.35 -0.34 1.7 0 0 Z " fill="#D7D7DA" transform="translate(189,42)"/>
<path d="M0 0 C0.66 0 1.32 0 2 0 C2 0.99 2 1.98 2 3 C2.99 3.33 3.98 3.66 5 4 C4.01 4.33 3.02 4.66 2 5 C2 5.66 2 6.32 2 7 C1.01 6.67 0.02 6.34 -1 6 C-0.67 4.02 -0.34 2.04 0 0 Z " fill="#CFCFD2" transform="translate(96,29)"/>
<path d="M0 0 C1.125 3.75 1.125 3.75 0 6 C-1.65 6 -3.3 6 -5 6 C-5 5.01 -5 4.02 -5 3 C-3.35 3 -1.7 3 0 3 C0 2.01 0 1.02 0 0 Z " fill="#D3D4D7" transform="translate(598,140)"/>
<path d="M0 0 C2.475 0.495 2.475 0.495 5 1 C5 2.98 5 4.96 5 7 C4.34 6.67 3.68 6.34 3 6 C3.33 5.34 3.66 4.68 4 4 C2.68 3.34 1.36 2.68 0 2 C0 1.34 0 0.68 0 0 Z " fill="#DDD7F9" transform="translate(455,41)"/>
<path d="M0 0 C0.99 0 1.98 0 3 0 C3 2.31 3 4.62 3 7 C1.35 5.35 -0.3 3.7 -2 2 C-1.34 2 -0.68 2 0 2 C0 1.34 0 0.68 0 0 Z " fill="#7047F0" transform="translate(383,41)"/>
<path d="M0 0 C0.66 0.33 1.32 0.66 2 1 C1.67 3.31 1.34 5.62 1 8 C0.01 8 -0.98 8 -2 8 C-2.33 6.68 -2.66 5.36 -3 4 C-2.01 4 -1.02 4 0 4 C0 2.68 0 1.36 0 0 Z " fill="#303241" transform="translate(48,28)"/>
<path d="M0 0 C2.475 0.495 2.475 0.495 5 1 C5 2.98 5 4.96 5 7 C4.34 6.67 3.68 6.34 3 6 C3.33 5.34 3.66 4.68 4 4 C2.68 3.34 1.36 2.68 0 2 C0 1.34 0 0.68 0 0 Z " fill="#282A39" transform="translate(91,28)"/>
<path d="M0 0 C0.99 0 1.98 0 3 0 C3 1.65 3 3.3 3 5 C2.01 5.33 1.02 5.66 0 6 C0 4.02 0 2.04 0 0 Z " fill="#EAEAEB" transform="translate(457,141)"/>
<path d="M0 0 C2.31 0 4.62 0 7 0 C6.01 0.495 6.01 0.495 5 1 C5 1.66 5 2.32 5 3 C3.35 3 1.7 3 0 3 C0 2.01 0 1.02 0 0 Z " fill="#232535" transform="translate(444,106)"/>
<path d="M0 0 C0.99 0 1.98 0 3 0 C3 1.65 3 3.3 3 5 C2.01 5.33 1.02 5.66 0 6 C0 4.02 0 2.04 0 0 Z " fill="#F0F1F2" transform="translate(26,28)"/>
</svg>
